<mxfile modified="2021-04-29T00:09:03.016Z" host="app.diagrams.net" agent="5.0 (X11; Linux x86_64) AppleWebKit/537.36 (KHTML, like Gecko) Chrome/90.0.4430.93 Safari/537.36" etag="PG4hpRtlpmZy2VPpwOxd" version="13.7.3" type="github">
  <diagram id="f106602c-feb2-e66a-4537-3a34d633f6aa" name="Page-1">
    <mxGraphModel dx="944" dy="528" grid="1" gridSize="10" guides="1" tooltips="1" connect="1" arrows="1" fold="1" page="1" pageScale="1" pageWidth="1100" pageHeight="850" background="#ffffff" math="0" shadow="0">
      <root>
        <mxCell id="0" />
        <mxCell id="1" parent="0" />
        <mxCell id="o3aBx_VyT8-OBaSvo29I-611" value="" style="rounded=1;whiteSpace=wrap;html=1;fillColor=#dae8fc;strokeColor=#000033;" parent="1" vertex="1">
          <mxGeometry x="210" y="259" width="460" height="310" as="geometry" />
        </mxCell>
        <mxCell id="o3aBx_VyT8-OBaSvo29I-590" value="" style="pointerEvents=1;shadow=0;dashed=0;html=1;strokeColor=none;labelPosition=center;verticalLabelPosition=bottom;verticalAlign=top;align=center;fillColor=#505050;shape=mxgraph.mscae.intune.company_portal" parent="1" vertex="1">
          <mxGeometry x="250" y="173" width="50" height="38" as="geometry" />
        </mxCell>
        <mxCell id="o3aBx_VyT8-OBaSvo29I-591" value="www.rootzilopochtli.com" style="text;html=1;strokeColor=none;fillColor=none;align=center;verticalAlign=middle;whiteSpace=wrap;rounded=0;" parent="1" vertex="1">
          <mxGeometry x="585" y="151" width="40" height="20" as="geometry" />
        </mxCell>
        <mxCell id="o3aBx_VyT8-OBaSvo29I-594" value="" style="aspect=fixed;html=1;points=[];align=center;image;fontSize=12;image=img/lib/mscae/CustomDomain.svg;" parent="1" vertex="1">
          <mxGeometry x="580" y="171" width="50" height="42" as="geometry" />
        </mxCell>
        <mxCell id="o3aBx_VyT8-OBaSvo29I-595" value="monitor.rootzilopochtli.com" style="text;html=1;strokeColor=none;fillColor=none;align=center;verticalAlign=middle;whiteSpace=wrap;rounded=0;" parent="1" vertex="1">
          <mxGeometry x="255" y="151" width="40" height="20" as="geometry" />
        </mxCell>
        <mxCell id="o3aBx_VyT8-OBaSvo29I-614" style="edgeStyle=orthogonalEdgeStyle;rounded=0;orthogonalLoop=1;jettySize=auto;html=1;exitX=0.005;exitY=0.5;exitDx=0;exitDy=0;exitPerimeter=0;startArrow=none;startFill=0;curved=1;" parent="1" source="o3aBx_VyT8-OBaSvo29I-596" target="o3aBx_VyT8-OBaSvo29I-602" edge="1">
          <mxGeometry relative="1" as="geometry" />
        </mxCell>
        <mxCell id="SYBpbQejeq2HBVFwJb7x-15" style="edgeStyle=orthogonalEdgeStyle;curved=1;rounded=0;orthogonalLoop=1;jettySize=auto;html=1;startArrow=classic;startFill=1;exitX=0.5;exitY=0.985;exitDx=0;exitDy=0;exitPerimeter=0;entryX=1;entryY=0.5;entryDx=0;entryDy=0;" edge="1" parent="1" source="o3aBx_VyT8-OBaSvo29I-596" target="SYBpbQejeq2HBVFwJb7x-1">
          <mxGeometry relative="1" as="geometry">
            <mxPoint x="730" y="424" as="targetPoint" />
          </mxGeometry>
        </mxCell>
        <mxCell id="o3aBx_VyT8-OBaSvo29I-596" value="" style="pointerEvents=1;shadow=0;dashed=0;html=1;strokeColor=none;labelPosition=center;verticalLabelPosition=bottom;verticalAlign=top;align=center;fillColor=#505050;shape=mxgraph.mscae.oms.wire_data" parent="1" vertex="1">
          <mxGeometry x="414" y="252" width="50" height="50" as="geometry" />
        </mxCell>
        <mxCell id="o3aBx_VyT8-OBaSvo29I-597" value="" style="shape=image;imageAspect=0;aspect=fixed;verticalLabelPosition=bottom;verticalAlign=top;image=data:image/png,iVBORw0KGgoAAAANSUhEUgAAAggAAAIICAYAAAAL/BZjAAAgAElEQVR4Xuydd5xURZeG37o9kZwRRUREzJE0I4pjxAQoCObvM6CEwQFExIyYARUYYBBzXBRMKGJAFCUOSFQxYEJBJCh5Yvet/d0xfCJhurturvfuH+uuVafOeU6Jj91dtwT4kAAJkAAJkAAJkMC/CAgSIQESIAESIAESIIF/E6AgcE+QAAmQAAmQAAnsQoCCwE1BAiRAAiRAAiRAQeAeIAESIAESIAESqJwAP0GonBFHkAAJkAAJkIB2BCgI2rWcBZMACZAACZBA5QQoCJUz4ggSIAESIAES0I4ABUG7lrNgEiABEiABEqicAAWhckYcQQIkQAIkQALaEaAgaNdyFkwCJEACJEAClROgIFTOiCNIgARIgARIQDsCFATtWs6CSYAESIAESKByAhSEyhlxBAmQAAmQAAloR4CCoF3LWTAJkAAJkAAJVE6AglA5I44gARIgARIgAe0IUBC0azkLJgESIAESIIHKCVAQKmfEESRAAiRAAiSgHQEKgnYtZ8EkQAIkQAIkUDkBCkLljDiCBEiABEiABLQjQEHQruUsmARIgARIgAQqJ0BBqJwRR5AACZAACZCAdgQoCNq1nAWTAAmQAAmQQOUEKAiVM+IIEiABEiABEtCOAAVBu5azYBIgARIgARKonAAFoXJGHEECJEACJEAC2hGgIGjXchZMAiRAAiRAApUToCBUzogjSIAESIAESEA7AhQE7VrOgkmABEiABEigcgIUhMoZcQQJkAAJkAAJaEeAgqBdy1kwCfyDwJCcFDQqPhBRowmErAkhIkCsCBC/YtvmbzD4623kRQIkoCcBCoKefWfVJACMbnswUsVzEOJ4SEQAGLD+RJAV/2NCYCuAe1Cv8Rh0nxwjMhIgAb0IUBD06jerJQFgXNZhgLgRApcAyKwEiQSwEKZ8GH3nTyI+EiABfQhQEPTpNSvVncDIY2shPe1iIDICQLWEcUj5EYBcrJ//NYbCTHg+J5AACQSKAAUhUO1isiSQBIEhMNAg6xIIcQeAQ5KI8M8pvwNyCqKyP/IKra8g+JAACYSUAAUhpI1lWSRQQWBsm2xEIoMhZUdAGDZSWQMhh8IofxE9FxXZGJehSIAEfEKAguCTRjANErCVwJPtqqPMnACJ7kDFDxCdeKzfJ2xCuXkm+hUucmIBxiQBEvCOAAXBO/ZcmQTsJ/BIdibSzX4QxrUAmtm/wG4jFld87VAevQ/9Pv3cpTW5DAmQgMMEKAgOA2Z4EnCFwISWqTAjJ0FGHgNwkCtr7rpIDNIcipToePRctNGjHLgsCZCATQQoCDaBZBgS8IzAqFaHIDXlCQjRMo5ji06naZ1u+Alm7D70XfCE04sxPgmQgHMEKAjOsWVkEnCWwPjs/SBlH0BcD6C6s4slFf1DCHEf6u73MV+0lBQ/TiIBTwlQEDzFz8VJIEkCBVn/hRQTIJCeZAS3ppmAfAPr5l+EoYi6tSjXIQESUCdAQVBnyAgk4B6BsW3PgWHcDOAEB08nOFHPBkg5DmUlozFg6WYnFmBMEiABewlQEOzlyWgkYD8B60VHDU9sCkTvA8TF9i/gZkT5M4CrESmfy/cnuMmda5FA4gQoCIkz4wwScI9AN0SQkzUMQvwHQH33FnZwJYkoBOYgavZBXuEKB1diaBIgAQUCFAQFeJxKAo4RmNCyCqKpF0CIewE0dWwdbwPHADkaUoxH7rxvvU2Fq5MACfybAAWBe4IE/Ebg8baNUWZMh4FDICsuYA77UwRpDkJuYUHYC2V9JBAkAjr84ROkfjBXnQmMPeEAGNK6UOkyABkaolgAwxyBtZlvYOhMnnjQcAOwZH8RoCD4qx/MRkcCj2TXQYbsDoh8AKk6IvhHzdb9DlMgMQjr533Pa6U13w0s31MCFARP8XNx7QmMy+oCiPsg0AKAnbctBh3tZkC+Auy4CX0+2xT0Ypg/CQSRAAUhiF1jzsEm0K1bBKf81BowBgM4P9jFOJ7995C4HzFzMvIKtzq+GhcgARL4mwAFgZuBBNwkYB1bPCXrUUBcA2jxA0R76Er8CGF2Rp/C5fYEZBQSIIHKCFAQKiPEv08CdhB47uiq2F6lLyB6hfjYoh2k9hajCJBvQRj3ovdcXivtNG3G154ABUH7LUAAjhLIb54Oo87xMCKPAjja0bV0CS7lDgB3I1b6NPKWbNClbNZJAm4ToCC4TZzr6UNgdNuDkWqMBZADIE2fwl2p1Drt8DNg3oV1hc/ytIMrzLmIZgQoCJo1nOW6QGBc6/0hU3rAQD8ANV1YUeMlpAkpPgDMB5Fb+JHGIFg6CdhOgIJgO1IG1JiAwJg2FyISeQJADY05eFS6+Qa2Rq/EzYu2eJQAlyWBUBGgIISqnSzGEwLW65ALsjsAuAUCJ/J9Bp504c9F5c+QeBKlq4fjhtXFXmbCtUkg6AQoCEHvIPP3lkB+y4OQknobUHHbYsTbZLj63wQkVkMaPWGum4G8b0tJhgRIIHECFITEmXEGCQAjjq6KKlWGQuBKQNQlEl8SsMRgGczo1ei78AtfZsikSMDHBCgIPm4OU/MhgSGHp6FezQsRwa0AjvBhhkxpVwLW+xMehWnko+/cVQREAiQQHwEKQnycOIoEBEa3bY5UYxqA5sQRUAJSXof185/ksciA9o9pu0qAguAqbi4WSAIV1zCbQwFh3ZvAY4uBbOLfSZuQciGA4cid/1qwS2H2JOAsAQqCs3wZPcgERh5bC+mZlwF4AED1IJfC3HdDQMrXYYpb8UnjlZg8OUZGJEACOxOgIHBHkMDuCBRkdQLEaAD783RCiLeIxGYIvIh1W27A0BVlIa6UpZFAwgQoCAkj44RQExib1RYGBgG4ABBGqGtlcf8ksAqQ92Jb5GUMnrONaEiABHjdLPcACfxB4OmcDOwoHgXD6EkkWhNYiVJ5JvrPXwUB674HPiSgLQF+gqBt61l4BYEhOSloUNwPwugDoBmpkAAEyiDxCsrNu9CvcCWJkICuBCgIunZe97onHZ6GjTWzAVkAiMN1x8H6d0ugBJC3QRgvoPfc9WREAroRoCDo1nHWCzzUsh4y016EQHsAGURCAnshICHlj5DyVvQtfImkSEAnAhQEnbqte60TTmqEaHlPCDGYYqD7ZkimfvkODONB1NlvDrrzWGQyBDknWAQoCMHqF7NNhoD1O4P6xefCMF4EUDWZEJxDAn8SsH64+ALklj7IXbGdVEggzAQoCGHuLmsDxp9wKiDvgJTteWyRG8I2AlKuhpRPwcTDyCvcaltcBiIBHxGgIPioGUzFJgJDYKDuCQfCMG+GIXrYFJVhSGB3BL6AaQ7AhsxZGDqzhIhIIEwEKAhh6iZr+ePYYsOSIYDoDYDXMHNPuEGgHJALEZXXIq9whRsLcg0ScIMABcENylzDeQKTsjOx0Xr7IW4BcKTzC3IFEtiFwFaY5gRIOR7XL/iBfEgg6AQoCEHvoO75SwiMPa4RjPTXIERb3XGwfj8QkDtgIhcbtk7k/Q5+6AdzSJYABSFZcpznPYFR7ZogLXYXIC7kbYvet4MZ/JOANAGxEKb5APoWvgnwtc3cH8EjQEEIXs+Y8SPZdZBqdkZEDAdEPQIhAf8SqBCFl2BG70ffhV/4N09mRgK7EqAgcFcEiYDA2LZnwxCjIERzWF8v8CGBYBDYAilfRFHRTRi0fEcwUmaWuhPgH7C674Cg1D8+uw1MDIRAFwApQUmbeZLAvwh8DYHhMMqeR89F5aRDAn4mQEHwc3eYG/Bku+oorfidQT8AESIhgXAQkD8D8jysK/wcQ2GGoyZWETYCFISwdTQs9Tydk4Hikj6AsK5hPigsZbEOEvgHge2AnAqBW9B7/o8kQwJ+I0BB8FtHdM+nGyI4JftEACMAtNYdB+vXgIBEMWDeCSmfRt8Fv2lQMUsMCAEKQkAapUWaE1o2QSzthT/FgNcwa9F0FvknAetrhnWQZh5yC18hFRLwAwEKgh+6oHsO409oANPsDYG+PLao+2bQvn7rtsi3YYoRyJ07C4LvT9B+R3gIgILgIXztl57QMhXlkfNgRJ4DUE17HgRAAv8kYMqnITLykDvTOhZpiQMfEnCVAAXBVdxc7G8CY7JyYOCeP1+PnEoyJEACuyMgf4bEBNTfOgLdV5SREQm4SYCC4CZtriUwLvsgCAwEcB0Ag0hIgATiICDxFWD2Q5XMT3AVr5WOgxiH2ECAgmADRIaIk8DY7KEwcD0EavEtiHEy4zAS+IuAQBkk5iFa0g15SzYQDAk4TYCC4DRh3eP/cWzxIkDeBIhjdMfB+knABgKlgJkPMzIOfeeusiEeQ5DAbglQELgxnCEwBAb2yWoCU0yGQCtnFmFUEtCawDbEYtdA1n0Tee+Uak2CxTtCgILgCFbNg448thbSMx8CYF3DXFNzGiyfBJwkICHlAkDchT7z3uOxSCdR6xebgqBfz52r2LqGOcO8EDAsOaju3EKMTAIksAsBiecQM4fht8KveL8D94cdBCgIdlBkDGBs6/YwUp4C0JSXKnFDkIBnBLZVHIuskn4HTzt41oPQLExBCE0rPSlEoKDt8ZDiJghhfZ3AY4uetIGLksAuBL6EjD2MopKXMGi59aIlPiSQMAEKQsLIOAGAwLB21VDVvAUGbq74v/mQAAn4j4DEYpSXX4pNn67k1w7+a4/fM+If7H7vkN/ym3R4GjbUvA4C/XkNs9+aw3xIYDcEpLQ+QZiKWPltyFv0HRmRQLwEKAjxktJ9nCUGv9dqiZh8GALZuuNg/SQQQAK/Iybvgkx9CXmz+KKlADbQ7ZQpCG4TD+J6Y9vUhRF5FsAZANKCWAJzJgES+IuA/BlCDkCvwtd4LJK7Ym8EKAjcH3smMK71PhAp1p0J/QDUISoSIIGQEJCIVlwrDfMh5BbODklVLMNmAhQEm4GGIlx+83Sk1DsJwPOA2CcUNbEIEiCB3REwIfE4ZOw29F3wGxGRwD8JUBC4H3YmUJB9MiSGAvIkCMFji9wfJKAHgR8h5ROI1X6Ir23Wo+HxVElBiIeSDmPGZTcHpHXTYi9A8HcGOvScNZLALgTkMgC3IFL+AXouKicgvQlQEPTuPzChZSqiqbdCiAG8N0H3zcD6SaDirSZlkPIzRCJd0HPOT2SiLwEKgq69t8SgLM26jLl/xW2Lki870nUrsG4S2AOBTRDycZixkchd+Csp6UeAgqBbzy0RGNfmYBjGBEDk6FY+6yUBEkiUgCyDkP9FsTEFN8wrTnQ2xweXAAUhuL1LPPNRbRsiDcMBoyOA2okH4AwSIAEtCVjHIgWWwDRvQ9/C6Voy0LBoCoIOTc9vWwOG6A4D9/DYog4NZ40k4BgBE5DPw4yNQN+FKwBIx1ZiYM8JUBA8b4HDCRS0Phky8gIE9gV4bNFh2gxPAnoQ+ON+h3HInT9Yj4L1rJKCENa+57c6DikpgwFxPoD0sJbJukiABDwkIPEVJEZgw5YXMHRFmYeZcGkHCFAQHIDqaciCE2sD0RshcTNfdORpJ7g4CehDwLpWWpRfinXVvsPQmdZrnPmEgAAFIQRN/LuEgra5gPHXNczsbZh6y1pIwP8EdgDydURTb+Btkf5vVjwZ8l8i8VDy85ghOSmoV3IiDHE/r2H2c6OYGwloQ2A7hLwN5akTKQrB7jkFIcj9y29eA5F6L0OIU3kNc5AbydxJIHQErDeu/Iyy6NXot3BG6KrTpCAKQhAbPaFlTURTB0AgFxD1glgCcyYBEtCEgMQUmHIE+s6fC8FjkUHqOgUhSN16OicDRaXW2w8nQqBWkFJnriRAAhoTEIhBmmOQZtyDHvM28f0JwdgLFIRg9AkY06YVIpERANoBSA1K2syTBEiABP5B4CdAFiC6cRTyvi0lGX8ToCD4vT+j2zZHipELgX7+TpXZkQAJkECcBCQWQshbEa09C3nvUBTixOb2MAqC28QTWW9c2xshjDsBVE9kGseSAAmQQAAIRCHlHKTJi3Bt4boA5KtdihQEv7XcuoY5mtoFEDdWXMPMhwRIgATCTeB3SDwFA6PQe96acJcarOooCH7p16RuEfzy/X5ITZsAgbP8khbzIAESIAFXCEhsgDSvRZnxPq+VdoV4pYtQECpF5MKAJ7LroAwPALgIQE0XVuQSJEACJOBHAjFUvLZZ3oo+8633J/C2SA+7REHwED6sexNktDOEuA+wblvkQwIkQAIkAKAMUj4LYCRy539JIt4QoCB4wx0Ym3U8hHgZAgcBYB+86gPXJQES8DOBkgpJqLflLnTnbZFuN4r/YnKb+LgTjoUwrWuYu/J9Bm7D53okQAKBI2C9fVHKzwA5CvWaPIfuk2OBqyGgCVMQ3Gqc9XWCGc2FIW4DkOHWslyHBEiABMJDQC4A5LVYV/g5hsIMT13+rISC4HRfKo4tplwLYQwE0Mzp5RifBEiABEJNQGIrIN8FYv2Qu/DXUNfqcXEUBKcaMAQG6mW1R6TiE4PT+DsDp0AzLgmQgKYEfoMp70Z5yXMYsHSzpgwcLZuC4ATesW3qwjCeB8QZAFKcWIIxSYAESIAEKo5BbkJUXoS8+R+Qh70EKAh28iw4qjZk1X4QogeA/ewMzVgkQAIkQAJ7ICCsY5GYhigeQN68BeRkDwEKgh0c85unQ9Q7FSniMUg0tiMkY5AACZAACSRBQMqHYRjD0XvuBr5oKQl+/5hCQVDjB4xr3RoiZRRQcW9Cmmo4zicBEiABElAgUHEsEj9DmvnILXxYIZL2UykIyW6BglbNYKZYxxb78NhishA5jwRIgAQcJbAQEndi/ZYPMZQvWkqUNAUhUWISAgVt8yCMYQDSE53O8SRAAiRAAq4SsF6s9DFKfj4PN6wudnXlgC9GQUikgePaXghhDALQmscWEwHHsSRAAiTgNQG5BcCjMM0R6LvgN6+zCcL6FITKutStWwTtVx8MQ+ZDVBxb5EMCJEACJBBcApsQi12NkpLpGLR8R3DLcD5zCsLeGE86PA0bauZDoBuAOs63gyuQAAmQAAm4QCAGyIWIygHIK5zvwnqBXIKCsLu2jTu8GmSNi2FUXMPcIJCdZdIkQAIkQAKVE5CYgIiZj56FX8I6AcHnbwIUhH9vhjHZR8HANIiKFx2RD/9hIQESIIHwEyiBlPcid771H4V8/iTAfwH+tRXGZR0GIW4HYF3DzNMJ/EeEBEiABPQjsByQjyC68SXkfVuqX/k7V0xBsO5NiIhrIY0HdN8MrJ8ESIAESKCCwIeIleWiYbOV6D7ZOiap5aO3IOS3OQkpkccBtODXCVrufxZNAiRAAnsisA0ST2H9vBswFKaOmPQVhIKsswExCUA1HRvPmkmABEiABOIgIM3n0KfwSh1/wKinIAxpmoGGjb4H0CiO7cEhJEACJEACuhKwTjaY5gDkFo7WDYF+gjAkJwUNSqbxpUf+2eqGEDi45v44YZ+jcGzdFjig+j5oVLUuGmTWRo3Uqqiamon0SOrfCZebURRHS7G1bAc2l23HhuJN+LXod/y8fR1WbPoBn/32HZb//h2iprZfHfqnuZplUjOtGk5v3AonNjoaLWodgAOqNUT9zNqolV4Nacb/9rCFpSRWhs2l27C+eDNWbVuLrzevwie/LMPMXxZjW3mRZuR8X24M0VhL5C1Y5vtMbUxQP0EYn9UOUsy2kSFDJUGgSko69qvaAF2a5eCqQ8/FIbWaJBFlz1N2lBfj7Z/mYtLKGVi88WusL9kM6//HhwTsJpCZko5Dax2AvkddiCsPOQeGMJSWsOT3ya/ewqNfvI5vt6xGaaxcKR4n20TAlI+g7/yBNkULRBj9BKEg6x6g4jgjHw8IWP8VdfVh56HX4eejea3GqJqS6XgWm0u3Y/WO9Zi2ah4mfPE6vt/2i+NrcgE9CFzQrD3uatUDLWo1QUbE3tved5SXVHyqMGjeGHy4ZrEeQP1d5Rr0mdfY3ynam52GgpD9EYAcezEyWmUEqqZk4NKDz8TAYy+1/dOCytb+59+3/mvsg9UL8cI372LGmkUVX0/wIYFECbSsfyjubHUVzjugnfInBpWtHZMm/m/l+7hv0TP4evNPlQ3n33eSgClbou98bWxNQ0HI+gYQBzu5hxh7ZwLH1WuBjzqPQ820qr5BY71PdXt5EW4vnICxn78KU2p5isk3/QhKItbvZfoffTFGZPeF9dduPqaUuGLG0ApZ4OMVAfNq9Cl82qvV3V7X3R3udnW7W6+AguBWG6qnVsG9ba7D1Yd1RLVU579KSLYu67/KXvzmPeR/NhlbyrYnG4bzQk7A+tHs6HYD0PWgHKQaKZ5Ua/2w8bmvpuGm+eOwpYwXEbrfBNkbfeY/6v663qxIQfCGe+hXbVp9H7x0xj1o2/CIwNT63ZY16PXJcHz8yxJYJyX4kMBfBOpl1MKrHe5D+32P8wWUyd9+iJ6fDMOm0m2+yEefJCgI4e41P0FwvL/WMcWZncehafXgvWbC+o3CJ2uX4MoP78UvOzY6zooL+J9A42oN8EHHfE9/O/NvStZXZHPWLsN50wbxUy9XtxAFwVXcri9GQXAUeZsGh+O980aiVnp1R9dxOviqbb/ihrn5eOvH2fw0wWnYPo5vvb9g4ul346wmWb7L0pKEl1d+gGs/fgDbeYTXpf5QEFwC7dEyFATHwDfIrIVvLp0E62UxYXiklHh42UQMmjc2DOWwhgQJRISBVzrch/MPPDnBme4OH7X8ZQyYo91L/tyF/PdqFASPwLu0LAXBEdD1Mmriw05jcVTdgxyJ72XQaT/Nw39mDMVvJVu9TINru0zgsoM74MlTbkG6ze83sLsM6wVg5797c8XxXT5OE6AgOE3Y2/gUBNv5W7/ofixnMK485FzbY/sl4MrNP+Ostwfg+618yZJfeuJkHtarv7+8ZCKsTxGC8BRHy3Dw/3XDmh0bgpBugHOkIAS4eXGkTkGIA1JiQ64+tCOeyLkZwuVz4YllqT76q02rcNqb1+OXIv54UZ2mvyM8f9oQXN6ig7+T/Fd2w5e8gMHzCwKVc/CSpSAEr2eJZExBSIRWpWOtVycv7f4sDqvdtNKxYRhgvRv/3GkD8c3mn8NQDmvYDYGj6zbH/C6Pw7pjIUiPdcHT0S9fgR+3rQ1S2gHLlYIQsIYlmC4FIUFgex9+R8urcHeba22N6fdgX276ES1fuariRkk+4SJgQGBZ9+dwZEB/S/Pa9zNx4Xu3QcI648DHfgIUBPuZ+ikiBcG2bjSp1rDie9oqKRm2xQxKIOv4Y/f3b6+4spdPeAgcX+8QzOkywfaLl9witK74d7ScfBV/i+AYcAqCY2h9EZiCYFsbrjm0Ix4/5Rbo9zrOPxA+sPg5DFn4BN+TYNuO8j7QLcf9B/dn9fI+EYUMLp1+JyZ++4FCBE7dMwEKQrh3BwXBtv5O75iP0xu3si1e0AJZFzz1mzMKYz97JWipM989ELA+ETu01gGB5vPp+q/Q+tWrA12Df5OnIPi3N3ZkRkGwgyIaVamHn654HSlGxJZ4QQ1iXe5kfefLM+hB7eD/8j689oH44uIXg18IgKYvdIH1NlA+dhOgINhN1F/xKAi29KP3kV1QcNKNtsQKehDr2ujWr/bAV5t+DHopWuc/8JhL8dAJfUPB4LIP7uK10I50koLgCFbfBKUg2NKK1zo8gAua+fsVtLYUGmeQZRtXVrxI6dei3+OcwWF+ImD9juaVDg+gS0j29LAlL+BmvhPBgS1GQXAAqo9CUhCUm5ERScP8rk/gmLrNlWOFKcD7Pxei8zuDebIhgE1Nj6Ti484FgbqefG+YJ307AxdNvyOAnfB7yhQEv3dILT8Kgho/ALXTq2Nh1ydxUM3GyrHCFCAmTTz91VRcO/PBMJWlRS3VU6tgftfHYf0OIQzPh2sWVbz1k4/dBCgIdhP1VzwKgnI/GmbWwaJuT2O/qvWVY4UxQL/ZI5H/2eQwlhbamizpXXThMziwRqNQ1Lhw/Zdo8+o1oajFX0VQEPzVD7uzoSAoE7XEYHG3Z9Ags7ZyrDAGiJoxtHv9OixY/2UYywtlTXUzala8QTEs0vvlplU4/KVLQtkrb4uiIHjL3+nVKQjKhCkIlSPcULwZp7+Vh+W/fVv5YI7wnAAFwfMWBCQBCkJAGpVkmhSEJMH9bxoFIT6EKzb9iFOn9IX1+ls+/iZAQfB3f/yTHQXBP71wIhMKgjJVCkL8CKf/vAAd3xmE0lh5/JM40nUCFATXkQd0QQpCQBsXZ9oUhDhB7XkYBSF+hNatevnLJ2Hw/AJKQvzYXB9JQXAdeUAXpCAEtHFxpk1BiBMUBUEZ1D8C9J8zCqOXT7IzJGPZSICCYCPMUIeiIIS6vaAgKPeXnyAkjnBr2Q5cPmMorGui+fiPAAXBfz3xZ0YUBH/2xa6sKAjKJCkIySHcUrYDp0zJxZKN3yQXgLMcI0BBcAxtyAJTEELW0H+VQ0FQ7i8FIXmE329Zg7avXYuNJZuTD8KZthOgINiONKQBKQghbeyfZVEQlPtLQVBDaJ1s6PTOTbyzQQ2jrbMpCLbiDHEwCkKImwvwNwjq7aUgqDN88su3cN3Hw2BKUz0YIygToCAoI9QkAAUh3I3mJwjK/aUgKCOsCHDj3DF4eNlEe4IxihIBCoISPo0mUxDC3WwKgnJ/KQjKCCsClETLcP47g/H+6gWw3pfAxzsCFATv2AdrZQpCsPqVaLYUhESJ7TKegqCM8O8Av5duRc4bufjs9+/sC8pICROgICSMTNMJFIRwN56CoNxfCoIywp0CrNj0A855eyBWbfvV3sCMFjcBCkLcqDQfSEEI9wagICj3l4KgjHCXAJ/8shRnTu3H1zHbjzauiBSEuDBxECgI4d4EFATl/lIQlBHuEsA6zfDCN++hx8wHUG5G7V+AEfdKgILADRIfAQpCfJyCOoqCoNw5CoIywj0GuGneOIxY+qJzCzDybglQELgx4iNAQYiPU1BHURCUO0dBUEa4xwAlsTJc/P4dmI21RFAAACAASURBVPLjLOcWYeRdCFAQuCniI0BBiI9TUEdREJQ7R0FQRrjXAJtKt6HDW/2xcMOXzi7E6H8ToCBwM8RHgIIQH6egjqIgKHeOgqCMsNIAa4t+w9EvX46NJVsqHcsB6gQoCOoM9YhAQQh3nykIyv2lICgjjCvAh2sW4eypA1DGHy3GxUtlEAVBhZ5OcykI4e42BUG5vxQEZYRxB3jiyzeRN3skiqOlcc/hwMQJUBASZ6bnDApCuPtOQVDuLwVBGWFCAQbPK8DwpS8kNIeDEyNAQUiMl76jKQjh7j0FQbm/FARlhAkFKIqWVLwfYeLK6QnN4+D4CVAQ4mel90gKQrj7T0FQ7i8FQRlhwgG2lhXh5Cm9sXTjyoTnckLlBCgIlTPiCIsABSHc+4CCoNxfCoIywqQCfLdlDc54Kw8/bFub1HxO2jMBCgJ3R3wEKAjxcQrqKAqCcucoCMoIkw7w8S9LKi52sr524GMfAQqCfSzDHYmCEO7+UhCU+0tBUEaYdAApJaaumo3z37kZJmTScThxZwIUBO6I+AhQEOLjFNRRFATlzlEQlBEqB7htwQTcv+hZ5TgM8AcBCgJ3QnwEKAjxcQrqKAqCcucoCMoIbQlw/ruD8eYPsyH5SYIyTwqCMkJNAlAQwt1oCoJyfykIyghtCVBxZ8PU/li4nnc2qAKlIKgS1GU+BSHcnaYgKPeXgqCM0LYAP23/FadM6Yvvt/5iW0wdA1EQdOx6MjVTEJKhFpw5FATlXlEQlBHaGmDOr8uRMyUXUTNma1ydglEQdOq2Sq0UBBV6/p9LQVDuEQVBGaHtAV785j1c9/EwHn9MkiwFIUlw2k2jIIS75RQE5f5SEJQROhLg9sIJuH/xc/zRYhJ0KQhJQNNyCgUh3G2nICj3l4KgjNCRANaNj9fPfgRPfvmWI/HDHJSCEObu2lkbBcFOmv6LRUFQ7gkFQRmhYwG2lG2veNPi3F8/c2yNMAamIISxq07UREFwgqp/YlIQlHtBQVBG6GiADcWb0fKVK/Hz9vWOrhOm4BSEMHXTyVooCE7S9T42BUG5BxQEZYSOB5i1dhk6TO2H4miZ42uFYQEKQhi66EYNFAQ3KHu3BgVBmT0FQRmhKwHe+nE2ur53K8rNqCvrBXkRCkKQu+dm7hQEN2m7vxYFQZk5BUEZoWsB7lr4JIZ++qRr6wV1IQpCUDvndt4UBLeJu7seBUGZNwVBGaFrAWKmif9+eDcmfjsdpuTtj3sCT0FwbUsGfCEKQsAbWEn6FATl/lIQlBG6GmBbWRFy3szF4g1fu7pukBajIASpW17mSkHwkr7za1MQlBlTEJQRuh5g1bZfcfbbN+DLTT+6vnYQFqQgBKFLfsiRguCHLjiXAwVBmS0FQRmhJwHmr/sCp0zJRUmMJxv+3QAKgidbMoCLUhAC2LQEUqYgJABr90MpCMoIPQkgIfHuT/PR5d1bKAn/6gAFwZMtGcBFKQgBbFoCKVMQEoBFQVCG5cMA9yx6GkMWPME7G/7RGwqCDzeqL1OiIPiyLbYlRUFQRslPEJQRehogKmPo88lDeHzFFE/z8NPiFAQ/dcPPuVAQ/Nwd9dwoCMoMKQjKCD0PsKVsBzpOuxHWGxf5ABQE7oL4CFAQ4uMU1FEUBOXOhU0Qfty2FtVTq1T8S0KnZ1Pptoo7G37YulansndbKwVB+y0QJwAKQpygAjqMgqDcuLAJgvVf0b0+Ho4PO41Bwyp1lPkEKYB1suHE13shJmNBStv2XCkItiMNaUAKQkgb+2dZFATl/oZRENq/0RuXtzgLj588GBkp6cqMghTg9R8+xn9n3INt5UVBStvWXCkItuIMcTAKQoibC4CCoNzfsAqCgEDvIy7A2JMGQgihzClIAe5b9AxuX/BYkFK2NVcKgq04QxyMghDi5lIQ7GhuWAXBYpOZko4xJ96Aaw7raAeqwMQoi0UxYM4ojF/xOqSGdzZQEAKzVT1OlILgcQMcXp6fICgDDrMg/AXn/Y6jcUbj1sqsghRge3kRznirP+av+zxIaduSKwXBFowaBKEghLvJFATl/uogCE2qNcTcLo/BqlWn59ei33D6W/3wxe/f61Q2jzlq1W2VYikIKvT8P5eCoNwjHQTBgnRIrSaY2Xkc9qlSV5lZkAIUrvsCp7+Vh+3lxUFKWylXfoKghE+jyRSEcDebgqDcX10EwQLVqelJmHL2MGVmQQogASxa/xWyX78WUVOP448UhCDtUC9zpSB4Sd/5tSkIyox1EgQL1g3HXIxhWblIMSLK7IIU4KGlL2LQvHFBSjnpXCkISaPTbCIFIdwNpyAo91c3QYgIAxPPuBsXNjtFu+OP1858EE999RbMkJ9soCAo/7GgSQAKQrgbTUFQ7q9ugmABy4ikYfKZ9+G8pu2U+QUpwLayIpw7bWDo72ygIARpV3qZKwXBS/rOr01BUGasoyBY0JpWb4QPOuXjoBr7KTMMUoANxZtx6pt98XmITzZQEIK0I73MlYLgJX3n16YgKDPWVRAscI2rNsDibs+gfmYtZY5BCrBk4zc4fvKVQUo5oVwpCAnh0ngwBSHczacgKPdXZ0GwXsDcpVkOXjj9roqvHXR63vlpPi6Zfie2lG0PXdkUhNC11KGCKAgOgfVJWAqCciN0FoS/4PU5ogvyT7oB1g8YdXoeXPw8blswAaY0Q1U2BSFU7XSwGAqCg3B9EJqCoNwECgKQHknFyHb9Ky530ukpN6O4rXACrCOQ1vsSwvJQEMLSSafroCA4Tdjb+BQEZf4UhD8QGsKoeInSeQfodbJha9kOdHnvFsxY/anyXvJLAAqCXzrh9zwoCH7vkFp+FAQ1fkDF/QTWD/UaZNZWjuWHALPWLkP7N3onlUq9jJpYcfFE7X60WBItw3GT/4OvNv+UFDe/TaIg+K0jfs2HguDXztiTFwVBmSMFYWeEh9Y+AB90zNfuYqdPN3yFnDf6YEe0RHlPeR2AguB1B4KyPgUhKJ1KLk8KQnLc/jGLgrArwvMPbI+JZwxFRiRdmW+QAlgXO5325vWBlwQKQpB2nZe5UhC8pO/82hQEZcYUhF0RCghcd0RnjDvpRq1ONlg/VMxfPgn954xS3ldeBqAgeEk/SGtTEILUrcRzpSAkzuxfMygIu0eYaqRg3EkD0eOwTlrd2WDd09B/zkgUfP4aYgE9/khBUP5jQZMAFIRwN5qCoNxfCsKeERpC4I2zhqFj0xOVOQcpQHG0tOJ1zPPXfRGktP/OlYIQyLZ5kDQFwQPoLi5JQVCGTUHYO8L9qzXE++eNgvXjRZ2e9cWbcO60G/Hp+i8DVzYFIXAt8yhhCoJH4F1aloKgDJqCUDnC/as1QGGXJ9Coar3KB4dohHVnw8lv9MG28qJAVUVBCFS7PEyWguAhfBeWpiAoQ6YgVI7Q+tHiGfu3xtvnPIwUI1L5hBCNsL5mOPOtfoGSBApCiDago6VQEBzF63lwCoJyCygI8SO0XsWcf+INWkmCdbJh9PKXMXDumMDc2UBBiH9P6z2SghDu/lMQlPtLQYgfofVJwmM5N6PHYR3jnxSCkRIStxU+hgcWPxuIaigIgWiTD5KkIPigCQ6mQEFQhktBSAxhqhHBS2fcU3FNtE6P9TuEbu/dhvd+LvR92RQE37fIJwlSEHzSCIfSoCAog6UgJI7Qurdi7gWP4aCa+yU+OcAzSmJlyHq1B5b99q2vq6Ag+Lo9PkqOguCjZjiQCgVBGSoFITmEzWs2xkedx6Fx1frJBQjorM9++w6tXrkKZWbUtxVQEHzbGp8lRkHwWUNsToeCoAyUgpA8wk5NT8QLp92F6mlVkg8SwJnWjZmd37kJm0q3+TJ7CoIv2+LDpCgIPmyKjSlREJRhUhDUEF7eogOePfUOGMJQCxSw2WM+m4y82SN9mTUFwZdt8WFSFAQfNsXGlCgIyjApCGoI0yKpuK9NT9x47KVqgQI227qn4c4Fj+HBJS/47vgjBSFgm8mzdCkInqF3ZWEKgjJmCoIywooAr3Z4AF2anWxPsIBEKYqWoNM7N2HG6k99lTEFwVft8HEyFAQfN8eG1CgIyhApCMoIKwLUz6yFWec/ikNqNbEnYECibCnbjg5TB6DQRxc7URACsnk8T5OC4HkLHE2AgqCMl4KgjPDvAAfW2BczO49Dk2oN7QsagEhLN67EmVP7YUPxZl9kS0HwRRsCkAQFIQBNUkiRgqAA74+pFARlhDsFaLfP0Zh9waP2Bg1AtG+3rMYxk65AUbTU82wpCJ63ICAJUBAC0qgk06QgJAnuf9MoCMoIdwlw9WHnYcLJg5Ei9LnYyXod8+Mr3kTPj4fZDzTBiBSEBIFpO5yCEO7WUxCU+0tBUEa4SwDrzoaC9jfi2sM7I6LZ8cdbCh/FiCUvwDrl4NVDQfCKfNDWpSAErWOJ5UtBSIzXbkZTEJQR7jaAdS30i6ffhe4HnebMAj6Nap1sOP+dwZi+eqFnGVIQPEMfsIUpCAFrWILpUhASBLbrcAqCMsI9BtinSl1MO/dhHFevhXOL+DDy9vIinPFWP8z36GQDBcGHm8KXKVEQfNkW25KiICijpCAoI9xrAOtip6Xdn0OjKnWdXchn0VduWY3DJ16CqIy5nhkFwXXkAV2QghDQxsWZNgUhTlB7HkZBUEZYaYDTG7fGqx3uR420qpWODdOAees+R6dpg7CxZIurZVEQXMUd4MUoCAFuXhypUxDigLT3IRQEZYRxBbi8xVl45tTbENHoZIMFZtznr2LAnNEod/H2RwpCXFuSg0BBCPcmoCAo95eCoIwwrgCpRgrubHU1bm95ZVzjwzLIOs3w4JLncceCxyCldKUsCoIrmEOwCAUhBE3cSwkUBOX+UhCUESYUYOIZd+Pi5qcnNCfog7eXF+OyD+7Cmz/OcqUUCoIrmEOwCAUhBE2kIDjZRAqCk3R3jV01JQOfXfQCrNcy6/a0eeUaLNzwpeNlUxAcRxySBSgIIWnkHsrgJwjK/aUgKCNMOECzGvviw05jcUD1fRKeG+QJKzb9gJw3crGhxNk7GygIQd4lbuZOQXCTtvtrURCUmVMQlBEmFeDkfY/DlLOHo6ZmJxs+//17tH+jNzaVbkuKWzyTKAjxUOIY8EeKId8EFATlBlMQlBEmHeDSg8/E86fdCUOj1zFbdzY889U0XP3RfUlzq2wiBaEyQvz7fxDgJwjh3gkUBOX+UhCUESYdwLqn4d42PTHouMu0u7PhzoWP4/5FzyHmwIuUKAhJb0nNJlIQwt1wCoJyfykIygiVA7x0xt24SLOTDdZ7Ec58sz9mrl2szO/fASgItiMNaUAKQkgb+2dZFATl/lIQlBEqB7Bex/zm2cPRtuERyrGCFGBbWRE6vjMIH/+yxNa0KQi24gxxMApCiJsLgIKg3F8KgjJCWwLsW6Ue5nSZgKbVG9kSLyhBvt78E056ozc2FG+yLWUKgm0oQx6IghDuBlMQlPtLQVBGaFuAVvUPxczOBaiammFbzCAE+qLiZEMf/F661ZZ0KQi2YNQgCAUh3E2mICj3l4KgjNDWAJcdfCae0/Bkw9NfTkWvT0bYcmcDBcHWLRniYBSEEDeXXzHY0VwKgh0U7Y1xX9ueuOX4/0BA2BvY59FGLH0Rg+cVwDoKqfJQEFTo6TSXghDubvMTBOX+UhCUEdoewBKDZ0+7A1e0OMv22H4OuCNagv/OuBuvfj9TKU0KghI+jSZTEMLdbAqCcn8pCMoIHQlQK60aZnTKx/H1D3Ukvl+DWrc/5kzpg9lrlyedIgUhaXSaTaQghLvhFATl/lIQlBE6FqBJtYaYdcGjsP63Ts8PW3/BcZP/iy1lO5Iqm4KQFDYNJ1EQwt10CoJyfykIyggdDXBSo2Pxaof7UT+zlqPr+C34ko3f4KypA7A+ieOPFAS/ddOv+VAQ/NoZe/KiIChzpCAoI3Q8QNdmp2DSmfdodWeDBfXZr607G+6HKc2EGFMQEsKl8WAKQribT0FQ7i8FQRmh4wFSjAhuOOZiPNi2D4TQ52SDdZph+JIXcFvhBFi/TYj3oSDES0r3cRSEcO8ACoJyfykIyghdC/DsqXfgP4ec7dp6flioJFaGi9+/A1N+nBV3OhSEuFFpPpCCEO4NQEFQ7i8FQRmhawFqpFbFB53y0brBYa6t6YeFiqOlOG/aIHy45tO40qEgxIWJg3jdc8j3AAVBucEUBGWErgbYv1oDfNhpLJrXbOzqul4v9s3mn3Dm1H5YtW1dpalQECpFxAEVBPgJQrg3AgVBub8UBGWErgc4rHZTfNr1KVTR7M6GVdt+rTj+uKl0216ZUxBc35IBXZCCENDGxZk2BSFOUHseRkFQRuhJgO4HnYaXzrhbux8tTvp2Bi6dPgTmXl7HTEHwZEsGcFEKQgCblkDKFIQEYO1+KAVBGaFnAe5pcx0GH3c5Uo0Uz3LwYuHhS1/ErfPH7/FkAwXBi64EcU0KQhC7Fn/OFIT4We1hJAVBGaFnAQwh8GTOrbjy0HM9y8GLhUtj5bhk+h14/YdPdrs8BcGLrgRxTQpCELsWf84UhPhZURCUWfkxQJ30Gnilw/04Zb/j/ZieYzmVmVGc9/ZATF+9cJc1KAiOYQ9ZYApCyBr6r3IoCMr95ScIygg9D9Awsw7md30cTas38jwXNxNYs2MDjnzpMmwu277TshQEN7sQ5LUoCEHuXuW5UxAqZ1TJCAqCMkJfBGhZ/xC8c+5I7e5sWP7bt+gwtT9+Lfr97z5QEHyxJQOQBAUhAE1SSJGCoADvj6kUBGWEvgnQtVkOXj7zHkRExDc5uZHIc1+/g14fD0dxrLRiOQqCG9TDsAYFIQxd3HMNFATl/lIQlBH6JkBEGOh9RBeMOekG3+TkRiLWnQ1jP3sF/eeMgiklBcEN6KFYg4IQijbusQgKgnJ/KQjKCH0X4PGcm9HjsE6+y8vJhKzXMff8eBie/+ZdCoKToEMVm4IQqnbuUgwFQbm/FARlhL4LkB5JxezzJ6BVg0N9l5vTCZ35Vj8s3vgNlnV/ruLrszA8X25ahcNfuiQMpfisBgqCzxpiczoUBGWgFARlhL4M0LhqfXzUeZx2dzb8uG0tur57K948ZzgFwZc7009JURD81A37c6EgKDOlICgj9G2Ao+s2x/SOo9Egs7Zvc3QisfXFm5ARSUONtKpOhHc9Jj9BcAo5BcEpsv6IS0FQ7gMFQRmhrwN0btoeb5z9oK9zZHJ7J0BBcGqHUBCcIuuPuBQE5T5QEJQR+jqA9TrmAcdcjAfa9tbuzgZfNyaB5CgICcBKaCgFISFcgRtMQVBuGQVBGWEgAjyRcyuuOey8QOTKJHcmQEFwakdQEJwi64+4FATlPlAQlBEGIkDNtGp46cx7cNb+bQORL5P8HwEKglO7gYLgFFl/xKUgKPeBgqCMMDAB9qlSFx92GoPDajcNTM5MFKAgOLULKAhOkfVHXAqCch8oCMoIAxXgoJr7YWHXp1A7vXqg8tY5WQqCU92nIDhF1h9xKQjKfaAgKCMMXIDzD2yPVzs8AOsHjHz8T4CC4FSPKAhOkfVHXAqCch8oCMoIAxkg76jueKTd9dpd7BTEZlEQnOoaBcEpsv6IS0FQ7gMFQRlhIAMICIxvPwg9jzg/kPnrlDQFwaluUxCcIuuPuBQE5T5QEJQRBjZAlZQMTDl7GE5r3Br8ssG/baQgONUbCoJTZP0Rl4Kg3AcKgjLCQAdomFkb87o8gQNrNAp0HWFOnoLgVHcpCE6R9UdcCoJyHygIyggDH+Dougdh6jkPY/9qDQJfSxgLoCA41VUKglNk/RGXgqDcBwqCMsJQBDj3gBPwxtnDkCIioagnTEVQEJzqJgXBKbL+iEtBUO4DBUEZYSgCRISB/7Q4G4+fcgusv+bjHwKLN3yNlq9c5Z+EQpMJBSE0rdxtIRQE5f5SEJQRhiaAdbJh7Ek3oM+RXUNTUxgKWbB+Bdq+2iMMpfisBgqCzxpiczoUBGWgFARlhKEKkB5JxZtnj8CZ+7cJVV1BLoaC4FT3KAhOkfVHXAqCch8oCMoIQxfAurPhg46jcUSdZqGrLYgFURCc6hoFwSmy/ohLQVDuAwVBGWEoAzSp1hCLuj2Nehm1QllfkIqiIDjVLQqCU2T9EZeCoNwHCoIywtAGOKdJNt4+9+HQ1heUwigITnWKguAUWX/EpSAo94GCoIww1AHyjuqGYdm5yIikhbpOPxdHQXCqOxQEp8j6Iy4FQbkPFARlhKEOYJ1sGHfSQPQ+skuo6/RzcRQEp7pDQXCKrD/iUhCU+0BBUEYY+gDVUjPx7Kl3oEuznNDX6scCKQhOdYWC4BRZf8SlICj3gYKgjFCLAPUza2H2+Y+iRa0mWtTrpyIpCE51g4LgFFl/xKUgKPeBgqCMUJsAzWs0xoedx2D/ag21qdkPhVIQnOoCBcEpsv6IS0FQ7gMFQRmhVgGskw2vn/Ug0iKpWtXtZbEUBKfoUxCcIuuPuBQE5T5QEJQRahXA+tFi12Y5mHTmvRBCaFW7V8VSEJwiT0Fwiqw/4lIQlPtAQVBGqF0AQxh4+ITr0f/oi7Sr3YuCKQhOUacgOEXWH3EpCMp9oCAoI9QygCUJb549HOcckA3rUwU+zhGgIDjFloLgFFl/xKUgKPeBgqCMUNsADTJrY2bnsTis9oHaMnCjcAqCU5QpCE6R9UdcCoJyHygIygi1DtCsxr74sNNYHFB9H605OFk8BcEpuhQEp8j6Iy4FQbkPFARlhNoHOL1xa0zvOFp7Dk4BoCA4RZaC4BRZf8SlICj3gYKgjFD7ANZvEK489BwUtB/EOxsc2A0UBAegVoSkIDhF1h9xKQjKfaAgKCNkAACGEBjZrh+uP6obf7Ro846gINgM9O9wFASnyPojLgVBuQ8UBGWEDPAngSopGXjs5MG4rEUHMrGRAAXBRpg7haIgOEXWH3EpCMp9oCAoI2SAfxCwTja8f94oHFPvYHKxiQAFwSaQu4ShIDhF1h9xKQjKfaAgKCNkgH8RqJNeA19c/CL2qVKXbGwgQEGwAeJuQ1AQnCLrj7gUBOU+UBCUETLAbgic0bg1pp37CFKMCPkoEqAgKALc43QKglNk/RGXgqDcBwqCMkIG2AOBi5ufjmdPvYMXOynuEAqCIkAKQgUB/d53SkFQ/ieHgqCMkAH2QMB6HfODWX0w6NhLyUiBAAVBAd5ep/ITBKfI+iMuBUG5DxQEZYQMsBcCqUYKnj9tCLo3P5XHH5PcKRSEJMFVOo2CUCmiQA+gICi3j4KgjJABKiFQO706FnR9Es1rNiarJAhQEJKAFtcUCkJcmAI7iIKg3DoKgjJCBoiDgHVnwzvnjkSLWvvHMZpD/kmAguDUfqAgOEXWH3EpCMp9oCAoI2SAOAmc1rgVpp7zEF/HHCevv4ZREBIEFvdwCkLcqAI5kIKg3DYKgjJCBoiTgBACnQ44EZM63Is0IzXOWRxGQXBqD1AQnCLrj7gUBOU+UBCUETJAAgSskw33temJm4+/IoFZeg+lIDjVfwqCU2T9EZeCoNwHCoIyQgZIkIB1sdOzp96Jy3lnQ1zkKAhxYUpiEAUhCWgBmkJBUG4WBUEZIQMkQaB+Zi28e95IHF/vkCRm6zWFguBUvykITpH1R1wKgnIfKAjKCBkgSQJ10qtjcbdncUD1fZKMoMc0CoJTfaYgOEXWH3EpCMp9oCAoI2QABQLt9z0WH3cuUIgQ/qkUBKd6TEFwiqw/4lIQlPtAQVBGyACKBC45+Ew8nnMzqqZkKEYK53QKglN9pSA4RdYfcSkIyn1oVKUeFnd7OjRX885auwzt3+itzIUB3CMgIDAs27qz4TL3Fg3QSvPXfYHs164NUMZBSZWCEJROJZcnBSE5bv+YVTejJhZ2fRIH1thXOZYfArz+w8fo8u4tfkiFOSRAID2SioL2g3DVoefyzoZ/cZu2ai7OnXZjAjQ5ND4CFIT4OAV1FAVBuXNVUjJQ2PUJHFmnmXIsPwSYsOIN9Pp4uB9SYQ4JEqiTXgMfdR6Lo+s2T3BmuIc/9dVUXPPR/eEu0pPqKAieYHdtUQqCMmrr490POo7GqY1bKcfyQ4Cb5o3DiKUv+iEV5pAEgYaZdfDJ+QVoUatJErPDOeXm+QUYtuSFcBbnaVUUBE/xO744BcEWxHe0vAp3twnHd5znvD0Q7/w0zxYuDOINgVP2PR5vnTMCVVMzvUnAZ6ueMqUvZv6y2GdZhSEdCkIYurjnGigItvT3mLrNsbT7c7bE8jpInafOwqbSrV6nwfUVCeTsezymdxyNFCOiGCnY08ti5aj2xGkoN6PBLsSX2VMQfNkW25KiINiC0vqa4ctLJuKQgH+sO3XVHHScNsgWJgziLYGIMHB7yytxV+se3ibi8epjPpuMvNkjPc4irMtTEMLa2T/qoiDY1t+hrXvgzlZX2xbP7UAxaeLMN/vhw18Wub0013OQgHVnwxWHdNDyZENJtBRtXu2Bz37/zkHCOoemIIS7+xQE2/rbtuERmHPBBFj/5RbE57uta9DqlauwuXR7ENNnznsgUDu9Omad/yiOqHOgdowWb/gGJ77RE8XRUu1qd6dgCoI7nL1ahYJgG/lUI6VCEFo3OMy2mG4GGrnsJQycmw/p5qJcyxUCDTJr48NOY3BESI7ixgPNlBLdp9+GV7+bGc9wjkmKAAUhKWyBmURBsLVV+1Spg9VXTEEkYD8M21FejH2ePQ/by4tt5cFg/iFwRO0DK35Iq8uPFt9eNRfn8eVIDm9ACoLDgD0OT0GwvQETzxiKi5ufYXtcpwJKKdF/zijkfzbZqSUY1ycErBcoTTlrGJrWaOSTjJxJw9rTbV69Bp9u+MqZBRj1TwIUhHBvBQqC7f09rHbTijcrVk+tYntsJwL+uG0tjp98JTaVbnMiPGP6jMBhtQ7AW+c8hINq7uezzOxJJ2rGYL0Y6eFlE+0JyCh7IUBBCPf2oCA4NotwbQAAGbJJREFU0t8Lm52CiWfc7fuPc7eVFeH4V67Et1tWO8KBQf1JoEm1hnjj7GE4rl4LfyaokNXEldNx+Yy7YP0GgY/TBCgIThP2Nj4FwRH+6ZE0PH7yYFxxyNmOxLcrqPXVwujlk+wKxzgBIpAWScWodv3R6/DzIYQIUOZ7TvWTX5biwvdvxYbizaGox/9FUBD83yOVDCkIKvQqnftRp7HI2e/4Ssd5MSB/+WT0m8MXyHjB3k9rnrpvS0w5ZziqBfy1zF9v+glZr/XA5jIe03Vvf1EQ3GPtxUoUBEepN67aAK+f/QBa1ffX0cfHVkxBv9kjURIrc7R+Bg8GgcNrH4jbWv4XFzc/HUYA3+MxddVs9Px4OH7ZsTEYwEOTJQUhNK3cbSEUBMf7a7046YNOY5Cz73GOr1XZAtb3so9/OYXXOVcGSsO/b70uvHvz03B362txcK3GgXjzYmmsDFNXzcVVH96LbeVFGnbN65IpCF53wNn1KQjO8v0zes20anigbS/0OuICz77vtX7dnTf7ETz91dv85MCVrgdzkTrpNdD5wJPw0AnXw/prvz5F5SW4Zub9mPTdhzCl6dc0Q54XBSHcDaYguNZf602LvY/ogpuOuwz7Va3v2rrWQp/99h1uLXwU1mVMfEggHgL1Mmqh5+GdceFBp+Lougf55qsH67XJr//wMe5Y8Bi+3/pLPKVwjGMEKAiOofVFYAqC622wXnv75tkj0KbhYY5/jGu9MObJr6Yid9ZDsK695UMCyRA4ed/jML79IBxS6wAYHp14kJBYu2MjOrw1AJ9v+j6ZMjjHdgIUBNuR+ipgQfZiAN5/Oe4rKM4nY0Dg9P1bo8+RXXFukxNsf1+C9X3sSyunw/oxIt8m53w/dVjB+i3NkXWaoX2jY9H5wPZo1+hoZETSHC99a1kRJn83Ay+ufB/WMcaYjDm+JheIk4Bpnou+hdPiHB34YeE4DJxIGwqynwHw30SmcKy9BI6tdzAGHnMp2u1zFBpVrZf0H7qWFKzevh7v/jQfjyybiNU7NtibKKORwD8I1M2ogQsOzKn4vcLBNfdHvYyasH5ro3rXg3WyZn3xpoq9/H8r38dzX7/DHyD6c+eVIVLWAD0XbfFnevZnpZ8gjM+6DFK8YD9KRkyEgPWiGuta3n0y6+DERsfgzP3bIqvhEXv9rUJMmvhuyxrMXru0QgoW/7YS64t+5x+miYDnWGUC1h+a1dOqVuxf60eNR9U5CK0aHIqj6jbHwTUbY98q9fb6w9wtpdvxxaYfsHTjN5i9dhmW/fYdNpZsxsaSLfzxoXJ3HAwg8S5y5/n7TXA2l6+fIIxtUxeG8RUg6tnMkuFsIGC9vKZuek2kRVJ2ilYULa34Q7SUvyuwgTJDOEnA+kShVlo11EirCutrir+e4mhZxf0fO6K8QdRJ/g7G7o4+87S64U0/QbB2z+jsE5CKTwBEHNxMDE0CJEACJBAGAhJfoP68Y9AdWv0gRE9BkBB4NDsfEn3DsHdZAwmQAAmQgFMExDcQOAm95653agW/xtVTEKxuDDk8DQ2qPw7DuBgSzv802a87gHmRAAmQAAnsSkDAOmn6I6S4CLlzF+qISF9B+EsSGlY7AzDGA2J/HTcAayYBEiABEtiFgAlTjEME9+r4ycFfNPQWhL8o5J9UH5GyG2AYV0GiIf9hIQESIAES0JCAQBlMTAfMB5FbOFtDAjuVTEH4J46CE2sD0RcBdAACeMWb7ruZ9ZMACZBAMgT++DphExD7D/oseDuZEGGcQ0H4d1cntExFLPVkSHEHBNqHsemsiQRIgARI4E8CEhsAcxhSos+i5yLen/2PjUFB2NM/JRWikHYdgEEADuA/TCRAAiRAAqEisB1SfgRpXI++c1eFqjKbiqEgVAay4vcJsVwIeSuA1MqG8++TAAmQAAn4nYCcj3LZF78XLsFQ8O7sPbSLghDfPhYoaHs8IG4BxAUA/vd6tPjmcxQJkAAJkIDnBOQKSDMfVao8i6tmlniejs8ToCAk2qD8VschJfW1P792IL9E+XE8CZAACbhPoBRAPqIb7kDet9Zf84mDAP8FFwekXYb8cZ9DNwjcA8k7HZJByDkkQAIk4AKBKIAXAfMR9Cn8DIB0Yc3QLEFBUGnlhJY1EUsdCYgLrQveVEJxLgmQAAmQgG0ErGOLSxAxb0avwg8oBslxpSAkx+1/s4bkpGDfsgMQM58ExMmq4TifBEiABEhAhYDciJjsBSPzPeTO3K4SSfe5FAS7dsBHOSn4ouwSCHkDBI61KyzjkAAJkAAJxEVgG2A+CTMyiscW4+JV6SAKQqWIkhgwNut2GOJ2AOlJzOYUEiABEiCB+AnEIOU8FJdfgBv5oqP4sVU+koJQOaNkRgiMatUCaSn9ANGTxyKTQcg5JEACJFApgaUwzNtQZHyEG+YVVzqaAxIiQEFICFcSgwvaZgHC+iFjS75oKQl+nEICJEAC/yYgsBqmfBTrt47A0BVlBOQMAQqCM1x3jvpIdibS5dkQ4hmednADONcgARIILQEpC2AYQ9Fr7gZYlyzxcYwABcExtLsJPPLYWkjNvAkGegCo7+bSXIsESIAEAkzAEoFpMMVw5M6dRTFwp5MUBHc477zK+BMawDRfBUQWBFK8SIFrkgAJkEAACFhi8DvM2JXou2BqAPINVYoUBK/aOQQG6rc9DYa4u0IU+JAACZAACfyTQBGAuxBNeQZ5szYQjfsEKAjuM995RetFSw1KrocQeRA4ABLsidc94fokQAJeEtgOiXdRbvZF/8J1Xiai+9r8l5FfdkD+cfWRkj4QEAMBfu3gl7YwDxIgATcJyC9h4nIckbEcp8y07lHg4yEBCoKH8He79PjsNpDyJkB0BJDmt/SYDwmQAAk4QOBrCIzEr/OexFBQDBwAnExICkIy1NyYk591OlIqjkXuC/BrBzeQcw0SIAHXCZRAYAKMskHouajc9dW54F4JUBD8vEEeya6D9Fg3COMuQOzj51SZGwmQAAkkQCAGiUmIxIah14JlCczjUBcJUBBchJ30UvltGyMVw2Ea50KgRtJxOJEESIAEvCUQBeQXMM3beWzR20bEszoFIR5KfhhjHYvcN7sFopgAgfZ+SIk5kAAJkEACBLbDlH1RXPQKBi3fkcA8DvWIAAXBI/BJL/t0TgaKSy4CMAAQxyQdhxNJgARIwB0CmyDxHMrLHkH/RT+5syRXsYMABcEOil7EGIIUNMi+E8ISBVTzIgWuSQIkQAJ7IRAFzM8hjW7InfctSQWPAAUheD37X8bWS5XGZh+CSIUkXAMgEuRymDsJkEBYCMhlkLgDKeXv8nRCcHtKQQhu73bOvCD7ZAD3ATIbEEZYymIdJEACgSKwBpBPQ2YMQ+7M7YHKnMnuQoCCEKZNYV0rnRE7FYg8C6BumEpjLSRAAr4mYMKUT6G46DYMWr7e15kyubgJUBDiRhWggSNPaoT06PWQuB6Cv08IUOeYKgkEjYAJifcBczjWF36MoTCDVgDz3TMBCkKYd0d+2xqIRF6BkDkAUsNcKmsjARJwkYCAhMRaxNAf18+b7OLKXMpFAhQEF2F7slR+83Sk1T8RphwGiJae5MBFSYAEwkRgK6R5N2C+iNyFv4apMNayMwEKgi47ouJa6eJ+EEZfAE11KZt1kgAJ2EagFBJvISZuRt7c72yLykC+JUBB8G1rHElMYELLGihPuQuG0d+RFRiUBEggjAQ+hxnrig1VvsdQXsMcxgbvriYKgi6d/nedY9tkQxg3QojOfH+CrpuAdZNApQS+g5APw9z6PHJX8NhipbjCNYCCEK5+Jl7NmOwOMPAshKzP9yckjo8zSCCkBHYA8ilEygfyRUch7XAcZVEQ4oAU+iEFJ9YGopcDuBcQvC0y9A1ngSSwFwJSvgwh78dHTb7A5MkxstKXAAVB397vWvm41vsAkREQoiOAmkRDAiSgDQHrfQaLIc170bdwijZVs9C9EqAgcIPsTKAbIji59aEwUiYBOJx4SIAEQk8gBil7oL54Gd3nFYe+WhYYNwEKQtyoNBs4BAbqZ10BQ9wI4EjNqme5JKABAVkEiScQkyOQV7hag4JZYoIEKAgJAtNu+KTD07Chxj0QojeA6trVz4JJIHwEyiGxDIbsht7zfwxfeazILgIUBLtIhj3OuKzDIDAIEFcASAl7uayPBEJK4EeYoj+qpr2Hq2aWhLRGlmUTAQqCTSC1CfNo2zNgGvcAsF7bTFHQpvEsNOAE1kDiKcycNxSTwZMJAW+mW+lTENwiHaZ18s9Oh7GpM4SYAIFaYSqNtZBA6AhIcyJiaf1w/ayNsC5Z4kMCcRKgIMQJisN2Q2B89n6QyAVwHYC6ZEQCJOAbAtanBDNgRoej78IZvsmKiQSKAAUhUO3yabJj2hwII/IMDGRBIs2nWTItEtCBgATkb4Dohz7z/k+HglmjcwQoCM6x1SvykMPTUL/mSRB4EAKt9Cqe1ZKAHwjIHZDiXpSbT6N/4To/ZMQcgk2AghDs/vkv+xFHV0WVKv0hRA9eK+2/9jCjEBKQ2AEhZwDRm9Dn069DWCFL8ogABcEj8KFfNr9tDaSK+yAr3p8QCX29LJAEvCAg8S2EeTHWnbUEQ4eaXqTANcNLgIIQ3t56X5n1NsZ6WdkwxEAIXOB9QsyABEJDYCVMORLFRc9h0PIdoamKhfiKAAXBV+0IcTJj25wHIzIawIEAuO9C3GqW5iiB7ZDyFcRkP+QVbnV0JQbXngD/oNZ+C7gIIP+4+oikdYMwHuRrm13kzqVCQECaEOI1RMvuxvWLPgtBQSwhAAQoCAFoUuhSHNWyCdLSrLcxdgeQEbr6WBAJ2EpALoKJ4fh4/1cxeTLfgmgrWwbbGwEKAveHNwQmdYvgt2/2Aaq8CYnjvUmCq5KArwlshykHwKz9PPLeKfV1pkwulAQoCKFsa4CKmtCyCmKp3QDcCogWAcqcqZKAUwSKYconIEQ+cud969QijEsClRGgIFRGiH/fHQLdEEFO1v0QoieAmu4sylVIwFcEYoBciLLolejP9xn4qjOaJkNB0LTxvizbOhbZsN3BkNFbIYz/+DJHJkUCjhCQ30CYeTBis9BzUZEjSzAoCSRIgIKQIDAOd4nAmDYdEIncCaAtX7TkEnMu4wWBXyHxOFLKHkbPRVu8SIBrksCeCFAQuDf8S8C636FezQth4FkIpPg3UWZGAkkQkJiI2IZeyPt2G8BrmJMgyCkOE6AgOAyY4W0gMKFlI5Sn9oMh+vD9CTbwZAiPCcgPAAxDvf0/QnceW/S4GVx+LwQoCNwewSFgvT8hNW0iRMWxSL4/ITidY6bWJwRSroGUt6Jv4fMEQgJBIEBBCEKXmOP/CFhfOzSolQNhjuGxSG6MgBCwTifciUj50+i5aG1AcmaaJMB34nMPBJTAkCEGGrx3C4S45s/7HQJaCNMOMYESSExF1LwV/QpXhrhOlhZSAvwEIaSN1aaskcfWQlrmaAjwWKQ2TQ9AoRK/oNw8G/s2+YK/MwhAv5jibglQELgxwkFgfFY7QAyCxHk8FhmOlga0ijUAHkCkzPo6ge8zCGgTmfYfBCgI3AlhIiBQkH0hgIcANAZghKk41uJrAlsB+SrWZVyHoTOjvs6UyZFAnAQoCHGC4rAAERjbpi6EuBxCDAUEX9scoNYFMlUppyFm3opZCz7HZPC2xUA2kUnvjgAFgfsivAQebXswTHEXIDoBqBbeQlmZBwRMAEsg5Qjkzn/Zg/W5JAk4ToCC4DhiLuApAQmBgqxDATEZAkd4mgsXDwuBGIS8AUb5ePRcVB6WolgHCfybAAWBe0IPAta10uWp3WCIwQAO06NoVmkvAbkDJp5CqjEaPed+Z29sRiMB/xGgIPivJ8zISQLjcqrBKL0XJv4LgVpOLsXYoSFQDiFXANGr0PvTJaGpioWQQCUEKAjcIvoRsL52GN2qBVJTbofApYDgaQf9dkF8FUusgpB5WJfxPobOLIlvEkeRQDgIUBDC0UdWkQyBSd0i+P3nc2CKmwGckEwIzgktgV9gms+ivHQ4BizdHNoqWRgJ7IUABYHbgwQsUdjw84UQ4nHeFsntAIkpKC7rgRsXbSQNEtCZAAVB5+6z9p0JjM9qColekCIPApnEoxUBCWAGTHM4NhTOwFBYxxj5kIDWBCgIWrefxe+WwMispkjDUzBEO0ikkVLICUishsA9WJf+FN+CGPJes7yECFAQEsLFwdoQeCQ7ExnRNkDKBACHaFO3XoUWwZT3QcSeQu7CX/UqndWSQOUEKAiVM+IInQn88f6E/jBEHwD76YwiRLWXQcqpQOwe5C5cGqK6WAoJ2EqAgmArTgYLLYEhOSloWPoUgCtCW6Mehf2IaOx8XL9gOQSs3x3wIQES2AMBCgK3BgnES2AIDDRs1w4wrbcxnhvvNI7zAQEpV8PA/ZApL6HP7E0+yIgpkIDvCVAQfN8iJuhLAuOyLoIQ9wNoymulfdmhv5LaBshXEJX9kVe41deZMjkS8BkBCoLPGsJ0AkTgoZb1kJl6BYQYASASoMz1SNW6hllEbsC61O94OkGPlrNKewlQEOzlyWg6EhjT5kBEIkMBdAVQRUcEvqpZYjEMMQK/pr1CMfBVZ5hMwAhQEALWMKbrYwIFrQ4BUmfwtINnPYpCmjeiT2E+f4DoWQ+4cIgIUBBC1EyW4gMC+c3TYdS9DIZxG4BmPsgo/ClIaUKI8TAj+eg7eyXA0wnhbzordIMABcENylxDPwJP52SguOQRQFwEoI5+AFypuByQixArvw7XL/rMlRW5CAloRICCoFGzWarLBKxrpcdmH4KIvA8QXVxePdzLSWyAkD0QKf8APRcVhbtYVkcC3hCgIHjDnavqRmBM9vkwcBME2vDEg0Lz/xCDx5EeeRDXzNmmEIlTSYAEKiFAQeAWIQG3CFifKBRk9YAQ4wCkurVsaNaRcjqKii7AoOU7QlMTCyEBHxOgIPi4OUwtpASsa6VNozeEtO53qBbSKu0saxakuBfr537Aa5jtxMpYJLB3AhQE7hAS8IrAmOyjEJGPAeJ4gNdK/6sNEpCrYYph6DvP+sSFDwmQgMsEKAguA+dyJLATgYpjkbVPhBF5FBDNSafikGIUkMOA2Fhew8wdQQLeEaAgeMeeK5PA/whMaFkTZkoepLgWEPtriqYEEu/AKL8HvT9doikDlk0CviFAQfBNK5gICQAY1q46qsceA9AdEIY2TCQ2Q8bOQd8F87SpmYWSgM8JUBB83iCmpyGBSd0i2LjqBMC4BRBnAQjzP6drYJoPIDPlOR5b1HCvs2RfEwjzHzy+Bs/kSKBSAkNgoH7WFTDEHQAOqnR8sAZsAeQ7iJbmIW/JhmClzmxJQA8CFAQ9+swqg0xgbJu6MIz/AuKeUNwWab3PwBQD0Xfe57xUKcgbk7mHnQAFIewdZn3hITD6hCORYt4MIboH7kVLAhISS2GaI5EafQk9F5WHpzGshATCSYCCEM6+sqowEyho1QxIfRcCzWG9ndH3jyyDlEMws3AEJiPm+3SZIAmQQAWBAPzhwk6RAAnsQiC/bQ2koCukGArh22ORJQCehJTjkDv/S3aRBEggWAQoCMHqF7MlgZ0JPJKdiUz5EExxKQRq+QSPCSkXAvJG5BbO9klOTIMESCBBAhSEBIFxOAn4joB1LPK3n/eHKUZBoLPH+a2BjPZAivkJr2H2uBNcngQUCVAQFAFyOgn4hkA3RHBqdidIeRMgstzNS26s+DpBGI+g99z17q7N1UiABJwgQEFwgipjkoDXBAqyegFitPOXQEkTwPvYWn4xbl60xeuyuT4JkIB9BCgI9rFkJBLwF4ExbQ5EJNIHEv0hkGJ/cnIODDEEa7fMwtAVZfbHZ0QSIAEvCVAQvKTPtUnADQJjWx+BSMpYSGQDSFdeUmIVhHwY6+aPx1Dr5kU+JEACYSRAQQhjV1kTCfybwJCcDNQrOhkR4/8AUScpQNbLjiDvR3nqaOTNsn5zIJOKw0kkQAKBIEBBCESbmCQJ2ETAOhaZIQcCojeAfeOMGoOUUxCV96Nf4aI453AYCZBAwAlQEALeQKZPAkkReLJddZSYL0LAui0ydfcxrB8gil8RNbsir3B+UutwEgmQQGAJUBAC2zomTgKKBKzXNBe0PgbCaPPHsUixHyQyAFjHFK03H85FzJyLvMKtiitxOgmQQAAJUBAC2DSmTAIkQAIkQAJOE6AgOE2Y8UmABEiABEgggAQoCAFsGlMmARIgARIgAacJUBCcJsz4JEACJEACJBBAAhSEADaNKZMACZAACZCA0wQoCE4TZnwSIAESIAESCCABCkIAm8aUSYAESIAESMBpAhQEpwkzPgmQAAmQAAkEkAAFIYBNY8okQAIkQAIk4DQBCoLThBmfBEiABEiABAJIgIIQwKYxZRIgARIgARJwmgAFwWnCjE8CJEACJEACASRAQQhg05gyCZAACZAACThNgILgNGHGJwESIAESIIEAEqAgBLBpTJkESIAESIAEnCZAQXCaMOP/f7t1TAIAAIBAsH9rUzg8XAGRc5EAAQIECAQFHITgaCoTIECAAIG3gIPwFpZPgAABAgSCAg5CcDSVCRAgQIDAW8BBeAvLJ0CAAAECQQEHITiaygQIECBA4C3gILyF5RMgQIAAgaCAgxAcTWUCBAgQIPAWcBDewvIJECBAgEBQwEEIjqYyAQIECBB4CzgIb2H5BAgQIEAgKOAgBEdTmQABAgQIvAUchLewfAIECBAgEBRwEIKjqUyAAAECBN4CDsJbWD4BAgQIEAgKDEKZpq3BCaD0AAAAAElFTkSuQmCC;" parent="1" vertex="1">
          <mxGeometry x="441" y="284" width="20" height="20" as="geometry" />
        </mxCell>
        <mxCell id="o3aBx_VyT8-OBaSvo29I-601" value="" style="shape=image;imageAspect=0;aspect=fixed;verticalLabelPosition=bottom;verticalAlign=top;image=data:image/png,iVBORw0KGgoAAAANSUhEUgAAC7gAAAfQCAMAAABlzOIIAAAABGdBTUEAALGPC/xhBQAAAAFzUkdCAK7OHOkAAAJbUExURUdwTP///////wAAAAAAAAAAAAAAAAAAAAAAAAAAAAAAAAAAAAAAAAAAAAAAAAAAAP///wAAAP///wAAAP///////wAAAAAAAAAAAP///wAAAAAAAP///////wAAAP///wAAAAAAAAAAAP///wAAAAAAAAAAAAAAAP///wAAAAAAAP///wAAAAAAAAAAAP///////wAAAAAAAAAAAAAAAAAAAP///wAAAAAAAAAAAAAAAAAAAAAAAAAAAAAAAAAAAAAAAAAAAAAAAAAAAAAAAAAAAAAAAAAAAAAAAAAAAAAAAAAAAAAAAAAAAP////////////////////////////////////////////n88f///////////////////////wAAAP///yYld5MieZzNKu+nJPCrLv79/tCexP758Pz8/fK5UPvmwqbSQJqZwPbQisrkjfGwOpQkevf3+/v6/Nu10lRTlN7ut87mlqA8icrK3sXig5gsf+fzy/GxPoCAsM2YwLCvzSkoeZ/PMfCtMnFwpur10qLQN++qK7NkoWdmoOrV5fzt0bhup7baYktLjuPxxO/33MKDtPvrzaXSPej0z4WFs/zx27pyqaHQNnNzqPCvOPnfr6lOlEdGjNPpoPjx9/K0Renp8e+oJ82awvj78Pz5+6/XU/Xq8vLx9/T66NvtsKrUSPjYnZ3OLaRGj1FRkvvoxf315/336jEwfs7O4b/fdp02he7c6nR0qPbOhPr99OPxwsuTvvS/X7t0q7DXVeftvdWoyvzv1a7WT1pZmL6+193d6qyry3otfRkAAABgdFJOUwDOLK8HIquIEZlVNiWK/EQCA+0zijEsZru39PhEu+5D325zouUKjoAkzBbj0FsN5yl46UweYaGjGkfxUdvTyDuefcDXlcS4arQ/qJGEMPp3GkwQyQiHWI80+l+TsZ6u1/F64JgAACAASURBVHja7MEBAQAAAICQ/q/uCAoAAAAAAAAAAAAAAAAAAAAAAAAAAAAAAAAAAAAAAAAAAAAAAAAAAAAAAAAAAAAAAAAAAAAAAAAAAAAAAAAAAAAAAAAAAAAAAAAAAAAAAAAAAAAAAAAAAAAAAAAAAAAAAAAAAAAAAAAAAAAAAAAAAAAAAAAAAAAAAAAAAAAAAAAAAAAAAAAAAAAAAAAAAAAAAAAAAAAAAAAAAAAAAAAAAAAAAAAAAAAAAAAAAAAAAAAAAAAAAAAAAAAAAAAAAAAAAAAAAAAAAAAAAAAAAAAAAAAAAAAAAAAAAAAAAAAAAAAAAAAAAAAAAAAAAAAAAAAAAAAAAAAAAAAAAAAAAAAAAAAAAAAAAAAAAAAAAAAAAAAAAAAAAAAAAAAAAAAAAAAAAAAAAAAAAAAAAAAAAAAAAAAAAAAAAAAAAAAAAAAAAAAAAAAAAAAAAAAAAAAAAAAAAAAAAAAAAAAAAAAAAAAAAAAAAAAAAAAAAAAAAAAAAAAAAAAAAAAAAAAAAAAAAAAAAAAAAAAAAAAAAAAAAAAAAAAAAAAAAAAAAAAAAAAAAAAAAAAAAAAAAAAAAAAAAAAAAAAAAAAAAAAAAAAAAAAAAAAAAAAAAAAAAAAAAAAAAAAAAAAAAAAAAAAAAAAAAAAAAAAAAAAAAAAAAAAAAAAAAAAAAAAAAAAAAAAAAAAAAACA2YMDAQAAAAAg/9dGUFVVVVVVVVVVVVVVVVVVVVVVVVVVVVVVVVVVVVVVVVVVVVVVVVVVVVVVVVVVVVVVVVVVVVVVVVVVVVVVVVVVVVVVVVVVVVVVVVVVVVVVVVVVVVVVVVVVVVVVVVVVVVVVVVVVVVVVVVVVVVVVVVVVVVVVVVVVVVVVVVVVVVVVVVVVVVVVVVVVVVVVVVVVVVVVVVVVVVVVVVVVVVVVVVVVVVVVVVVVVVVVVVVVVVVVVVVVVVVVVVVVVVVVVVVVVVVVVVVVVVVVVVVVVVVVVVVVVVVVVVVVVVVVVVVVVVVVVVVVVVVVVVVVVVVVVVVVVVVVVVVVVVVVVVVVVVVVVVVVVVVVVVVVVVVVVVVVVVVVVVVVVVVVVVVVVVVVVVVVVVVVVVVVVVVVVVVVVVVVVVVVVVVVVVVVVVVVVVVVVVVVVVVVVVVVVVVVVVVVVVVVVVVVVVVVVVVVVVVVVVVVVVVVVVVVVVVVVVVVVVVVVVVVVVVVVVVVVVVVVVVVVVVVVVVVVVVVVVVVVVVVVVVVVVVVVVVVVVVVVVVVVVVVVVVVVVVVVVVVVVVVVVVVVVVVVVVVVVVVVVVVVVVVVVVVVVVVVVVVVVVVVVVVVVVVVVVVVVVVVVVVVVVVVVVVVVVVVVVVVVVVVVVVVVVVVVVVVVVVVVVVVVVVVVVVVVVVVVVVVVVhDw4EAAAAAID8XxtBVVVVVVVVVVVVVVVVVVVVVVVVVVVVVVVVVVVVVVVVVVVVVVVVVVVVVVVVVVVVVVVVVVVVVVVVVVVVVVVVVVVVVVVVVVVVVVVVVVVVVVVVVVVVVVVVVVVVVVVVVVVVVVVVVVVVVVVVVVVVVVVVVVVVVVVVVVVVVVVVVVVVVVVVVVVVVVVVVVVVVVVVVVVVVVVVVVVVVVVVVVVVVVVVVVVVVVVVVVVVVVVVVVVVVVVVVVVVVVVVVVVVVVVVVVVVVVVVVVVVVVVVVVVVVVVVVVVVVVVVVVVVVVVVVVVVVVVVVVVVVVVVVVVVVVVVVVVVVVVVVVVVVVVVVVVVVVVVVVVVVVVVVVVVVVVVVVVVVVVVVVVVVVVVVVVVVVVVVVVVVVVVVVVVVVVVVVVVVVVVVVVVVVVVVVVVVVVVVVVVVVVVVVVVVVVVVVVVVVVVVVVVVVVVVVVVVVVVVVVVVVVVVVVVVVVVVVVVVVVVVVVVVVVVVVVVVVVVVVVVVVVVVVVVVVVVVVVVVVVVVVVVVVVVVVVVVVVVVVVVVVVVVVVVVVVVVVVVVVVVVVVVVVVVVVVVVVVVVVVVVVVVVVVVVVVVVVVVVVVVVVVVVVVVVVVVVVVVVVVVVVVVVVVVVVVVVVVVVVVVVVVVVVVVVVVVVVVVVVVVVVVVVVVVVVVVVVVVVVVVVYUdOqgBAACBANTBaa/rn8YUbj4gAgAAAAAAAAAAAAAAAAAAAAAAAAAAAAAAAAAAAAAAAAAAAAAAAAAAAAAAAAAAAAAAAAAAAAAAAAAAAAAAAAAAAAAAAAAAAAAAAAAAAAAAAAAAAAAAAAAAAAAAAAAAAAAAAAAAAAAAAAAAAAAAAAAAAAAAAAAAAAAAAAAAAAAAAAAAAAAAAAAAAAAAAAAAAAAAAAAAAAAAAAAAAAAAAAAAAAAAAAAAAAAAAAAAAAAAAAAAAAAAAAAAAAAAAAAAAAAAAAAAAAAAAAAAAAAAAAAAAAAAAAAAAAAAAAAAAAAAAAAAAAAAAAAAAAAAAAAAAAAAAAAAAAAAAAAAAAAAAAAAAAAAAAAAAAAAAAAAAAAAAAAAAAAAAAAAAAAAAAAAAAAAAAAAAAAAAAAAAAAAAAAAAAAAAAAAAAAAAAAAAAAAAAAAAAAAAAAAAAAAAAAAAAAAAAAAAAAAAAAAAAAAAAAAAAAAAAAAAAAAAAAAAAAAAAAAAAAAAAAAAAAAAAAAAAAAAAAAAAAAAAAAAAAAAAAAAAAAAAAAAAAAAAAAAAAAAAAAAAAAAAAAAAAAAAAAAAAAAAAAAAAAAAAAAAAAAAAAAAAAAAAAAAAAAAAAAAAAAAAAAAAAAAAAAAAAAAAAAAAAAAAAAAAAAAAAAAAAAAAAAAAAAAAAAAAAAAAAANyJAgAAeG+qJSz79u9iVxHGcRhFQVYbCRolGNIIojYhEbWwiI2sARsRBBsva1iDgphKUSGFREQrIYVgUHBdQbHQ1h9I8A8zab27Gq7nfWe+m+epDqcYDsMUH17mAADA9N2+Wil3AACYv9uVOwAAJHS7cgcAgIRuV+4AAJDQ7codAAASul25AwBAQrcrdwAASOh25Q4AAAndrtwBACCh25U7AAAkdLtyBwCAhG5X7gAAMI9XD+321eoV2wMAAFN44F+63cwdAAASul25AwBAQrcrdwAASOh25Q4AAKMd8F/qVxf9oQoAAFM5YN7+04W3Lpq5AwDA7N1+QbkDAEBAtyt3AABI6HblDgAACd2u3AEAIKHblTsAACR0u3IHAICEblfuAACQ0O3KHQAAErpduQMAQEK3K3cAAEjoduUOAAAJ3a7cAQAgoduVOwAAJHS7cgcAgIRuV+4AAJDQ7codAAASul25AwBAQrcrdwAASOh25Q4AAAndrtwBACCh25U7AAAkdLtyBwCAhG5X7gAAkNDtyh0AABK6XbkDAEBCtyt3AABI6HblDgAACd2u3AEAIKHblTsAACR0u3IHAICEblfuAACQ0O3KHQAAErpduQMAQEK3K3cAAEjoduUOAAAJ3a7cAQAgoduVOwAAJHS7cgcAgIRuV+4AAJDQ7codAAASul25AwBAQrcrdwAASOh25Q4AAAndrtwBACCh25U7AAAkdLtyBwCAhG5X7gAAkNDtyh0AABK6XbkDAEBCtyt3AABI6HblDgAACd2u3AEAIKHblTsAACR0u3IHAICEblfuAACQ0O3KHQAAErpduQMAQEK3K3cAAEjoduUOAAAJ3a7cAQAgoduVOwAAJHS7cgcAgIRuV+4AAJDQ7codAAASul25AwBAQrcrdwAASOh25Q4AwGxee3iYl19ai+Nf3t7MH98eVuAf/7yZz3fXPu6JR8Z5zEkFALjN3bEaZveWXt2Sdw4dnb+7OhLudFIBAIT7ESDcAQAQ7sJduAMAINyFu3AHAEC4C3cAAIS7cBfuAAAId+Eu3AEAEO7CHQAA4S7chTsAAMJduAMAINyFu3AHAEC4C3fhDgDA/wn3394r9uOva0l6dcOlftgk3K9f3sTe9f1/fvXuZ5eLvSncAQA4LNw/eKPW99+tdfvXm6710Sbh/v7ORi5d+2at3Pd2an0o3AEAGBTuS3Z7a7jv7KyX+2pPuAMAcCTDfdFubw73/nIX7gAAjAn3Zbu9O9zby124AwAwJNwX7vb2cO8ud+EOAMCIcF+62/vDvbnchTsAAAPCffFuHxDuveUu3AEA6A/35bt9RLi3lrtwBwCgPdwLun1IuHeWu3AHAKA73Cu6fUy4N5a7cAcAoDncS7p9ULj3lbtwBwCgN9xrun1UuLeVu3AHAKA13Iu6fVi4d5W7cAcAoDPcq7p9XLg3lbtwBwCgMdzLun1guPeUu3AHAKAv3Ou6fWS4t5S7cAcAoC3cC7t9aLh3lLtwBwCgK9wru31suDeUu3AHAKAp3Eu7fXC415e7cAcAoCfca7t9dLiXl7twBwCgJdyLu314uFeXu3AHAKAj3Ku7fXy4F5e7cAcAoCHcy7t9gnCvLXfhDgBAfbjXd/sM4V5a7sIdAIDycG/o9inCvbLchTsAANXh3tHtc4R7YbkLdwAAisO9pdsnCfe6chfuAADUhntPt88S7mXlLtwBACgN96Zunybcq8pduAMAUBnuXd0+T7gXlbtwBwCgMNzbun2icK8pd+EOAEBduPd1+0zhXlLuwh0AgLJwb+z2qcK9otyFOwAAVeHe2e1zhXtBuQt3AACKwv3Pzm6fLNwPKvffhTsAABOGe+u8fbpwv7T0zF24AwBQEu7N3T5buC9+W0a4AwBQEe7d3T5fuC9c7sIdAICCcP+ru9snDPeda/sL3nMX7gAAFIT7J1fWmvXql7dbuH+xtgf7nwp3AABmCvf+cp8v3BftduEOAEBJuLeX+3Thvmy3C3cAAGrCvbvcZwv3hbtduAMAUBTuzeU+Wbgv3e3CHQCAqnDvLfe5wn3xbhfuAACUhXtruU8V7st3u3AHAKAu3DvLfaZwL+h24Q4AQGG4N5b7ROFe0e3CHRjp0cfvPrZ9Zmtr6/gNp2+6+XD8xotnt4/dd/ae+20RQHy495X7POFe0u3CHWh219l7zzx1+vzTzz936uTr/+nEyVNPPvTi+XMvbG0/+IzNA/ibvbvpaSS5AzAeCQPGgFGHxEZYQsayx7KFkTBGDIM9gIGB4WW/QZRCM9JEOUY5REpyyjlSVsphL6Pdw47mli+QrLSHfLBkNYqS7Pil3a5/vT7PcaWVewtq+0e5utpLuBuTuzNwl3E7cCciQyW910fN42G9qDJX6Q+PH8qHpX1Gk4jIK7ibkrsrcBdyO3AnInmyr51e3A0qSl/d4UrtcJF9NEREvsDdkNwdgbuU24E7EUmWW909b20rmSqDpYOTNoNMROQB3M3I3Q24i7kduKdvv7d50invHhw0l82GS0ItyfT7cOjPf+Bi5/5lRYlXXbjwXu+5548bp52bg4Nlj9tgThMBd+tydwLucm4H7tNvqIsbRw/H13UD/hhTiR9CqL9bmX4f1j1Be3mpbnKa9M+PFj38HWg8ntZWXg26KoSazGki4G5d7i7AXdDtwH1S7Y3a8V7F+t0QuAN3z+CeL6xUbUyV+nF5zZ8ff++0udQvqoAC7kTA3b7cHYC7pNuB+zhSrdYW6o7cDYE7cPcJ7qWLlk2NVq9Ocs7/5JPH3bu6Ci7gTgTc7cvdPtxF3Q7cR3FqozncduhuCNyBuzdw31y+tD9jthfKLh/43u4cd1WQAXeiyOH+zz85IHfrcM/q9vfAPVO98u22Y3dD4A7c/YD76rOqM7OmVXPT7ou1lyrYgDtR3HD/+OEvDsjdNtyzuv3Pv/4WuM/c2fLAwbshcAfuHsD9ee3SrXlT3DrKu7bWXmupkAPuRFHD/eOHpycH5G4Z7tnd/vT0LXCfqcf1qpt3Q+AO3F2He+701sWnLCtLp+7sd08OF4pKAXciChTuP7jdBbnbhfs8bk8nd+D+qVKz7+zdELgDd7fh3lt3d89296HnxBjlD+oq+IA7UcRw/+R2B+RuFe7zuT2V3IH7D37qXLt8NwTuwN1luK/eub2QXFyy/16gtattpYA7EYUL9/+43b7cbcJ9XrenkTtw/0npfsftuyFwB+7Owj0pXHsAysFNwyrbj4tKAXciChju/3W7dblbhPv8bk8h99jhnhSGzt8NgTtwdxTuuZuqJ6TsHuzbGqTF80jYDtyJ4oX7/7rdttztwV2H26fLPW645zqXHtwNgTtwdxLuuU7fI1TuNK2cMdNoVpQC7kQUNNz/3+2W5W4N7nrcPlXuMcN9/8CP16AAd+DuINwTr9huie5JuasUcCeisOH+/Ycfi/UfFuVuC+5Z3f7Vux//e98B99Fo2vXllgrcgbt7cC9cegjLnZvE6CCVWkoBdyIKHO4fP3O71TV3S3DXtd4+dc09Wrh3qt7cDYE7cHcN7qWhp7QcnBj88T4UFXAnotDhPsrtNuVuB+463T5Z7pHCffPao7shcAfubsE9f+WxSG/XDI3S6qVSwJ2IQof7aLdblLsVuOt1+0S5Rwn3/IpX7gDuwN0luPu+b7u4buJsyOSgqIA7EQUP93Futyd3G3DX7fZJco8R7qeevcIQuAN3h+AewL7t/pn4KD3fUgq4E1HwcP9+rNutPaFqAe76nktN8YRqfHDPr/h2NwTuwN0ZuCcHQZxuuCJ8qvtZXQF3Igof7h8nuN3Wmrt5uOtfb5+05h4d3E/8+5ofuAN3V+AezDEp/deSw3RTUcCdiMKH+2S3W5K7cbjLuH2s3CODe7Ls4cZT4A7c3YB7IMvtn3a6L4udDJk7Vwq4E1H4cJ/mdjtyNw13KbePk3tccO9d+3g3BO7A3Qm4+zl9xjZsywzT/pYC7kQUAdynu92K3A3DXc7tY+QeFdzP/DwNA7gDdxfgvhHaS0C7GxLD1G4p4E5EEcB9xHOpX3/pwBOqZuGu77nUd999k+oJ1ZjgfuPp+WzAHbjbh3vSDO94w2JN/zitVRVwJ6II4D5ivf3rv/31S/tr7kbhrm+9/d1Xb95/k2bNPR64Jyu+3g2BO3C3Dvd2mPs/7nK63V5XwJ2IIoD7KLf/+x87IHeTcNfq9jfp5B4N3Bu3CrgTcM/WaqgeHea1jlOpq4A7EUUA9zFud0HuBuGu2e3p5B4L3PMvFXAn4J6t03CPNxz0cDtwJ6IZ4T7W7Q7I3Rzctbs9ldwjgXvvUgF3Au7ZqhUDxmZd3/xarCvgTkQRwH2C2+3L3RjcBdyeRu5xwL3n9QNjwB2424R7chW2NnfONA1Uu6+AOxFFAPeJbrcud1NwF3F7CrlHAXe/3Q7cgbtNuHv8dEjKtvXIfb+lgDsRRQD3KW63LXdDcBdy+3S5xwB3z90O3IG7Rbj7/HRI2l5s6vhi4lYBd+Y0UQRwn+p2y3I3A3cxt0+VewRw9/4LbOAO3K3BPR/FMvKOhjm2jNuBO1EMcE/hdrtyNwJ3QbdPk3v4cPf/C2zgDtxtwT0fyfaP7tyTrADbgTtRDHBP5XarcjcBd1G3T5F78HDPDRVwJ+CeqfZeLOSsz3kqZKkC24E7UQRwT+l2m3I3AHdht0+We+hwT5YUcCfgjtuntNeYZ6QaA9QO3IkigHtqt1uUuzzcxd0+Ue6hw/1BAXcC7pna34sJnUvJHEO1AtqBO1EEcJ/B7fbkLg53A26fJPfA4d5RwJ2Ae7arG8alzofsQ8UGd+BOFAPcZ3K7NblLw92I2yfIPWy4r1aAOwH3TIWwy2y2ClmHKt/F7MCdKHy4z+h2W3IXhrsht4+Xe9Bwb4fxBnLgDtwtwP0qOnZur2UcqmPIDtyJwof7zG63JHdZuBtz+1i5hwz3ZEsBdwLumbqI0J2tXKahOkTswJ0ofLhncLsduYvC3aDbx8k9ZLg3FXAn4J6p0yjh+SzLUDWqiB24EwUP90xutyJ3SbgbdfsYuQcM99dF4E7APVOl7Tjlech3E8CdiEbAPaPbbchdEO6G3T5a7uHCPV9XwJ2Ae6bJE+sicrc981j1tgE7cCcKHe6/y+p2C3KXg7txt4+U+6+ChXs4Z2IAd+BuFu6hPB2SobuZB4snU4E7Ufhw/3tmt5uXuxjcLbh9pNxDhXtHAXcC7plaj9ieJzOOVamI14E7UfBwn8PtxuUuBXcrbp8q93Dg3tsB7gTcM2XhlJRKfdC63tq6fbW1dd0a1C3uPqk2ZhusO7gO3Inig/ssbjctdyG4W3L7NLmHA/dbBdwJuGfpubnXCRUvF+5rhc3eZ1jOtUsnR82VLQsPqsw2vCy4A3eiCOE+m9sNy10G7tbcPkXuwcA9qFeQA3fgbhDuhja4F1/eH21OX93Onx1dtYziuPg4y2ixwx24E8UH91ndblbuInC36PbJcg8F7uGcKAPcgbthuNcM2Hh48XqWHSmNs9pWxdh8G85wZT1Df1PUh0srz5adb4M5TRQD3Gd3u1G5S8Ddqtsnyj0UuK8o4E7APUub0kJ+cdfJZ7iuxsl61dCEm+Ew92UDl3P57CTPXCEiZ+Cexe0m5S4Ad8tunyT3QOB+poA7AfdMlzSQXWu/LeTm+KNi2YjdL5PUf02IPwO/c//IPCEil+Ceze0G5a4f7tbdPkHugcD9JXAn4J4p0deA9nfb817f62MDe2Zu0l7NkfQOmVqDWUJETsE9q9vNyV073B1w+3i5hwH3jgLuBNyztCbI4uFpouMS2zXxZffufsprGcpuKoLtROQa3LO73ZjcdcPdCbePlXsQcN+vA3cC7pmSk+irVW0XmXQGwlPuIuWfOaIXcfycGUJEjsF9HrebkrtmuDvi9nFyDwLuD0K7c/cW7g/KhcKG8fb5/wdwNwP3sthq+5neCz3ck91Zvm/zfzWfdsmcMD+IyDW4z+d2Q3LXC/fP3f5bO24fI/cQ4N4WeOvii6XyZo5ZTIHDvS30rGX/UPulJkeiX6zVUl1EX+4CFtpMDyKy2i/1u92M3LXC3SG3j5Z7CHC/0q7289cJM5gigLvMMaqVpsgfvY0Lwf349TSXXJI7fKfG5CAiu/38CwG3G5G7Trg75faRcv+F/79qi5rv5pdHPCBGccC9JPI2oeGi1PWuCT4bWk7x+U2xnTpskyEi227/qYjbTchdI9wdc/tIuf/M+9+1c6130EGBxXaKBe6vJJbba5Iz6EjsHPVqisuW2mdfXWNqEFGgbjcgd31wd87tQcp9Teei4c4ubKdo4H4iYNCB8JFIvWspuZ9O/2yhTx5wmgwRhet2eblrg7uDbg9R7joX3Jd4PozigXsicMbinfg+s+ShKMPnrakfLfS+iFaeiUFEAbtdXO664O6k28OTe0/fXXy7zNyliOCu/y2gZh6x3BDaLjN1v8qxzAk8LBcQkXtu/+Pbt97IXRPcHXX7m9+8fwpK7vqOlKny2iOKCe6J9rMNXxh6xHLtUkTQ99M+V+Q8yu4i04KInHP70+/f+iN3PXB31e1v3vzhKSS5t7UdKXPNuhdFBXftC+7dTVPDmJd4qla9mLLNZ1HkHMgzZgURued23XAXlbsWuLvr9pFw91fu2t5kuMDrligquGtfcDd5NEoismtlyl65gsRnXjApiMhBt2uHu6TcdcDdYbePhruvcm/s4HYC7lnS/aTlwOhXVonEq6OuJ3/mM4mP5BgrInLR7frhLih3DXB32e1j4O6p3Muabp+3uJ3ignuieZ943/SRhusCjJ683Vzg7U9FHqwhIifdLgB3ObnPD/d/sXc3vWllZxzAXRkMfsNClgKCCmHL2MIFJMAIg42NsZNAYtJmqkpVV8edqumm6mpUzaKrqt1k0UU1n6AvaruqZtlM1a/WOJNkYrgX7stz7nmec///9cy94Z77+Pw4nBfWbneDu0i5U+GjirNSkZjB/Yx4nsxJ5M/yMOp5KwX6G66jJBAEYel2HXDXJvfQcOftdle4S5R7m6b3PMD5J0jc4E47fHxgYmuUIbmjrxfdTsPxSwWsiEcQhKfbtcBdl9zDwp25293hLlDuY5oz2qeoXSRmcH9ECtDipomHmV0ll/SifXE0nDN7g4pAEISn2/XAXZPcQ8Kdu9sXwF2c3JM0hy/toXaRuMGddm3nhqGn+Zha0ocL7rZHD3fMcEcQhKnbNcFdj9zDwZ292xfBXZrcafaCXEXtInGDe7pI6c+mqcd5TH0k0kFk33XuM0JBIAjC1O264K5F7qHgzt/tC+EuS+4Jkl67hWmmSOzg3qT059jc85xSLxhdMOcnTw73fRQEgiBM3a4N7jrkHgbuAty+GO6i5E6zL0Y99rWb1pfG8rtX0lFF/47ZiaX/huNA7+jzIB930Q6n2TLlhjJpgy8v9aFIt+63GmCmDIIgsXG7PrhrkHsIuEtw+xK4S5L7mvDRQqM5nuRS3fygpWGLu09Si6gVva+iLL3N+fl5Nb86fH7bzG20L5N0e4HuK0ZZNO98In5h6sesR/bG9qlb6ABwQBCEk9v/EQ3c6eUeHO4i3D4D93/KlXuDYppuMRm/ak23j56UosEjO7g7pn+dX29ubDZCP1kxcKfcSNHw2u4K8UC46x+EBnkLjSEHBEEYuf1XryOCO7ncA8Ndhttn4P4HuXLvUPSdqZiVanZyW40QjzLg/nHOx+pRL5TepcC9Qjh4PMoafqUfka6zdf8eskXeQtugA4IgjNz+eWRwp5Z7ULgLcfsM3P/0b7Fyp1gr1mrEqVCzvW4/WjzKgvt9MrXUJDBFpcC9TneXgvmfrK5IH1ve7TaX5C3UgR0QBGHk9gjhTiz3gHCX4vZZuP9cqtxPMzqH1yzM9KYVOR7lwf0+pe5Gwmq4P6G7y1PzL3aC9DekotuShzZ5C50BDwiCMHJ7lHCnlXswuItx+xzcpcqdAkkHibhUaaL+2AQeZcL9/qeY7S174X6aIbvJRZbByz3NUD63Hf0/U7zPBHpAEISR2yOFO6ncvwoC9/+Kcfs83IXKnWKYLS4D7o1mywwexcL9fvJ221a4P6WbWLTL4v0+pHxut9qf2ofsgg8IgjBye7Rwp5T7myBwl+N2VlvBMQAAIABJREFUB7iLlDvFUrFWJRY1mr4qmcKjZLgrVfVLdyFwpztJ6IbJF1PK76WPXW7SJG+hTfgBQRBGbo8Y7pRyp4A7X7c7wV2i3I8IOs6jOJRootk3h0fZcFfqwt9sBhlwT5PNLCmlmbzkHcLnlnFZsH5F3kKYKoMgCCe3Rw13TXIPCHfGbneEu0C5E8yUKZ7GoETrZZN4lA53pYZ+bCoD7nSTtfe5vOVZyvWpPX1DBQ/ThiAQBGHk9sjhrkfuweDO2e3OcBcn91OCfvOZ/RU6vTCLR/lwV626bXBfpbpDmc/a7h7hg3PZXv2WvIXqIASCIIzcHj3ctcg9ENxZu90F7tLkTvHb+KXtBVrZzijAPXRWPQ+6i4B7pUB1B077kI+0T3LfJm+hKxgCQRBGbjcAdx1yDwJ33m53g7swuRNw79r2At0pG8ejFXBXZa/bf4iAO9l+5OUso5ed8HikovMPCSnyFuoCEQiCMHK7CbhrkHsAuDN3uyvcRck90cd417JH9JwBHu2AuyrmLII72XuRY/W+022Vo6aON6Cf4/4YikAQhJHbjcCdXu7+4c7d7e5wlyT3HYJuM2l1fT6qKcCdLjeeRpdFwH1AdH1mp5cRznJ3/kZCv6tMIQFHIAjCx+1m4E4ud99wZ+/2BXAXJPdtDHctztOiAtxJpzV4QZYEuJ9SXX+f2StP90116Hh9+n3csZE7giCc3G4I7tRy9wt3/m5fBHc5ch/oGlazI5UuEzzaA3c19nBalwS4U20GWUgze+npdrkcOH8Xpm+iJiSBIAgft5uCO7HcfcJdgNsXwl2K3JME05bT9pZnsqoAd/KMlo+5S4D7kGryELe3PnFA9eScj2Cq0zdRHpRAEISP243BnVbu/uAuwe2L4S5E7jmCAVR7y3NSUoC7hqwtnecuAe5UvN1i997TbbTueKRpj76JMifABIIgbNxuDu6kcvcFdxFuXwJ3GXInmAny1NryrGcU4K4l6xbAPUl09RHDH5rIXnzHPw67GtoIc2UQBOHjdoNwp5T71790cftffiPU7cvgLkLu5+G7TGv3lDnihEe74K6O5MOdasJHh+GrP6Z6dI7TgE40tNEAnEAQhI3bTcKdUu5/dpH7f6S6fSncBcj9OHyPaevpS9muAtz15Uw83Il2cS80GL78G2TLGRxLKxP9C4UgCBKd243CXb/c5bp9Odz5y/0sfIe5bWd1JlYV4K4x/S3pcL+gufiQ49tf6RM9upLj5csaGqkKUSAIwsXtZuGuW+6C3e4B7uzlTrCL+46V1VnJK8Bd7wdKyIZ7gmh//x7L95/s56ZTp6uPdLRSG6ZAEISJ2w3DXa/c593+dzFu9wJ37nIPP2rYt/LMwsZjBbibXKDKH+6bREPSPOuHbOMXx+/1Qx2tVK5AFQiC8HC7abgHl/ubpXKfd/vd/8S43RPcecudYNTQys0gGxcKcNeenmi471k8U+btXwaqjVD3NT67maTACgRBeLjdONwDy/2ruyVyd3D73Zdi3O4N7qzlfhm+t7RxG7bKSAHu+rNoiJQ/3Lv6v72YzDOiZ+e4rcyOlmYqTgELBEFYuN083IPK/Xd3i+Xu5HYvcGfido9w5yz3ZvjecmJfdSbGCnCPItuS4V6jwSbX+R1U+8o8cbr4sZ52KqdBCwRBOLidAdwDyt0J7p/I3dHtHuDOxe1e4c5Y7uF3TsnYN7GUpduthHtmKhfuWZq1qWxnmjWI1t6eO179QE9DjWELBEE4uJ0D3IPJ3RHuH+Xu7PblcGfjds9w5yv38McvXdhXnl0FuEeUi6xYuG/RXJrvscNE08Uyjk38TFNLYZo7giAc3M4C7oHk7gz393J3cftSuPNxu3e4c5V7JfxBKIfWlWdKAe6RpS4W7mc0l+Z77PCV0vgJ93Q1VRO+QBDEvNt5wD2I3F3g/k7ubm5fBndGbvcBd6Zy39RjGtHZU4B7hOtTE1LhTuPaMt9CuCR6eI77Qe5qa6schIEgiHG3M4F7ALm7wf2t3F3dvgTunNzuB+485d4J30+eWlaeZxnAPcrsSYU7zWSPId9KSPQ1Sjpb0tZYt1kgA0EQ0vx03u1//VwE3H/x63m5f/P7QHC/+/pVMLizcrsvuLOU+2HoXrJkWXlOCwpwjzKthlC4D0iu3GFcC090Tjt/pq+1VhtgBoIgRsfb+cDd95i7O9wX5EsxbvcHd45yD981j+wqz+MDBbhHmyuhcKf5hpdkXAxHNA+v63jxusbmut4FNBAEMep2PnD3K3dquDNzu0+4M5R7eKY+t6o8EyMFuEecUkUk3Gl2Im9xroYezcNz/m6f1jklLZNKwBoIghh0OyO4+5Q7Mdy5ud0v3NnJPY2lYA8zVIB75MmJhPsmyYVZ7ztOZOtr56vr/Y486EEbCIKYczsnuPuTOy3c2bndN9y5yX0SvoO8tKk+cwpwjz7XIuFOM9XjiHU9XJN8xr6ZYstjvgyCIOETYF0qO7j7WqH6AO4/cKX6C09w5+d2/3BnJven4btHm9aBTYuAu4n0JMK9SXLhNuuCIFpA6vw3Iq292kZn2F8GQRAj4+3M4O5nzP0B3H/yYze3/8wL3Bm6PQDceck9/KYyZYvqs3GeAdxN5IlEuNPMquK9mSrNlxO1ZextLac24Q4EQQy4nRncfcj9Adx/+Jmz3F+8/JEHuHN0exC4s5J7+K5zbFGBPuPNW3vh7ri1Cne450kW5vKuiDbN05s4X70XSdMdDHOPMPCOIEjEbucGd+9yfwj3FUe5v3i54gHuLN0eCO6c5F4N3S3e2FOgHQW4G8qVQLifk0zm4F0SJzRPr+5y+fOomq9fWz1s5job2tLe2dm53E0eYy8bBLEqQee3c4S753nuM3Bf+ex7827//ooHuPN0ezC4M5J7K3SXuG9NgZ70AXdTGQiEO8nJn9y/99LUhNvhuHvKumQOauNhKtfbAuERJNbj7Qzh7nXMfRbu82PuL16ueIA7U7cHhDsbuVe0iEZo8pq68kK5PKhW8+Gzbi/c1VQc3BNaScslVZJP6bZ1TqOvrE2mPE7VMUcHQWLr9odw/+NvOeSbN3Mf6F/z/9XfZuE+K/d3bp+B+xdzef1qzu2vv2CRYHDnIvet8P2TNVuuUY/+FWtrqU5v96QS5YcQC/eUg+qSy/Io0K3WkwEy34o0s0i4bzZOs+zD9ZC2W2V5CqPts2PwB0Fi6PaHcOeRV/7/l3dwfyj3b90+A/f5e70iub/2eIc7E7nvhO+Z0pZUaLJAONhWu6mbOcleLNzLQT5tsEHvbZpHTXP+0hbzsqCRddft8umCikFqh70KDIQgMXM7R7jfBYX7p3J/7/ZlcJcSH3DnIffwyzFLtpTomGwTi/W2ua3txcI9kGCNwp1kw5UM95nQNAu23beeSql4pDjuYOAdQWLldrvg/p3cP7g9jnBnIfej0B1S1ZIS3SDavWJ70+is1mBwr+WCZL95uFYjO0MnyGRvo3AnIW2Ze13skDTuhev10yUVl2TynQYshCCxcbtlcP8g949ujyXcOch9GLo3WrWjRBsHJIPt+6Z75rWoG7EyObomYU2Qf4NRuDf1ipZJtkga99z9BvsqRil0J+AQgsTE7bbB/Vu5f+f2eMKdgdzDb6SybkeNHhL0yq2O+XkPaya+fU2HBOPu/QC/VBiFO8kkD/bHl1VIwNpa0IbnKlYZ5DDdHUFi4Xbr4H4v90/cHlO4m5d7LXQ/dGRFjW5lwv8Qvs5hma4RuK+snK6Hf4CXwuB+Q8E4/t97/8/e/fzEdV1xAL/VjPlh8OAREhBI6UDAmAmDBAMdfoPH/DTgNK7jVmlVYYhDlUpeRFWkplKrWu2mrVQlrdJtK3WRXTdO0m68SNX236qd2jHwGGbeO2fePeee73eNGd6bd3w/c+fec1mWsuQueIHygbEM7mG1O4IYcHt4cH8q9xNutwp373KnLxDZCqJIM/SJtFURF+IJ7s71kBt+JzjJyyvcKxyI2xNfGsssWM2yP7OqV8y0gu4IIjmU81JDhvvpWIW7b7nTm7EFcf7SDvk2VIR8/+0N7i4/Rpx0ryiDe4aDcEPia6PKQtWLvo0qDh7Yo/se9qkiSNjz7YB7sHD3K3eGwx+D2GxFnS3OifGXP7g7N08D2LIyuLOIVv7nXp758LmLXmL2wGBGZnGoKoIE7XbAPVi4e5V7kT7+dAZQpdRWkNNyPr34hLvrJK28StDS3Cvcxzn4Jv9zbzsLUzub/+WFuox3OwRBwnU74B4u3H3KvYc++oRwcCpxi+50j/b5Ua6enjS5x3eMV7izdEPpEV8cPEen7l/4Gm0Fk3LPtWO9DIKE63bAPWC4e5T7alPbRRiZcJfkds9wdz2U1TKzuuDO0vlf/iZFnj7rdbZu7+RMyv2ggLbuCBKs248+/rHsfPmXyKW+/oPvnc23at6qO29F8sPjs7/x+D8PhefxI11yp3dimzY/4T4iatLUM9xJAruhC+4sWyqz4qujl0WoXXVeZcom3A9ye1jpjiCBuv3o/SPh+eIfkYt95S7l7t27ffb3vffPQ+F59CjhP/Qld/qusCX9dbpIugEDshaq+oY7xXnxe5p7hfsCB9zkl0eJBajlei9zy6jcDzYugUoIEqTbFYRZ7hrdTognudO/Bh/XX6gbpBtQknUx3uHuknchiX+KqFe49zOobSD0z7UNd88ZHbcq98EuhyAI3K5f7sbc7kvuY+RRp6q+UDtI178r7Gr8w70t8drv+P0gvcJ9gAFtC/Lro4tFp/U/386MWJV7btghCAK3a5e7Obd7kvsV8qCzrb5SSd/Rb0hbo+wf7snXVgzqgjvHfkoFW0RWU4I7bWOz7qxlHYIgcLtquRt0ux+5XyMPObe0V+oMxV8D4rr5CYB78rVHsffp+YR7nkNsI6F/I/UijXQMWh0wK/fNUYcgCNyuWO4m3e5F7uv0uSLtpdpKufo9cZcjAe47SW9n7K7WPuGe5QCbgr3d3Swy7W3kpcp25b5SdAiCwO1q5W7U7T7kTj8V8ZryUs1TVtYuyfuGWwLcXTXh/YyNF59wH+Xw2rL8CulJD+6W5X5zDm5CELhdq9zNut2D3NfI482e8loldbJflHc9IuCe9ESr2I3x1MNdQVMmHrhvNViOduW+NAM5IYi/fD/q9r8dHUHujeXtqNt/c2glH0Tl/lYzH1V68+Qp5cWaCWy6VATcJxPyK/aOAfVLZVbkV0gnC0uHGny1+X6zci9A7giC+XaVcjc83+5hzr2FPNoo72RWpGxNLQm8IBFwd5vJbmjss6zUb041M+Pe8P8THdN25Y7VMggCtyuUu3G3py33TGozaUJDOYFqSeJh5TLgnnDHb4cmuDsOq03IL5H9dOHuOgtm5T7RBj8hCNyuTe7m3Z6y3LfTWrsqNSuhfWaRAfeSBbhz9HFXsDmVp6tMjGIprpiV+wa6QiKIh1yPuv3LI2v54tPITfhRIzfv6psRt9+35vbDw38fR27CG816XPtS6hYhNTOEK8+JbOAmA+47FuDOsY9SQTvI1bTh7rJrZuXeAkIhSPq5+u2Iuj79uzW4fxy5B7ffbOju3flu5F9+9tiY2x/9KnIPXr/erMe1Sh5pZlWXK2WlzKbIK5IB924LcOfYRlmQXyM7LCKN9wF/OGdV7mMwFIJA7prcDrmn7HbzcB8P7splwL3TAtwHGZym4OTULhaQxqyWrhGrcr8MQyEI5K7J7ZB7um5nWCpT0lyrc5SVMpMiLwlwTw3uHO1PpuUXybwPuLti1Sjc+zthKASB3DW53brcU3Y7w+ZU1RNEs4QLF9qBG3BPDe4ck8KD8oukzOLR2B/w82NGl8uMZx2CIOnL/bWo3H9m2O2vXo1z9+58I/IbPnwMtzcnGdtwp7SxvxLSJQHuCVJgUNqC/CK5zMLRBP9PdNy0KfddEApBMOeuaL7d9px76m5nODlVM9zzlFXKi4C7cbgvMyBtwArck5TL6K7NSfd5EApBIHdVbrcr9/Td7iqm17iTGt0VZV4T4J4a3DcYjJaTXyUlFoyWk1XoskW4FyYdgiCQuya3W5W7B7e7NdNdZW4E2A4EcE8N7n0cSJN/4s6Wz1nk7FS/Qbm3Q1AIArnrcrtNuftwu1snjzGaD2DaJFz3BuBuHe4ZDqPNBf3x9mVWk778TMWg3HcgKASB3HW53aLcvbjd7ZKHmC29JZpfIFx3BXC3DncWUfaIL5MrB56vs9teZ8iJPASFIJC7Lrfbk7sftzMMysN6K7Sbct1STzgE3FOD+zoH0VbFl8kaC0UvUf6ErnFrctf8RSaCQO423W5N7p7c7vbII8yU3gIdCnFTLuCeGtxb/W3alP9EMe/lXpywBfdp7E9FkADk/r7wnOf2q2cDuctyO8P61Rt667MSIrgA99TgzrL4W35XJpY9uAfkU4W6Nk3JfcwhCKJd7r+7H0LeqHmrvhPE9d3/gy630yadv0qr3vIktZqTun0McE8N7kMcQJO/R4RlmQpHv/qedkMdZgbb4CcE0S53wD1cuPtzu5s13LlslHS6S4fQqwLcU4M7S4Nz+d9YFViWfvCU7OU+M3LHlDuCqJc74B4s3D263S2Sx5cWtbXZEWQ3EMA9NbjPc/jsivg6GeS4zALXX9MzdtMG3Bewyh1BtMsdcA8V7j7d7nbI40tVbWn2kq57v81DGlgoDLinhuVuDp/J/8Yqx3GZE4x/0P7YeM6A3IegJwRRLnfAPVC4e3W72xc1Iqeb3SDHcsA9NbjPcLylGell0sby5DJ/vi/OVgqhw72AXu4IolzuAcL91buAu2e3M9hjRG1hbgLugDslWY63dFx6meyzPLlNWFE3U9rdWAhZ7ovAE4Lolnt4cL93/Mpd83D37HY3KqJdhJ8sAe6AOykcbJyWXiZllid3vTl/XL5zcWqtOhLmyplN2AlBdMs9OLjfu33//gm524S7b7dz2GNUaVVmc4A74O7/o19WeJ1ssTy5zW2ek5/rLpe2plpb2/mz1tKy3de3Ukh/cj83BzshiGq5hwb3Z24/KXeTcPfvdgZ7XFJalJ0HgDvgTsoKx3sqvX5Yzoc96NU/imeLPeWh3e2b6X3gn3IIgmiWe2Bw/7/bT8jdItwFuN1tkEeXLqU1OQ+4A+60bHO8pzvC66TC8uSWwxnMs6tDlXRaUi5DTgiiWu5hwf2F21/K3SDcJbjdZcijy6zSkuwF3AF3Wto53tOS8Dqpsjy5HYEN6MVSSwprZ3ocgiCK5R4U3F+6/Wu524O7CLe7dfLgsqe0Im8A7oA7LVMW1kMUWJ7cS+EN6dlyptmrZrBWBkFUyz0kuJ90+wu5m4O7DLcz2KOitCDbAXfAnZaS4H4rXMkPsDy5o0EO6sXh5ramGncIgiiW+ym4P/xAQh5Gruenn0R/6rMI3E+7/bncT8P9yU/O5smfI6/2r+hPeciTZHAX4nYGe2worccM4A6407LK8Z5uC7cpy4O7EOqonp8tNLPg0VcGQTTL/RTcf3koIJ9E3f7bc37sw7Nwf/v47L97JvfTcP/Fg0h+/fvI6/3x3Qf+824iuEtxO4M9tJ7ANA64A+60zHG8pzdll8kOtlnWeQR7p5tX8CWHIIheuYuDe4Nuj8D97Hz7c7nXhbtUuSeCuxi3cxzbrvRb8CXAHXAnTrdyLCPJyW7kztPGPRPyuN5WaVrBr0FNCKJY7tLg3qjbz8L9PLc/k3t9uAuVexK4y3G7y9P3V3XrLMZpwB1wl/Dhb190mayzPLi7YQ/s5ZEmFXwBaEIQxXIXBveG3X4G7ue7/ancr9eHu0y5J4C7ILdzNI1QerZKDnAH3InpC385RDWtB1d15pq18O6SQxBErdxlwb1xt5+G+2u3a7Vj+WYDcBcp9/hwF+V2txl6W4waGT0A3AF3YtY43tRW0XUyyPLglkMf2EdbmlPxl2EmBNErd1Fwj+H203BvNDXgLlHuseEuy+0MX4XrbCszB7gD7tSwNHLfNlAmBk4SWmtKxV9xCIKolbskuMdxOy/cBco9LtyFud0NkceW/rzGOuwE3AF3ahY53lTRbZm6eB7c0fAH9nxT5tyrEBOC6JW7ILjHcjsz3OXJPSbcpbndlemDS6fGMuwB3AF3GZ/+2gSXydBB8J9NuJLta0LF65wVQRDIXRjc47mdG+7i5B4P7uLczmEPlesw9wF3wJ08y8pyrOiq4DLhWQCyYWJgLzajtwx2pyKIXrmLgXtMt7PDXZrcY8Fdnttdvp88tlzTWITdgDvgTs5y6C1XJlie2zUbA/t8E0p+Hl5CELVylwL3uG6vDff3fv5RIrgLk3scuAt0O8cJouMaa3AVcAfcybnF8a7eklslkzxNU4eNDOy7XkoeQRChchcC99hurwn348/f+dNHieAuS+4x4C7S7QxfhufaFJbgDuAOuJMzxvGuFoKvki4j4/ok/6lu7dASgqiVuwy4x3d7Lbg/dfs7teV+MdxFyb1xuMt0uxumDy6LmHEH3E3C/TLL2zojtkpu8Dy3RSvj+jB7yW8CSwiiVu4i4J7A7TXg/pXba8u9Dtwlyb1huAt1O0fDN40HmncA7oA7OTy9ieTu7t5mub5pM8N6tsBd8suwEoKolbsEuCdx+/lwf+72mnKvB3dBcm8U7lLd7trog8uEwvpDVxnAnR6Grd2Sl0NkF1ge2z47wzr7lPsgqIQgauUuAO6J3H4u3L92ey2514W7HLk3CHexbneOYZJI4Vfh6OMOuDOkGvQid6b1ZIaO/yzmuGt+ElRCEK1y9w/3ZG4/D+4n3F5D7vXhLkbujcFdsNs5OmOU9FUfTk4F3BlyjeV9ldqsm2mJ+6yhUT3DXfNo5I4gauXuHe4J3X7434vdfr7c//pAjdwbgrtkt3N8u5vRV3xzgDvgTg/P7tQtoUVS5Xlsuw0N6ovcNW/p5iFIYHL3Dff/sXdvu40lVRiAC+LEh3bcMi05kS1FSbATYnWMHCfKoXNyzofOBW/gjHrcUg+DuEPigggkJN4ACdBIwBWXICHxAAheixl1M+pJO6eqv2qvVfX/F3M52eW9q+vbtatW2br9t28fcPtIuf/9d2rk/hi4i3Y7ouRbo6Wu73UId8LdPeOQ+3oms48UMOs+GrmExvQOeq3Mc8MwjFK5Zwx3a7e/e9DtI+X+UzVyfwTcZbsdMtSU9PW9CuFOuLtnBkJbmQuZlzFP7UFSY/ouuM+XDMMwSuWeLdy9ul233B+Gu3C3I85OlXz4o1dxEe6pw/0EcmNlnoRwgXlq80kN6Xlwn18zDMMolXumcPfsdtVyfxDu4t2OOKh7S9/X8FnCnXB3z2vIjRX54gsqBqnyfDb79MB9/tQwDKNU7lnCHef269Fuf/PmS7Vyfwju8t0O2WCnb3A+JtwJd/dsQm5sXeJaGRRB20kN6OXwfZ5hGJlyzxDuQLf/4s1d+fe1Urk/AHcFbjdtwPCir67MBOFOuLun1YDcWYkFVUErZbbTGs+r4M0z8yQSw2iVe3ZwB7r9+ud3wv3La6Vyvx/uGtxuzKH78FJZ1dbtjgh3wl3MlxuBdWVadcxDu57YeL6N7fNdColhtMo9M7gj3f5EuKuQ+71w1+F2iGEXtfW6LuFOuAOyCLmzAl98QTVlBlOJDefT2D7fJ5AYRqvcs4I71O1PhbsGud8HdyVuhxwa0qwq63RrhDvhDsg55tbKe/EFnb40qCU2moPX4HHGnWHUyj0juGPd/mS4K5D7PXDX4nbMQSs9ZX1uj3An3AHJYRa5i3vxRW2ybKY2mO9zcyrDUO4Zwh3s9qfDXb7c74a7GrdjDg05U9bl2oQ74Y4IaGmEtO2pk6BntpjaWA7ePMNykAyjVu6ZwB3tdgu4i5f7nXBX5HbIOt2Ktk/iW4Q74Q5IH3Nvl2T1jg7qgLLkTv4En8CU2hYBholI7lnAHe52G7hLl/tdcNfkdvMixeoRS4Q74Q7IFejmPhfVO+ZAraoUCPeovsQwDPNouWcAd7zbreAuXO53wF2V241pIobosq4Od0G4E+6IzGJu7oGkzlFFFTU8Tm4gBy+V6RmGYZTKPTzcPbjdDu6y5T4a7srcboqIIWZfV3/rEu6EOyKXoLu7KahzoGpBJljNcB3b5/coI4bRKvfgcPfhdku4i5b7SLhrczvmdPPKuKru1iPcCXdEnoPurqBV7rAJ96ffUvUZw/b5mmEYRqncQ8Pdi9tt4S5Z7qPgrs7toFMSdRWQ2HBq6+V4BukQ7gLhnkPt45SznBk24b5STW4Uf4mF+wZdxDBa5R4Y7ji3v0XAXbDcR8Bdn9tBC76VFZZZcWlrXmijCPfgcIctjmh2hDxEuVkUO4+SG8OrDajbK+m9+TBMNHIPC3ec29/91wbuv9cj90/hrtHtkMNT8f7zmxOXpi4Q7oT7h5RQSpsU8hDhtn+cJzeEl7ET7smdX8UwEck9KNyBbv/DL23g/oUeuX8Cd5VuN62t9MbpfoxTiYR7eB936qjpVRkrwtuwIw6a6c0Xl7Bw36WJGEat3EPCHen2z6zg/qs/qpH7bbjrdDvqc/+SpoHaaVOh1PX8hHsGE9uwQiKHLQnPEK5Q6mV6A3gRC/cJkohh1Mo9INyhbreE++dq5H4L7lrdjqqxMq+op3UqEQ6ohHsGcN+MSrqvcOxMsJZhEwv3ScMwjFa5h4M71u22cFcj91tw1+p2U12BjDP1VUU9zeXs1AOhbSLcM8BQFae17Iu5F3CNSXCB9hXW7YMpgohh1Mr9X6HgDna7Ndy1yP27cP+PVrcbs4AZaM4UdbRJh3buEO6EO+RJulU/MfPDEIAHCC2Y5HIJhnt6u3sZRqvcf/iJ/94Fgjva7fZwVyL34f11LNW4HTZVdKqnn7kscl8h3NXCHe/JGk5qLzOuCbkGVGd6hwd1tsBwZxl3hlEs9zBwh7vdAe465D6MxO2wg0PqZTUtzjlUA6nkCHetcD8S23my3z1Rq+NacpwHCBPgAAAgAElEQVTeyD0HdvsMMcQwkcj9Ro/bXeCuQu7DWNxuTkFjzVJLTZPP4ptNJNwfzrpssGW5H7FzCGzIWnoT7uCtqYNpWohhIpH7jR63O8Fdg9yHsbgdV416XU2TXbhVIty1wt3DOWEF4ET1oJ/Z01M9Q84Wt0xqmQS7nUVlGCYaud/ocbsb3BXIfRiL24EViOe0tHjVoZFdwj17uBu7b0IefvcjJNfm1f8TkGYR91oFDfdlSohhIpH7jR63O8JdvtyH0bgdV8ms0tPS5F37Rl4Q7gLgbiUlHwuHa1CvZfTq24c2IrmtqbkltNsHZcMwTBxyv9Hjdle4i5f7MBq3OzH21gZVLQevzNu3cZZwFwD3htXfKXj44U+gYMsr6w0jcmBSyz7c7QkWwmeYWOV+o8ftznCXLvdhPG43JdzyViWzbeMObZR51FRicLervufjlKMelmzr4asWYd0udROIv0zB3S72fGaGYZ4s9xs9bneHu3C5D+Nxu6nO4uT+QkeTHT4yyFx+mhjc7c77fe2j82yD64kUAj85Xez1b1cTG62XK3i4zxmGYSKR+40etwPgLlvuw3jcDp1zm3mmosUONTBlnhGbGNztyu8dCHuURq/FCtqDqkfgy0+tFqQPtyd4ghXDRCv3Gz1uR8BdtNyHEbkdeu5fQ8Wn8kLDuoEVkRvHEoO73TeiStvDL59D1/BuBJxv7ZyAL76ZM0nl1IfbucSdYeKR+40et0PgLlnuw4jcbkweOez0NbT4IrJyd4nB3fK8oFMfP/0cHG5joQ68Lx+iLz2tRR654sBHigQQw8Qi97c/0+N2DNwFy30Yk9tNG3mOzOCkLb/Fmw61czYEticxuFvuUdj1orcmXG4zYRacrNXRF76S1OFLq8de3D7oGYZhYpH7375S43YQ3MXK/a9/isntxixgh2/5I4/LnkKJR8QmBnfbkz691Cs99WC3af8LsgoX+MvuJzRCV+fqftzeSO/oWYaJWO5/+UqL21FwFyr32NxuNhrYsWdiVXqLXTbkCixXnxjc120XoSiZcv9ab5eey8uUPFz1TCGd8fnZ7sBTWAySYSj3LNwOg7tIuUfndvDR7d+sJ1nsyG5wwWG67KW8HXiJwf1I1DvXqRe/zXQ9PmbjZz4uOZ0V7rWxgbckVwmfYSh3EW7HwV2g3CN0u9mo490he6m7y6vKAuGeLdwXbe/cko8y47ltP4Jrdj29/RZeN3xc73YqJWWen1X8uX2LK2UYhnLPwu1AuIuT+wi3//hH6p+1PH4EauxLLupedhl7xS3iTwzu87ImhXveEJf38Pbb6s5wqtg+493Dgc+sG4ZhVMv9B17k7t/tSLgLk/sIt1//RP+jVvAymM9O7omdhXPZm7cirbJMYnBfs3+bvPLx8595Y1zjYhP7kaDdX/F0qcfxD8i58/7SwHPO6R6G0Z3vXXuQewC3Q+EuSu6j3H79/Qgeta6ncag+vVgqSzwH/cqlVUvClvAnBneHap7bPu5cueFRcrOL47iHft/flT6Leihu701dHjQG3nNI9TBMfHB3lnsIt2PhLkjuI90eBdxbTY+jUaW5ND1xUXyfiU9yMn07u0u3czh7O82Z2/nuQv26z2nSM1nvIonBvexw56Z9fAOa9Ku5l/0awp5zPqeLLyyvqlSUnf2JiendZgCyv8881cMwEcLdUe5B3A6Guxi5j3Z7FHA3y4PI8hDcnzn93/cJ9+zg3nISpod3rs6K76d5e6Hn9K1gY83njsrBYMZ29djCgPloaVSB6mGYGOHuJPcwbkfDXYjc73B7HHA3x4nB3biVdMsT7pnB3Th9HhrzsFomxGtvZSnfs9qsmtt77X1ptvVhr4T7xzkiehgmTrg7yD2Q2+FwFyH3u9weCdyvKonBvebW4EvCPTO4u51+c+jhXNKxQE91c6y/ufqEbwYbryaPA6zzmLb+4Qj3j9/NxokehokU7tZyD+V2PNwFyP1Ot0cCd1NMDO5m3+0PTMjZoZoa3C8cH405+HKZ9kzAR7uxM5Ff26zdO/3eqfXmiseBrqph/ypEuAM2CjAMIx/ulnIP5nYPcM9c7ne7PRa4F1YSg/uq41TkTk3KrUsN7s6bQXfhZSGz2CPSmD0+uyjm+3NTU6VS6dXm1/+ZmurmixfTO1tBL6Rr/7sR7h/lBc3DMPHC3Uru4dzuA+4Zy/0et8cC98j2pz4Md/sTOP8Pp76Q4jKpwX3N+emoTNRE3IMo4nIgLeHur0MyDCMK7hZyD+h2L3DPVO73uT0auHs8SEYm3FuzzmSRMemeGtyvAM9HZawHfe1qr6TqzXqZcIescK+RPAwTNdyfLPeQbvcD9wzlfq/b44H7aj0tuJtX7oNtUcIpqqnBPYfZb9nMnwPt3qskCs5ll1+NcP826xQPw0QO9yfKPajbPcE9M7nf7/Z44G7mEoO7OQEsNC6WM79vqcHdvEQ9JVsT889RtbNfp+nNfacfjXD/9h8SlpRhmOjh/iS5h3W7L7hnJPcH3B4R3KvTicG9DPnGsDuX8bR7cnDfhz4qzd2xy373dOp2Eu49j89Oi3CHZJHgYZjo4P5PB7kHdrs3uGci9xFu/0ekcDerM2nB3cyDlqce9HsZTpglB/cgn4YqT72qdjM9btYdF2YT7h8y2yJ4GCY6uN/82lruod3uD+4ZyH2U27+IFe6mlBjcq7u4v7h1sN9fPh/PEe7e4b4nEu5mL71l7muODw3h/iEleodhIoT7b2zlHtztHuEeXO6j3P7nYbRwN+tpwd3U8OdK1ps7B2PrxeJRHpNVwv12cnWRcDenqXFz0vWhIdzf54zcYZgY4f6ZpdzDu90n3APLfaTbP48Y7p3DtOBuuuJb8rBsk4M7YlexD7i7Hw2lKxPOVXkI9/df6zbIHYaJEu52cs/A7V7hHlTuo90eM9xNLZKakI+Fe/WAcNcH9xCL3G3gXr1IiZu77uuyCXfIiiOGYaTC3UbuWbjdL9wDyv0Ot0cN91gOUH0s3OVvyCXcR9w0oXA3uYN0tDnbdn9oCPdvckLsMEy0cP8fe3fQEll2BXD8gKVdVjslhVCKD4pq0RbFEiwVu2ztUbtsy7b9DsPAMCRk1/uBDLOfXVZDIJlVtskyyxDIx8qzk0DA8lWp75x77zv//6ppkO4uXt3+1an77nu83IO4XRnuZnJ/yO3VhrsMfcE9+htygfuYLiOFu9RP3WzvKONJn8A9r78NdoiqC/fHyj2M27XhbiT3B91ecbhXY2g4PdxlHrgnB3eD20CfBnc5cHIo5Op1GRcNcM8bYB2iKsP9cXIP5HZ1uJvI/WG3VxzuUj/xBffaFnBPDe67+rdiPBHuMtvF7cD9Eb2GOkTVhvtj5B7K7fpwN5B7gdurDneZ7buCuxxE/e8F7mG+Jnkq3OXAgdyzxXIuGuD+zWUN6hBVHO7Tyz2Y2w3gri73IrdXHu5ynSX/3+Fj4C6DJnBPDO7tZrRwdzBzL8vtwP2bdTa4E1Uf7tPKPZzbLeCuLPdCt1cf7vK26QruUZ/mDtzH9jFeuFd+5l6a24F7tgR0iBzAfTq5B3S7CdxV5V7sdgdwl0NfcI/5BlXgHmbk/gy4y0Glz5bpXJd20biHew/nELmA+zRyD+l2G7gryn2C2z3APfmntz8S7q0RcE8L7nIWMdxld1Rda67flnfReIf7HswhcgL3yXIP6nYjuKvJfZLbXcA96t0j5cNddneAe1pw3z6OGO5SO6uqNXfelHjROIf7EOUQuYH7JLmHdbsV3JXkPtHtPuBu8lj5eOAu2yfAPSm4t9ZihrvIeTWt+WG3zIvGN9xnWiiHyA/ci+Ue2O1mcFeR+2S3O4G7LDc9wT3aJ+cA94fkvhU13KWxWkFrnpV7eKFruI84CJLIFdyL5B7a7XZwV5D7FG73AvdWr+kJ7rLQB+4pwV3aWdRwby1U7hbVbLnki8Yz3FdwO5EzuD8s9+BuN4R76XKfxu1e4C6yeOwJ7tLuA/eU4K57H0bz+S/JRsU2up/clr3COIb7xQbEIfIG94fkHt7tlnAvWe5Tud0P3KXd9QT31sI6cE8J7jITN9yl1avSdpmZeukLjF+4j3A7kUO4j5X7zxG43RTupcr9p6nc7gjucrDlCO45PteBe0pwr3fjhnv+0XerKtJcfaWwvriF+xH7ZIhcwn2c3P9y73c+m7vdFu5Pl/s/7v3cb6Zyuye4S6rH2j0N7jJ7AtwTgrssrUYOd2ntZZWQ5uWCxvLiFe5DzpMhcgr3cXIPP2+3hnuZM/ep3O4K7iK9zBHcpX4J3BOCuwyakcO9GkP3bE9Hmj7h3uS5S0R+4T5Z7iHcbg13PbmPd7szuMvLE0dwl40Z4J4Q3PUe8Vsa3CswdNcZt3uF+/EA3BA5hvskuQdxuzncteT+gNu9wV025h3BXVo3wD0huMta9HAXOZhLGZr9Q7WlxSPc37exDZFruBfL/XMQt9vDvcx97pPd7g7uIvt9P3CPbXMQcJ/Qq/jhLnK9k+y+jptdvYXFIdw/7kIbIudwL5J7mHl7CLhrzNwfdLtDuEv9zBHc5bYL3NOBuywnAHdpXXWSdOaF6nzYHdxLf4QVESUI94flHsrtIeBevtwfdrtHuItcv/cDd6mPgHs6cJfDZvxwzy+qzfSeZ7alvB3bG9zfsU2GCLgXyD2Y24PAvWy5F7jdJ9ylttdxA3eRqwy4JwN3GXQSgHtO909p0f19Q3tR8QV3rbN5iCg5uI+Xezi3h4F7uXIvcrtTuOfueJ25gXs8h/gB92n+8NMU4J6/hV6k8yjVk0N9ZrqC+wXjdiLgXiT3z+HcHgjuZd6hWuh2t3AXmT1qeoG71M4z4J4K3GV3Jgm453TfW0/iDfSuYTEddgT39R6kIQLuRXIPOG8PBvfyZu7FbncM95zuw8wJ3HOKrgD3VOAuspYlAff8E2Ev/icyja5tlhM3cF/9xGEyRMC9UO5B3R4M7mXJfYLbXcNdZPtT3wncRXpd4J4K3GXhIg245309F/M3V50bsz0dTuCe3WzjGSLgXij3sG4PB/dy5D7J7c7hLlJrXDiBewx35AL3qbs6TgTu+cfftdNI3znvDjfslhIXcF+9OUAzRMC9WO6B3R4Q7mXIfaLb3cM9r/3pxAXcRepfHQP3ROAuB2fNROCetzSM75im/vDWdB1xAPf+eR3LEAH3CXIP7faQcH++3Ce7Hbh/6eXrEw9wz+l+3gHuacA9/1uUdvt0U/8tVGt8jOl8yOOjgfVxhVWHe3OlUUMyRMB9ktyDuz0o3J8r9yncDtz/1+zVzHH14S6ye3UK3NOAu0j7KEsF7nd23z+LY+6+OtfYsF9Bqg33081ZGEME3CfLPbzbw8L9eXKfxu3A/f9q3b6a61cd7nlfH60C9yTgLlK/2koG7nd2XxyG/u6qOxyEGQxXGO47mxzbTgTcp5J7BG4PDPfnyH0qtwP3e5P3xouVTrXhLrLRmMuAewpwvxu7f7WTDNy/vIOW50K9gbKL89tgK0dF4b5+1OMYGSLgPhXcv/3xXxG4PTTcny73303lduA+tu3rq+GH91ll4Z63+zbAbBS4P/F6bMyfNFOB+913Vy/PR9Z4b15+WtwIuWhUD+7Hl68bHCJDBNynh/t0Kbs9ONyfLPcpA+4FvXm5v3w+/Di63Ol2O51OpeD+ZTbau7nMgHv8cL+r1m7sna3kl2Inix7u//mmYPnsvdF11RltDoI/FKhCcO9vzdy8WsTsRMBdA+7abg8Pd2W5A3fn1dpv1+Y/7Kw344A7Vartwd7RaVN3KnzTW0jhpagX92a2sIWl4q4XCxs0ijtcvqvXaOwvvlyot7hwiUgN7upujwDuunIH7vRfWLyZqINnt8HL7PGz4dLhzYdu6Xxvnn7c2+eoEyKilOCu7/YY4K4qd+BORAZ8X9hfm185KWFrVnY68/pqsMCh4kREqcHdwO1RwF1T7sCdiOzabu8vb56N3nUf+diEbH1ndLa5vL/0hteQiChNuFu4PQ64K8oduBNRiGrb7eu3h1d7my/mj+ZWVi638k66X7r75dbKaG5++OJ8b7lxfXvALisiotThbuL2SOCuJ3fgTkRERES6cLdxeyxwV5M7cCciIiIiVbgbuT0auGvJHbgTERERkSbcrdweD9yV5A7ciYiIiEgR7mZujwjuOnIH7kRERESkB3c7t8cEdxW5A3ciIiIiUoO7odujgruG3IE7EREREWnB3dLtccFdQe7AnYiIiIiU4G7q9sjgXr7cgTsRERER6cDd1u2xwb10uQN3IiIiIlKBu7Hbo4N72XIH7kRERESkAXdrt8cH95LlDtyJiIiISAHu//z+Hlr/8K0zuH/3w9/vvQi/AHciIiIiignuP/7+nln//EdncP/1l3uvwV9/AO5EREREFBPc7eUeHdzHuf1P7HEnIiIiorjgPkbuv1WVe2xwL9ntwJ2IiIiIdOA+Ru7fa8o9MriX7XbgTkRERERKcDeeuccF99LdDtyJiIiISAvutjP3qOA+xu1/e57bgTsRERERqcHdVO4xwV3B7cCdiIiIiPTgbin3iOA+1u2/AnciIiIiihbuhvvc44G7xrwduBMRERGRKtztZu7RwF1l3g7ciYiIiEgX7mYz91jgrjNvB+5EREREpAx3q5l7JHBXmrcDdyIiIiLShruR3OOAu9a8HbgTERERkTrcbeQeBdzV5u3AnYiIiIj04W6yzz0GuOvN24E7ERERERnA3WLmHgHcFeftwJ2IiIiILOBuMHMPD3fNeTtwJyIiIiITuOvP3IPDXXXeDtyJiIiIyAbu6nIPDXfdeTtwJyIiIiIjuGvLPTDcleftwJ2IiIiIrOCuvM89LNy15+3AnYiIiIjM4K47cw8Kd/V5O3AnIiIiIju4q87cQ8Jdf94O3ImIiIjIEO6aM/eAcDeYtwN3IiIiIrKEu6Lcw8HdYt4O3ImIiIjIFO56cg8Gd5N5O3AnIiIiIlu4q+1zDwV3m3k7cCciIiIiY7hrzdwDwd1o3g7ciYiIiMga7koz9zBwt5q3A3ciIiIiMoe7zsw9CNzN5u3AnYiIiIjs4a4i9xBwt5u3A3ciIiIiCgB3DbkHgLvhvB24ExEREVEIuCvsc7eHu+W8HbgTERERURC4lz9zN4e76bwduBMRERFRGLiXPnO3hrvtvB24/5u9O0apHAzAKLoFsVameI1goYsZcLAWHgpT6Q7sxU3YzAyWrs8FRGUIMf+NnlOmCCGkuHwkBACAQeG+9Oa+crivvLcLdwAARoX7wuW+brivvbcLdwAAhoX7suW+arivvrcLdwAAxoX7ou+5rxnu6+/twh0AgA/C/e72s91MNvf9zDPt54T79Tz7Sbfvrz+dcAcA4L1w36z/DffNEu4AAMJduAt3AACEu3AX7gAACHfhDgCAcBfuwh0AAOEu3IU7AADCXbgDACDchbtwBwBAuAt34Q4AgHAX7gAACHfhLtwBABDuwh0AgG/o149hjo4nffr08jDL73fD/X7eCR8eJ9d2eHk0zk9PKgAAwxzsJnX859/VHM9Xy3r+O7mys/Oht8rTAgDAVyj3L97tAACg3HU7AABssNx1OwAA9MtdtwMAQL/cdTsAAPTLXbcDAEC/3HU7AAD0y123AwBAv9x1OwAA9MtdtwMAQL/cdTsAAPTLXbcDAEC/3HU7AAD0y123AwBAv9x1OwAA9MtdtwMAQL/cdTsAAPTLXbcDAEC/3HU7AAD0y123AwBAv9x1OwAA9MtdtwMAQL/cdTsAAPTLXbcDAEC/3HU7AAD0y123AwBAv9x1OwAA9MtdtwMAQL/cdTsAAPTLXbcDAEC/3HU7AAD0y123AwBAv9x1OwAA9MtdtwMAQL/cdTsAAPTLXbcDAEC/3HU7AAD0y123AwBAv9x1OwAA9MtdtwMAQL/cdTsAAPTLXbcDAEC/3HU7AAD0y123AwBAv9x1OwAA9MtdtwMAQL/cdTsAAPTLXbcDAEC/3HU7AAD0y123AwBAv9x1OwAA9MtdtwMAQL/cdTsAAPTLXbcDAEC/3HU7AAD0y123AwBAv9x1OwAA9MtdtwMAQL/cdTsAAPTLXbcDAEC/3HU7AAD0y123AwBAv9x1OwAA9MtdtwMAQL/cdTsAAPTLXbcDAMAGyl23AwBAv9xvJkdOT9woAAAYGu5vlLu9HQAAeum+0+0AALD5ctftAADQL3fvtwMAQCTcPyh3ezsAAHTSfafbAQBgs+Wu2wEAoF/uuh0AAGLh/ka5+y4VAAB66b6ztwMAwObKXbcDAEC/3HU7AAD0y123AwBAv9x1OwAA9MtdtwMAQL/cdTsAAPTLXbcDAEC/3C/8dwkAAAAAAAAAAAAAAAAAAAAAAAAAAAAAAAAAAAAAAAAAAAAAAAAAAAAAAAAAAAAAAAAAAAAAAAAAAAAAAAAAAAAAAAAAAAAAAAAAAAAAAAAAAAAAAAAAAAAAAAAAAAAAAAAAAAAAAAAAAAAAAAAAAAAAAAAAAAAAAAAAAAAAAAAAAAAAAAAAAAAAAAAAAAAAAAAAAAAAAAAAAAAAAAAAAAAAAAAAAAAAAAAAAAAAAAAAAAAAAIBX9uBAAAAAAADI/7URVFVVVVVVVVVVVVVVVVVVVVVVVVVVVVVVVVVVVVVVVVVVVVVVVVVVVVVVVVVVVVVVVVVVVVVVVVVVVVVVVVVVVVVVVVVVVVVVVVVVVVVVVVVVVVVVVVVVVVVVVVVVVVVVVVVVVVVVVVVVVVVVVVVVVVVVVVVVVVVVVVVVVVVVVVVVVVVVVVVVVVVVVVVVVVVVVVVVVVVVVVVVVVVVVVVVVVVVVVVVVVVVVVVVVVVVVVVVVVVVVVVVVVVVVVVVVVVVVVVVVVVVVVVVVVVVVVVVVVVVVVVVVVVVVVVVVVVVVVVVVVVVVVVVVVVVVVVVVVVVVVVVVVVVVVVVVVVVVVVVVVVVVVVVVVVVVVVVVVVVVVVVVVVVVVVVVVVVVVVVVVVVVVVVVVVVVVVVVVVVVVVVVVVVVVVVVVVVVVVVVVVVVVVVVVVVVVVVVVVVVVVVVVVVVVVVVVVVVVVVVVVVVVVVVVVVVVVVVVVVVVVVVVVVVVVVVVVVVVVVVVVVVVVVVVVVVVVVVVVVVVVVVVVVVVVVVVVVVVVVVVVVVVVVVVVVVVVVVVVVVVVVVVVVVVVVVVVVVVVVVVVVVVVVVVVVVVVVVVVVVVVVVVVVVVVVVVVVVVVVVVVVVVVVVVVVVVVVVVVVVVVVVVVVVVVVVVVVVVVVVVVVVVVVVVVVVVVVVVVVVVXYgwMBAAAAACD/10ZQVVVVVVVVVVVVVVVVVVVVVVVVVVVVVVVVVVVVVVVVVVVVVVVVVVVVVVVVVVVVVVVVVVVVVVVVVVVVVVVVVVVVVVVVVVVVVVVVVVVVVVVVVVVVVVVVVVVVVVVVVVVVVVVVVVVVVVVVVVVVVVVVVVVVVVVVVVVVVVVVVVVVVVVVVVVVVVVVVVVVVVVVVVVVVVVVVVVVVVVVVVVVVVVVVVVVVVVVVVVVVVVVVVVVVVVVVVVVVVVVVVVVVVVVVVVVVVVVVVVVVVVVVVVVVVVVVVVVVVVVVVVVVVVVVVVVVVVVVVVVVVVVVVVVVVVVVVVVVVVVVVVVVVVVVVVVVVVVVVVVVVVVVVVVVVVVVVVVVVVVVVVVVVVVVVVVVVVVVVVVVVVVVVVVVVVVVVVVVVVVVVVVVVVVVVVVVVVVVVVVVVVVVVVVVVVVVVVVVVVVVVVVVVVVVVVVVVVVVVVVVVVVVVVVVVVVVVVVVVVVVVVVVVVVVVVVVVVVVVVVVVVVVVVVVVVVVVVVVVVVVVVVVVVVVVVVVVVVVVVVVVVVVVVVVVVVVVVVVVVVVVVVVVVVVVVVVVVVVVVVVVVVVVVVVVVVVVVVVVVVVVVVVVVVVVVVVVVVVVVVVVVVVVVVVVVVVVVVVVVVVVVVVVVVVVVVVVVVVVVVVVVVVVVVVVVVVVVVVVVVVWEPDgQAAAAAgPxfG0FVVVVVVVVVVVVVVVVVVVVVVVVVVVVVVVVVVVVVVVVVVVVVVVVVVVVVVVVVVVVVVVVVVVVVVVVVVVVVVVVVVVVVVVVVVVVVVVVVVVVVVVVVVVVVVVVVVVVVVVVVVVVVVVVVVVVVVVVVVVVVVVVVVVVVVVVVVVVVVVVVVVVVVVVVVVVVVVVVVVVVVVVVVVVVVVVVVVVVVVVVVVVVVVVVVVVVVVVVVVVVVVVVVVVVVVVVVVVVVVVVVVVVVVVVVVVVVVVVVVVVVVVVVVVVVVVVVVVVVVVVVVVVVVVVVVVVVVVVVVVVVVVVVVVVVVVVVVVVVVVVVVVVVVVVVVVVVVVVVVVVVVVVVVVVVVVVVVVVVVVVVVVVVVVVVVVVVVVVVVVVVVVVVVVVVVVVVVVVVVVVVVVVVVVVVVVVVVVVVVVVVVVVVVVVVVVVVVVVVVVVVVVVVVVVVVVVVVVVVVVVVVVVVVVVVVVVVVVVVVVVVVVVVVVVVVVVVVVVVVVVVVVVVVVVVVVVVVVVVVVVVVVVVVVVVVVVVVVVVVVVVVVVVVVVVVVVVVVVVVVVVVVVVVVVVVVVVVVVVVVVVVVVVVVVVVVVVVVVVVVVVVVVVVVVVVVVVVVVVVVVVVVVVVVVVVVVVVVVVVVVVVVVVVVVVVVVVVVVVVVVVVVVVVVVVVVVVVVVVVVVpT04JAAAAAAQ9P+1L0wAAAAAAAAAAAAAAAAAAAAAAAAAAAAAAAAAAAAAAAAAAAAAAAAAAAAAAAAAAAAAAAAAAAAAAAAAAAAAAAAAAAAAAAAAAAAAAAAAAAAAAAAAAAAAAAAAAAAAAAAAAAAAAAAAAAAAAAAAAAAAAAAAAAAAAAAAAAAAAAAAAAAAAAAAAAAAAAAAAAAAAAAAAAAAAAAAAAAAAAAAAAAAAAAAAAAAAAAAAAAAAAAAAAAAAAAAAAAAAAAAAAAAAAAAAAAAAAAAAE0XldUAAACDSURBVAAAAAAAAAAAAAAAAAAAAAAAAAAAAAAAAAAAAAAAAAAAAAAAAAAAAAAAAAAAAAAAAAAAAAAAAAAAAAAAAAAAAAAAAAAAAAAAAAAAAAAAAAAAAAAAAAAAAAAAAAAAAAAAAAAAAAAAAAAAAAAAAAAAAAAAAAAAAAAAAAAAAAAAwCS1EBPOfoDALAAAAABJRU5ErkJggg==;" parent="1" vertex="1">
          <mxGeometry x="373.81000000000006" y="510" width="130.37" height="87" as="geometry" />
        </mxCell>
        <mxCell id="o3aBx_VyT8-OBaSvo29I-602" value="" style="shape=image;imageAspect=0;aspect=fixed;verticalLabelPosition=bottom;verticalAlign=top;image=data:image/png,iVBORw0KGgoAAAANSUhEUgAAAZAAAAGQCAYAAACAvzbMAAAgAElEQVR42uy9fXCl2V3f+fnevXVXKEIoQqtV5KZpmmZot5uudksZjBmmxl7HcbAxzoZ3uoEsupW4tjYbikpR1BZFpVKpLYrayiYEvFk1mwTdDZi3gBkIGJdjYJgdxtJ4Mh7PNsO4LZpG1ipCUam0iuqW9n73j/Pce8/zcqXunla3Xs53plv3Pvd57lE/5zm/3/m9fX+QkJCQkJCQkJCQkJCQkJCQkJCQkJCQkJCQkJCQkJCQkJCQkJCQkJCQkJCQkJCQkJCQkJCQkJCQkJCQkJCQkJCQkJCQkJCQkJCQkJCQkJCQkJCQkJCQkJCQkJCQkJCQkJCQkJCQkJCQkJCQkJCQkJBw/KB0CxKOM2bmFhqgmmAa3LB0FmgIj9uqgRvAEKgOHgJqiL8kqAHDQA1rCFw3aoTzVQeGhGsO53eEdoE9Qxu7LdEGtW13QDsSHez/F9QBdsFti7ZQG+jYbAJ7wB3wLtIKeG9p/sZumsWEpEASEh4SZpsLgGq2CQJfYNeQENQMYGpggCGJus2ZTCGcFzQsJjB1wZcYhhANrKFwvUcyRTICqmEPIRpCDdtDQAMYFuopEMwOeE+wa9iV1HZQFB3Bjq09wbahg9jFbmfn/mdgT2jToo19G7QDvoPUltkxxgKZjhDgTlid6mDC63BOR4jF+evpIUk4EqinW5Bw1GAzRhDy00IjmHNIQ8BXg4dlzliMyUwCY5jhYFEoKBxAfQXTlb/ZZw4iGkUfK1NIA3ZUrjhuk1kb2TcYCOIfu+PeFe4e7XSvCZ+oY7ML3gbWhDbBd4Edw+dBu9jLwLbQCmhLZgO5k56QhGSBJJxSl1MLiZrDrr+GGVGwMoZs1yU1MKOWRzBTCu6nr3RwLZ0BD0OmOMQ4MBpcVHmBn2mJ7AkXOWXCPsfse1wV+eurvi1/vPKMNrCN2QC2gFVgF7hDcH39GXhHYs1mS9Im0HawSnaAPcQO0AmWDCzdvJ4UTEKyQBJO9DNXAy6DRpCfAn0ZeBaYMD6n4E6qx4JcvTf3IN0HnqqD90+63z2VDtyN7XNGAxjPFOFByqqD2UPcldg0fhGzBfyBYAvpJey9TAElJCQLJOF4YnauVTOuIY1jNySNE+ITIzZjkodtnUN8CfAEMCw4ZzOCmFSmZFz5kAazwgMeXkefqMIoKZ9/8Bju2RCqvt7Veid3vVU6J/6dDh7DnRAT8YakHcPtTFncwt4FPp+93wC2sz+bmSWzLtFZnL++l57OhGSBJBz1bUkdqy7zRLa7vmL7K0EXJF8wmgA3MDVJ2F0J7O7/JasgC6jnxH5P+Es9IV1UJd3PycbIf8/BY4TfqxfbyM4Lh7u/hTLNYDv7XYJiiC2P8CuEC1WpRg4co5Yp1cnswnPZ93wzYcw9YEOwbPsNoTuW/4PwBvAiWRZZejgTkgWScCQwM9dqCA+Dph0sh5AJZX+loRuzGCIIvRHQOHhMMGSod+0EZ4Hm7k96uiSOHvT/zkRqdkVX9BZtj/z7NzdG+NmV6I7OKbiZCj9Ldkjvdy1bIG9mDMgyt3YNW0Ib4G2jNfAuaAXRxnwB2BVeAa1ZXsHaWrp5fSc9zQnJAkl41GgYjQpfAC6CZoBx0GxQHB5iH7eRC8K0Zzc4LzTLdoFyFoajM1wIVj+cMTLh73jMKsFe9a+k8PsUx83/Kx58jF5dy7BhKlZeCpbHHvASYgN42fDHMnsWu4SAfEJCskASDsnaaLaGwDXgnYTMp2/ATEi6QIhtjAhGDA2Fz2uEGgqw+8msRVnYde10P6/awEcqQJWB78Mdo+LUcnwl+h0qPy++LuiDwx7D0CFkeu1lP3cktm3fATaB/wuxCTwHtJfmb2ylpz4hKZCEB8K15s9lwWEhg9Ew0AB/EJgAvgWYErro0m647L6Jf6ogrJ37vPsNCiENU2FDPOox8mI9dp254ncoOtAGXp/FOh7nGIg7oE3Ds4L/CPyyYRd7vXcXlIoXE5ICSbgHzM5lVeD4DOI88KTQV9o8BR4FxoCaxFB2Xr20Bd7P9dLdSufON4NrNQomwiMeQwU3mCIh7pKt4ILwJ2fTuPA5hXMe0xgdQ0d419DB2gFvC71guCPxR7ZfF1pGtBfnU51JQlIgCX3XFMJ1WzXEECG4PYR9BukC9l81nJP0TuxRxFAv4cmZIFJe+FbW4kXH3b0kO6mXcRSnwx6hMfrZXEV/UvbFUB3fzr48/C6RqVP8hY/IGNnnHYlto0WCe+uPgFvAMmhboltr0gG3F+dvpEV0ipGC6Kd9B2GwdEFi1OZvIqZtvxtpRDDqXtpp4KLqyiTlth9ZrlL2eVFQd6MT0eVYUaxBBcF2hMbIO3+y6EM3bbdn6KivtKJxw/t+3KWy0kM6MmNk19UcYljvDkqC7yNwf+3aPIe9gvgVW5uSFtMKShZIwumzOobBQ4IprGHgsmFE4pswE4irtockDYfahq6wVq/Woeju6dVAuKIuoveTXj1E/vjRHiNYKpEyygLy/VTgWEZ3s6kyod81gwa63/qfH9UxQG2C5fEKeMPwe6BtmZcCszArmB2kbSDFS5IFknDCrY5pxBnQ9wLnjZ8CGnH+aLeoTb0drftCNUo1lSO51RPSUQ1D9rpXpFf87mMwRl+QxuHsfiqwCv4hdTO+5FxNx2CaLR/pMZAbmIbhHd3iReE90Kug2zY/D35d+FVHBJMJyQJJOAGYbS40gGnDJOY86Dz4K4BrwDhwbr/NRD4kW36AXPH6/h/Eoz9GnDzrApFiXyCr9JkLL6pzwo7bGHQEqw7V7y8Dd5A+j/0GaB24TagxSRZJskASjjkaoIvAFYlvtTknaXpfIqfebrRfVjeI8Em9rW9FlcZJGMOF7Xns3oo+7+7mVfh+5X+R3Pfr2I6hGmI6NPLiMvaG8ZrgYxafFV61aUvJIkkWSMLxszrmFi4hRjDvA32ZxVXMGHCWrGK5m/YZ1wqUd+KuOErFrrVYf5H/juM6Rj7Jt58sGxFVFZm5iIhJ+sFtx9dTrho8/mO0CVQqdyU2bF4FtoV/B7SJeCmzRpJCSRZIwlFHRmcxAfwNhfqNSz3SwSo3RkVZsxksjLvHcpta5YX0SRmjXNAXa51iXUWV+aNeAL8QaOi9PwFjZO2AuZTFTc4B26AvAKvgl3GyRpIFknCkMNNcQKgW3FI8Yftdki7YvgQME1q7ZjUeKtQUFMqwVVFgEWUtDSy8iGsoTuQYBXuk9N39opM8S9egJVcyCU7gGOyB9sDroF3BMvAG8HvAq4bXgb2lZJEkBZLwGFxU/b7hNaCOuAi6gv1+wWXgfNYGFg/ikLpfm2af7zjpY+zXT0QP6Tc4wWPsZVbILdBvGi9iXgF2s8LETipITC6shEfqo1LD+GlCQ6YPB6p0JoB6thmsxf0ofE/LfSCNX8U1FAKtJ3kMR26ycmaTB/BxDeLnqnYSndwxsmfyDDANfkYhJrJj/K+APwF+mdRJMVkgCYfsrppr1cE1oUnwsOHdgq+y+A6hMYcg+b1PfuSlqRLIvYK6At35aRoj9vlrkKqKYtEq6J7c54VEsdz3nKIxsj7vO4ZfA74AfAyzDawKOos3b7TTak8WSMLD1/ajBFbcf2hpUuYDXbf9/jUMeWnQCxx7cF6Syaq6M2lwWsfoF1dWWz5xMWNf41R8k4tGT8X3nZYxYNhmWNJc9j3farwO/CiBan45rfZkgSS8Scw2W4QeHJq0Q2tYYFzwnYhR8NWDO+ER0XK4tKPs7xbLtOD5JM7TOoa6Pcmzd+rzUEXXqui8cX8bXu6NXu7rfqrHQLdtbwEfBdZDYaLWwCuIzuL8jRRoTxZIwv0iBMhVk7go+ZrR9wuftxkWqvXlqKJsJLoMifktgvO7ytyOMzoeL+28rD7NYxRSh0tjxLQiiucv3xc9lsSF3+uUj3E+++wy6I7xr4H/UOjjxhnzb0KyQBLu1fJo2EwjnxOaNX5rWGRcUujH0Sj3+Y532oW2Qy63xyjSVagkgxXVShyDMew20EGsy+whbQK7xjsyew6ZQG1EB2hjdYTboVOf2gRupz1gTzg7Xx3J/x/wXxDa99awG6C6oA6uW9Tk8JlEw3Y925jVJdWDq8Z1W+NZncS4RB00lPcJiXyvwSqLicK5gwhYVMgmOw5jALhjtAW8gVmWuIX9aeCO4dbSzRsp0J4skIQDLQ9oCJ8hcFV9v2DKZqLkRijtBlyRVdPdRRabDFXzQtnV33XUx5DU7fu9ZrEjfCcwxmrd+D8DbUk72TnbwJ4J7wU7GePsLrBr0xbaQXRs9hA1WSNAQ2go65vSyJRAHTESeqowIlHHGnZQFl8CHsu6OZ5TYAAYCsSExX7xLtpNlLuj99tblRRzqYN61d098mPUwGPALHAR9E6jIYlPYy+TMrWSBZJQjZnmwgimBswBf1nSe43HQNNBcNEoL9R96hn2oYaqWvAPUh1w2GPY3hbsIXWFxyp4NyPr2wL+k+0NSTu2N4T2DDvgDtKO6FobdDLLI3TfMx1wJ7hGFD5z9hnZZ6Jj1Omy8xrqWSC+Tuj3jrsbsGB1ICnbkGUNuoJArEuq2QyHDDqGDTXQKHhYaNx4TNKXGU9kCmYqU1BnJQ+BJu51Tu7tvKo40L3P+6MYI7MYO8AKsIX9HGgb+CmgvXTz+lqSGskCSejv5urgOuLrCAy5T8YBx/Jy1MBqh6Jk369CYpCT4iiMIbSHaAMbwA72HcQ2+M9sbUheC0qFLcHa4s3re4c4RQ8ttXS22aoBozajwJSkSWBc5gzwlxwU1ZBgAqsQoikGrat6vmtAyrIL91kV9sKRGaOePf/nstF2LLaB4a7CTkgKJFkezYWrmGnMP0Caxj7rXmc9Y5f7Y4cYr3psqq4qgsgEvF1iPsp/x2McIxMfW+Bt4BWjNcQfg2/LWgHfCT26g/A26uBgJahrPeCO7Y6OVx+KTpZ1tGW8glXLsu3qmWunBtRs6qHxl8axzxidQ7wVe9LBvTkiMdV3KOUzaOM7Hv5Wr98JiuNRIiZI7DXVyr4j5vV9bGPI1zLF83uG1dnmwkeANxbnb3wySZGkQE4NQmpuiHMAQ+BxYAo8iZnMjoU0SaL2o8WdfsGtrFxnuT5dd+xv7lsD7heGHfIYfcXjvUzgd3+2jTuSNrG2s94SawoWxRpiFbO2ePP6zkl7BrL+GF2Ft6/im51rNTB7QB15WGgsu9Or4BGbuuSarG6RaT1TPDVQLT+JRQZeF1qo91MWwnEPtCPjxlSVbquHP0bXhTsO7Dm4+TZnm60xm10FS7WTeo88as9JwqNWILVMcT8D/hbQe2xf3L9VUjWBefVnDHI68ZjG6CDaQnfBt4HXbL4o6QWbLcSrMp3Fm4lU7/6t11YN+5zQKOJJ8BTwNsMF0Dns0a5Vs99M39+c39u5j2IMAnX8S7Z+XvDbwPYhuzETkgXymBTHXAvwsO3RPluuzgIjFa1/ejmvfaNfhfXUdx3FlkExEOGcY+Cwx6DrttiU2DNaxd4VrGOvIa2A/xRpA7wZsqLcucdIfELZh9hB7DqYencJ2WR7hJjRssS0zVBGfVNHmsg29bVBW4B8q18NZBNz8Zko819x+GN4iPBve5thU3BrZm5hE7G1lIoPkwI5affaMCW4gvkxxKTwGQ+KPkd+pH4v68Ky7K6tQqFXWKRRFUb8BYc6hjrZea/YbEn8EtIa8JyhvTR/PXEcPUQsBQbblezt7dgyyeIoT0qeAH27YVT4fUI15FpVWy5FJf0qbw1yx3LXK3ZBAbl4x2GOwUT4o4sS32f4x9ivAC/xEJMeEpICebyuhrmF8+ARwd9yYCSdBEYPoFnKuZRd6k9Bj2mi/x2KgpdRj4xDG4NdiS2sNYkNzLLQDvizGdvqa8B26FaXmgk9KmSxg45hRWIT/Juyhi3fxh6RdNZmXNKU7XHEcD+rzgPsh8IGJPdx4WCxLWTMtHgYY+Ch8Ozy1xBvAxozzdbW0vz1l9PTkBTI8V/QcBGYMvw9UENiuNK+P+i1yRdedF9XHosuPKQxMpqJVfBLRp+T+KRhFbOaXAiPD1E8aTn7+dpss1UTGrWYwjwleBvmmqQGeBhVuDgLT3H/0fCAhyh7hBQlZyvSJIc3xhAwZPlD2RdsAV8EkgJJCuRYWhzdDJhnMj/0dwNjmeKoPbgmegSxgsFj7Bj2QkEX24jPAJuYu6ANYNN4FbOrZG0cRXSAHWAF8SmblyX+HeaMpVGZt4NHkJ4KlCsaY4CdAPsrAlWec2/P7psaoxfb8Qcx27PN1pDxXdBvYbeXEk18UiDHwuKQaoaa0EWbr5V4mlCBnFsAxQKrXDOFuAFDzt9E/vxSg4Z82PxhjaHgU94FboH+o/CzSJuL89fvphk/BlZJSG9tZ3+2usdnm60JmRHLbaEJzFWkYd+D0L+fnL57URlvegypuzm7kqWJbwKvYn8i29QkBZIUyBG2PJoLw7LGsT8geJfhKmLcaCjX8ShKV8oL7ex1LtBdtXxcKuQqn+dCp6X7HEPeEdoxei5Lv/13oI2sPmMPs+XEknrskWXMbYF+MWuP/Ksyo5LeDXyN7aeB8dA+IHqUVPFYFaR76dEqsOdnJJjVuuTNjhFk21NBmTAL/PvZ5sKzNneWbt7YSDOfFMhRUhwEfiMaFiMyb0E8gZmSGe2zzMYL4uD9Wbf5UeUuLBeBHywd7m8MgdzBdLDa4J2QRaU/tX1LeAPYWbyZirVOCpb6dRPrs3MLABtGY9gXkL5U0jZkMQZTD/WBruH8U1mS9bFe6O5jXNyzuPpZ7Bm/b2qMWkYV0yBUvL8BjElanW22aoTao/QAJAVyFLZxDEtcxDyD+GGkUWA4S6XMx7ULBsJARsJsgXV7dWvA573UyAHfcc9jmA6hCnwZ+CXwq5ZezMz+LtMtD9x3NuHou7lu3gDYm2221o3+DVAz/LjwFZsnhL7T9jngoqCeuTZLSqCfNSXkbv+PovXRbUo1yKGVpeu+yTEy6/8M0g9gvgf8vxn+QNKniFx5CUmBPHLMNltgRoxHBReQvsL2MKgeLJIon9399p8qepI8uA48NtH3rcutyNPVAWMg78nqENqJtgm7tBVJq5hNm13BXqoSP2WKJMRL9mabra5lvSW0ZvwGIQ4W6OhDi4GapKH4wbKrN0z9PUv+5LhfZC6TfB9X1n2NEd7XA6cbU8jnjV+bbbbqwEaiP0kK5DEZHq6DngRdsP1PkOuoy9nTZ4QK/Sqiq2LuKMdbqjh02UuVrfQNV7f4ib+9wGlVMYZh3WJX1k8Zrwl+GbOX6CASIkXSAW5lfz6eUfG82/YE6IfAo8DFXEFqjoG3sJuBigLD/MPdc0fl0nnFmxtDNUMD+XuA75H15YYvSPxcz7pOSArkUWGm2TqDGUa8C3saUe+mEfYYbRVbGnEuvPvH5LxHqntdqWI8CzhWBRp7SiVeUurRlPTGsLuZKCuGtSAUvAl6DbRl2JNSYDxhX3RsVrPeHL8JfLntFUlToDOYIcuNXC/5mOLAoU96OUsw/3e8Scqb69laiDiA72cMgkXVMb6c0ei/PDvX2l68ef31NLVJgTwyyFwFpoC/bxgSqsfCPdf9QLktUu5YzqmlAk9VsRBwgMNYKhnzufMjwpF2FhR9DvgD449jVhB7S8mMT7h3q+TV7O0Ls83WhGHW9n8DfFDSlFFDlJ9ZVzyrOiCNN254m19f8fH7HqOG+BDQNl4H/RmQFEhSIIeP2bnWxYyK5NszBdJAUXGgc9b2gfVTskrF3xQs99zhQnA9vrj8mTMXhHaMXwXuGH9a5nWkZcymlIr+Eh4cDr1cbgl2kf7E9ozQWeN3II0okjHFLKs8jU71Gug/5kaZSW9FBodKG7v7GaMOejdibbbZWrO5I/ESiRY+KZDDMz04Z3NJ8nuwpkOIoh+vUNH2NlTZJRWGRC4IqCpF4mjfFWVh9Rh1lZnvdiHu6F3gZdBnhH8RtLs4fz31l05401iav7ELLM82W3fAz0taw1wSukRoz1vPcSJWPLtxf5D4WY/N9NiKkAdstO5/jJrQO4w3DCtIfwR+qe97TkgK5CFhZq51Bfwk5v3AJYcMlJIq8AHap2oPV+HwLXbti+isB1aGRIknwmIZexv4WdCGxGLogqdt5GR1JDxsdAjB6OeBV8CvYY0BP4gZdSjoi2T9wbxY5Q3Y/ezz7mMMNAL+APZFS2eRPznTXHgB6CROt4Pvc8Igd1Wz1d291BBP23yL5PfZXMrdROU3PCpsgHq32r4fjodBq6L8OjuQZa90sjFfFWza/Kjw5uLNG6+lGU14ZGtnrjVtGAH/I8Gk4ensoa3lCBLepPB6uGVJuhMaVPF/Cp613M7qo1gKNTIJyQK5D+UReng8gfxh0GXBLGhIfbu6Zz2oEPTQQPW8r6OXUjtQFXZjqrBewsm7wK7gWezPIn0Me0NoM1GpJzwGrIbYoD4cepHwtPHbZb4NNCZ5pBfMsCqaWx4QTOw2OtOAtdFNXb+PMWymgUngnOXvFvykQ8LADom2JymQ+9g9AdSMxxATgimbccMILlgURfXgghsqUwY5qyTXNVyRzii6s/JjdBs79ayN8OR3JNqGLZlNyyugFeG1jOwwPfgJjxxZ8WkH2JhpLrSxViQmQauEVGBQyF503HSm5MIa1HGtv4Jybd/Jx07Cz24U/cAx6g4Fh+OgXexJhaZVd2fmFsB0ln42WSJJgRwI1wIfEP9CMAl6arCx7MKPWDn0d0ounG9cef3gAqv8d/QrcbVq+AT271l6VmgL2MUicf0kHAUIbRs+IfQp45/Beo/EN9j+DkvnyFgbyh7aQWyKLmzYXLDH81zC8Vq7lzFsnwXOAv8LsCX4m8A6YifN5v7+lFOPmdC7/AlJE8BPAOOQj3mUd0NFlxL7KJv7ueXlMcJujT3EHtYbEivA79q8IngB2F28mVrHJhzFtbVQQ6rLXHNYU+8XnDFcVujZ3ri/NVOopH3g9TbwvBXbO8APIdYwiwhSYD1ZIPtaH6Cm7WmkpzRAlMcdn2OCkP3LOVTxPdUGenGMguHeDjUc/ASwujh//RNp3hKOOpZu3ugyIbxAKEJcBMYFH8EaN0wWlYIqMxuL3UpU6nsTr7fYEsm5jg8eYzqLT/4IZgX4fuE9UjwkKZAqzM61LhuPA1dAE6G+omKvktGR9PuO5wr3Su/VK/TLmjP10tM90EAvjREe8k2JNvBbWRfA17ATo2jCMd2rBbeQ7Z8HfbnsD1oMZTHHUs8b9f7u1nS4n9woIo65/nqT+kpEUVpvsdRk0BjZGj0DGhZ8M2h1ttl6HnpV+UmBJPR1COhrgXcCI2VrwAVmW/cf5NLmxbmWHVIUBO+ZFUUv7D5jhNM3MFtIH8GsL85fv52mLOG4YvHm9ZXMtfUzEuMEyvgJ7CnIxzcq3VZxtqLzjt64cLBoh8R2/UFjZK0OzhlPIX2v7c8EV3FIYEkKJIGZ5sITQmdtfwvoCUIDnYKxHIfi4nB2PgZSDOf1WHXjIj8PMsgHjvEG+A7m14E7WLez6vKEhGMPwbbttqSfND4j6f3AE8AVW7W+bZBfHXIpFYW8PVFeZcXXxev2GaNuexZpzPgO8BqwmBRIAkITNhcz+oWL8YOlqmrWzP6NCd0KnT76riwXH9CqmMcBY4h10OvAp4xfF+wuzqd0woSTYonc2CXUMX1yttk6B0wLhsGXs6ZStb7FXh3yLqWyqEvxQ2llFtegctW/A8eoC87a1CS+PrA6JAVyqhXITHNhmkCx8O2S3wcaz+1Fen00qKBXj3YpERtW6VFWzLceER3uP0YHtAN6ReLfYr9sdEtiHdN2aguYcEJhsyLxf9j+JOiXwN8NXJM8Dqr3bX5RTjPpKot+gaBKizd/LHe9VPArVI4xCXwH4sxMszWF/cmlmzdOLZPvqVQgodOa66EVraYM05jpHpVntKXxQRmCJus9QLnXebElIPH76jEydty9jOV0HXQbdGfp5vW7SbwknHQshRT0tZnQLbCOWZXZBEaQa1mHxHKbTvU1UH/TVmWjuMp3VWheFX1XeYxG4MHTpMRXWBqZnWvVEXunMah+KhWIzYjELNK7bP99YEhVjcvfzOtYyexnbxdf28tGyxL/o6Ut45VEuZ5wCrEqWAXdAg+DftL2WUnvhC4zSUy/W8iI3IdAsU/r7n0W7/5jGJ60uSYxgfxHwK8BG0mBnGyXFZhhYDRrQzstacj24dwH3UfhoNkFOkivY+4Cm4Kdpfkbqd1mwumzRDIKntlmaxdrz7CM1La5DNQkRijFDu9tran0SvucVz2GQlOqhu1J4KuA8dlmaw/YOk2WyKlSIIaaQpD8AvBPsn9/o5srnjMEciYEfT9TTGql6t4eHvAI7jeG4HagSvANSXuL8zc2kxhJOO1YnL++ExTJwo9jBX46GDV65t7ZeHXgp36Az7ITPij0QeP/ZPu2pI9xitJ7a6fI+hiWGUU8A3wDuN5VoLaDgrD7j4uzWEXveCbsu+eIymt6zZxy37nvGJvYq+Dft/0Jh2yUREWSkBBv/kKbgo7Qvweex37D9ppwYa05t07La7F8DsXvKJy/7xgOPF6Ytwu+0fbUzFxrPFkgJ+4J1Dh4BOuHwcM2Q93Cvtwuo7KwqGLj4VwyVr5uI/rOg8aQdNf2qqWfBi8vzd/YTuIiISGPpZvBlTvTbP0zmTOIKdAFgguJXo+ROO5dsZaLLW/7TA9UewvinJiqMcI5NUnfgd0W/A5ig1MSDznxCmRmbqEmqYb9AdBbEKMhHTDvhSq22VD3CaxwU1HsPT7ASNb+Y6wJr2KeBT4rs4qULI+EhIOxifmo4bKkPeELoLPFPujKKNyLSziuWM/qTMp5LvHuEKGojULVGJEs/W7juzPNhdeBvazlb1IgxxeqZbGPd1l+AmuYjD46PEyKLAjlepHnKUXyD6CjXU4cz1Auy3yfMeQNwy2Z30V6HthLvTsSEg6wRMIa2QI+Pttsrdl8OVEJS8UAACAASURBVNKw4GwuQzeme7Dj6pBcm51Sv6r8ZZWbywFj1IAGgS/rdZmfztgikgI53vAzQhcNV4WmslzyHuuUcbRDcUTIRr+rWY5vt/+3o46B3TMcFR5VjSGzhnjB5g+BjxvfybJMkvJISLiflW3fFvxLzOctvSz5A8CZ/Iqsch+o747KpfOqVCBcojtVYWNY2Foaj8u+APpRw6eBf5MUyHG2P2Da9tcixm2P9h4jxZZGnEPu/jE59lj1rytUpbtUo+SBY1jsytwReh3xiqGzlFg9ExLu3xq5eWML2JpttqYEIzbPhGWmrLhXhWzHQmu2ItNQrsi3T/veszZy7UYHjtGwNCr7sqQvnvQ5OLEKZGZu4XywPPzdkp42DJXbJ8d9klXYhRT4rVTgqaKq8LDIB5r7vm3Qzxh/3vALWbyjkzp6JSS8aUvkRUkvAcuEvub/WNYoCvJNB6Txxpx28an544W1rfzJhTGGLT0NjMw2W7vAc4vz119KCuQYYLbZyv5dHslooceA4djXWfJ7DrJerFzGRu4Jgn0pTuIxDNtZ344vCtYWw84pISHh4VgibaA901xYF6oZb4bYpMZzlEMD1nJ/Y2mUuQ2syOAoBuGL31UeoyZoYEaM/4rQ6Gyz1bDZW7p5suKcJ06B2AxJngI+ZPghieFuAFtFm9UVkr+oRArnuuJY/+2AMeSfAb6I+GekWEdCwmHh+SylFosp7I/0I+YqhTtyJHTOWxHygA1jMfgeEaWWxoBLQpcMI5g9wavAiSoQPjEKJFgermFGbV0R/gpQw+4WS+qA6o59zIkKRVF9TaGiXawBu6DPC9axO4s3Ew17QsKhWCLzN5hpLnSANZmOpVshNqIz+675ByS3zreDq5QfNVAHeRrriuHuzFxrB2gv3TwZcc8TZoGobvkJoR8zTGEPx03LikwkOcenPYC3YL+nq1sMOGAM9ILhLuYXFm9eT26rhIRHoESA52fmWsOCj9h+K/B3uZ9lXVISgzwO9+QTqQm9B3iH8R2JbYciwxPhiThJCqRh8zTSJWBKaCRP0JkLaw+If+zrIKXURrOXVF4aY114w/Yfgt5AiZokIeGRbiXFHvASIXnlGjAlcTYv/Q8IirrHFpFzSOQdFO4HTKzy51lmFmIE6xuBceAXOSH1ISdGgRgPSbwfOBtM1vIDkcvCi5RBzirJdSZXpDOK7iyVe6H3n6cVzOuSPg4hVTct6YSER4fF+ett4LmZuYU1wdcinrQjBRJvGF3dJ5RIEuR75+ZjJ+FnMac/lhMMgYckvQe4KvjYSVEgJ4JMcba5cAVzzeZ9NrP52Y4IDcn/7BLbFDsre8D1OSK26nO2jG9hPwv6iM0dUqpuQsLjNEVWDR81/Cbyc+C17ppVKdul+r0copsiImiMXue7HvbPK45h+xz2FZv3zcy13pMskKODacEk0sXyLiJnb2ZH92sxOOA5rDy/NMYOaNX25xDP4dPZpSwh4ahgaf76FvDSTLM1KfR1iGlCW9rC6tVA30YsBcohc1fKlOqecZrIFNLbgP8H+ERSII8RM82FEVl12z8CTMYdjXN8VQPURrFTclElDDJsy2N4F7Rs85zETwlWMYmeJCHhqBgi+HmjW5gPI57CvooYDnKhKkPTJQXj0ka0f7wvFwou8F45cs4W+e+A9Zlm67cxO0s3r68kBfI4YGrGdUnTtiftLkOu+zTNiv2clN53A2TOmHfVS+suseD0H5/CGA7cOrvAhmEZ2D1pBUMJCcdbVmhbsGP8F0JbiE4c+og2g3QdVr1eIuoTczviuevKjW5DOhVslGKpSaROJi3qgiFCsD9ZII9nW6E58NswZwVDefbcqJlMaWMRRTmyB0M9JdI9J5/l7UJALRujg3QH+3WsG4LdxfmUrpuQcNSwGDZ0nZnmwv9q888RP4u4gLkW6jVK20RKWZcuuq76hYNFOyRmyFK5L0ld1hjiI8CLwA8nBfIIMTO30JBUt/2XEeO5Zk651/kYiIsPR28XEZmpHmTIxqF1A6FDGmZZaCXsJJSsjoSEo7znDKm2HZu7QAN82UEO1ulvEXurXC6m2PRlRbV/ovy6eF34RtewRoRHZ5qtcfDu0vyNnaRAHslTwBQhcP5erCfL8+ocEVqh00fXeinMrAbEPCoqTYOLa0/WNvhHDBtL8zc20vJMSDjylkgbYKa58BOYUeAa0qhgvO95qE6pKaXkZJzwVTHWoixRrsI4NKAyXAXVsT8o6VVgMSmQw7Q8mq2uOXnW9jVgVHKZq6bA6V/9SET07ZmTM99h0Jn/0kWN0r3kVdvd1pXJbZWQcLwskV0H19Xz2JOG90A/vqlosVf1/VBUhKiSgMgfy10v5fwjhlFZM5it2WbrFY5ZY7ljVQeS5VzXgCeBvw1MFyszTL5so9vQyQ4xjt6fTMX0jvfe9z8n+66qMYDfEvy8YHnp5o21tCQTEo6VJbKN2ED8C4mPCnVAnW5VWJAj7q//WA5kHo7cucQVILHMif7En/XlyBTwXYivB4bx8drUH6tf1mYS/ATWWxHTgqGSbXkvr2ODZD87teJ1Vhy4CfwReJmUqpuQcFzRwdwG9hCfwJ4WutwTEYqS+xW5H7QfgWLXfxHTGzHwfOM6YsTmCcE3g58nZHImBfLQLRAxDrpmc15RMVBOIRQ0Tr5p1L5zSYUlWvGZV7MJfmXx5o07aQ0mJBxPLM3f6AB3Z5qtPcELSFcwl7vrX3HTDw9QGlXcV6qgjs93qqI/hmqIIeAc8E1IbyQF8pAxM7dQlxi1fQX0/eAzceZUb1ai9Nv4025LSqGMsqaflKssmG7i9pTOmknlQunbwLbQryB+H7OelmBCwvGHYAO8AHoacd72NGail2iTaQPlsrSySIjzhYW99rfdz1GBiDXSHo7ThDlvMY792dm5hU2j5aUs4J8UyEMwPTJCsnHwBbquK4omYvm9oz7HQTH0fZFdK6UqCdhxAq+MzZ7QtuU7wGvoZJChJSScdhi3Zd1GPo+1jjRGrAiKMqNCWrDv57FHpCCn+sdGMCPAhGEMXIejz+JdOyYzPAX+MeDbESOIRlevxHGMbkFg97hUOCfeUIjCRdE19F9ntR5tSb+N/Hcwv0+wRlLsIyHhRFggoTZE8ALw32M+JrMuaKsiTqqCrFEsf2KZUzhWkkv5z2uIGvCdiP8ZMT0zt3Dk5fORtkBm5xZwKPYZsjSJPSpUA2MV+GbUD1z1SwaVqxzt5mI7al5scqTNXVqSyHrRnuRt7E3DOmhnaT7RlCQknBR0CU9n5hbaEhvYG0YbwDAo26x2KU6iuo+4zYP6RCg9eaOYX6+CaU/FunaDNGIYxx5GDM00F3ayJllJgTyAaVkDvUPiAvDfOuKoQjEfTTRh7ncJjBVHkfJfmQJSzOufcWG5910A3AY+Yumlpfnrr6TllpBwMrF088YusDs7t7AA/B7STxhfA9VCuMKF/kCRSHHf15WrUY7qy1zhvrKiziNhjLOYs5K+0/YXgH8FR5cv68iaSDPNFqAa8ITNV3dNTUX2X0+nRzZj95wejYmjlDp3udEKtO7OZ/Rmk9kB1kLWle6AN9MSS0g4FdgxbGDuYJaBPangB7f6mVmOZVD3HPU3qu5Jpiwe3702/ln4Dvss4muA+szcwpHd6B9dC8TUkOqYD0uMErHkFrn4ezuBbKLicyIetDxpsytq052rHG0Dzwt9ZnH++q+lNZWQcDqwePPGCrAy22z9htAt7L8HjMTniAJDhZ2TQ7Flol73UvVJXvOyrijOMHwQa0fiJ7F3CXHXpEDuGaF/8Sh4AjTcq/vrpd3mXIi5CQjZcuq9jj9X1LtY8XUibnPeJvBc/a5FqvVISDiNMK8ZrwPfA3QkRhURrvYKBZ2PnUb6JCeU3A/SDhjOmQcFMA1kDNcQGxxRnqyjbIFckJhEmgIaKlSFV9b59eIihQAX/bhG5cWKPwdgV2IT9KsmpesmJJxSDfISog6sBko8jZY2pSU+rOLGNQ68RqSKUMmwFb0ZAtWFvxHrz4+qAjnCaWJ+l+33F5WcXalssvlRv0V5cUIKLY+LKdnq+zM7Ns8aPmbYFOykhZSQcArVh9TBtIGPWvploOMD3Cb7fVbVSlsVHpTIo1Uzei/iG2ebrcZss3XkNvxHOc/4AuJynuAwK+dx/lifvMyh6C8+L0q8i78LKr4jey35c8BnHRpEtdNSSkg4fViavx56/sDLmM+U5EZRdsTHXDhe9d+A490xQs8QP2F8wVC3feTk9ZHTaDPNhSeEJm1fBp0XrsXuxDhVN6eui+/jn4O4sHruSXW7Ed7B2rL5NdQ1WxMSEk45FpHHgY8LJg3XBsof+pXrA/pLlRJ8KuVXH6OYaeRvQ9wGnksKZF+7kRHwhGAYGOpx7+d6dZAvJ89xzXRfZ5/ntU+1/ZhlbdlsZ+m660Kbizevp6WTkHCqrZAbANszc62G8BrQyEmiXlJOPzmnJ1oc7WBV3s3mWm5Lgza89SAHmcZszMy1ALN082gUFx45BSLxPpu/DkwQtShX0eiIM656Ob7R1FQES/Lf0Vc4ymhJBD9r9CJ4czFVmyckJPQkireQ/iH2Own9iBqGRt/T0S00G9AfwtX9TnM8GC4KuG69mscNHwZ9TPAJoz2OSHHhkVEgM82FBqhh+DLwWPjd8uSGyldyQESUWJ0b58KPAqOme13Sd0C7whvBAkm9zRMSEnKKoANsgzYRq7bHMk9Jf0OavRLFBqYaIKNc2Nw6Z4REZIw1mWHwiNE4oQPqkagLOTIKRDBluIB9TdKVfc4r2XgapDgGdCkuZUPYrxq/gnhxaf7Ga2mxJCQkxFi8eb0DrM02F14FfUTiXaAPUNkRfVBfuoOaEOW/KSqYroMmDJewPwR6Hnj5KNyXIxPVN0wAVxBj3Vvqg20Liuf29wDKXe8qNWN3bO8a7oA+g5V6myckJOy31d3GvmVzB3sT087LnijjM/pJr91t/McFynflrnHhuGAM8TbBxGyzVZuZW0gKpH/ndQH4VuBMt4lwv1K8glc/SpuL3/em0YXruufF70Vb0jbwaYlfRKymBZKQkLAPNpA+DlpCugvs5F1Wyr+qyL7qM/WpX7vWE0ndMyPHVzfJB0+DPkAgl61Jeuzy+7G7sGabrSFg0vh8pkRGY3oZ7ZPzpsjiiANRva6Clcon3iewAjyH9LrNjlKPj4RTgtlmawgzjDwGDGOmLDXAU1m6/E6WlbgOuiNYRXS61OenF+5k2Vevg34V6UOYMeGSROq5twbm60Y91iPSviLJe6SIGoIx46+WdA1zixAPOb0KxHhIaBp4C/hMlHfV0779+5cv/o+PFTsJQtFt5VKICrQG/IHs5cVA5ZyQcFoEYSNQc+gsMA5cAr406wnewWxKrNn6Y+RdW2vZhad6k7UY0no7M3MLy4jfNX4HdGO21YUfxW1vUVrJHuCuL5Kd0DBuAGcNlxB3T70CEZqy+V7ENcVtvPpc7X3TLvSXrfyW/D3Pdfoo05rgPYfGMbcsPg4kqvaEk2xtDNsMC38QNIH4epthiRFCjUGd0FK1DhrJFt+eA43HNtay8F1bPzvTbL0hs5kFlU8vxLrtbeBlyRO2Lma1a7ltak7+9PSBSudUSLKMMFZR2+2uXeOrssdAr842W6vw+CzDx6ZAZpoLXaE+jDgvazxHj6u+JdLtBpZTyqqoRs8ZL+5NXHm61JG9a7GFWZFS2m7CSVQcC91nvoEYwvoa4zOynhEeIhJ4SKhU6Naz2cdBZ7B/HevOvpRPpwRL86H51Mzcwl/Y2gB34uJm5XwkOdqLgn9EJZdXb2sdFSEWWlKNG2qY4YFMGyddgQjVjaeFLmK/21DPZ9+6ryicty5KSqPsF+spEys+vzcBG5J+GvtVSXtpOSScKMUxt1AH1bHfazEtu6kQW5wC6pkbpJbfJsebttKeeNJ4AunD4Dug/ylZ7b3789vgV4GfNhrJCafKW1mREFTa/B4wH/Z4lq36DnBd8DyPiTX8MbqwjMwoYgRpSFUKQAXLIqfBB9h9B7/uMmyuSWyloGDCccfMXCvrgeO6pEbmjhoyTANvMZoCjyj0244sjUIgd+COjFpo6+pxQdtQn222aomtAcA7QhvGO7LbiEbvDpcURkUpgaKCA3Fv8xGyr2qILzWh7OHUWSCGYYkPAV+rojUxoFHUQV9Yvi7moekZIeuIZcEvcoR7DSck3CdqSOeAp4C/Dn4HMCkYQtR6rpW4E5sHLLiiI74r0MQ7be0BP0KohE6JJ+gN8BuCRcRmsAqoqeQlUVme6U3OBzwlc97Spx7XXDy2PGKhGugttsdzxTPOOnx1s6+KlOzR5+FPVuJB/L5Lldy/59l1ncC4ywp4L1GWJBxvy2OB2eZCQ3gM86Tsa8DXgacNIyhQgOfWhbrrpVj0ll9jcdlUvC6zI0O2h6/94MKpn4Olm9dZvHkDo7s2y1hRy4gQ3ejd+5w8eyjzMYY0CTy2XiGPzwKxh4B3C432cgzs3I2MazgEuULBweZJkS0r9+B3MP8WsbI4fyP1+Ug45ptfQUjBPWfxT7EmsM9XL4X8mlJBaOXWS3S+y+urhjSF6Si0Wk0IN/Q3QeO2vw1oVN47+6HOh+GSTBs8SiiIfuT8WI9cgcw2WxhPCaZAY8BQN8mqm67rnnu2X5EZJVeV629iqy4i5i1QmLWz2McroPTgJxxv66PZGg+WAN8F/NeYKWCkGCKsjMtWKJjY/R4TyKrC84LdBqUNWP5GryBvIa0Kho0nqjpIPNT5sGsOyuq88fDM3MLLj5rmvfYYbjQyZ7ICpglg1L3yD+WURzcNt1/Hof4dlKJCwu57Rcf7nFhZMu+ugoZ+QUeEiCwh4YE3vCGj6izwPwA/gDgradwRUUZfFEX1VT2eOIWwRohtBFdKtH7cix2Gcx2lwCO1JXaV0nkjV9aNZczrmLvYaz15dpjzIepIdYlLwEUew4TUH8eTDzxp+y0h97zby9yRZSHiUsB+JUec0tv/3FlgKe5WqKimJDvvBWBdsJNZIgkJxw6zc63zwAT2DwqmLCYE9cg6CEKIilrozOfe60JhQo2V4746+R0yuc+1I7NreT1Z8RWiTerY/g3DWwiV/Yc8H1ldu/l60AriF06+Agl36auQp1S+nyWlQaRKutWcsTdQXU3fy4RT3oXlrlXjZcSfC9qL89dT9lXCccWE5bOyngHOyB6OfbndtSBF3AtW2YeSnZNbl72dscufh5PaFruY7cWb13fSVBRFmztCr4J3nN3zQ52PsHGuSZwli7ucaAUyO9eqhwpKPwNMGddUzEfPbkw+K7efjuuYpZd8kL1LE5A7R2oLOka/gX3LiTAx4ThaHs3WFcM7bH+LrMvgqZ7QsPN+9V5HTvVJRUuCh1L+iYoFcHZubUlaBtaN0wasGh3E79usIm4bj2AmD20++oevCE8ZpmfmFnaXbt54ZNbhI7ZAXAPVgVHEaE/Y97Q0vb7CxUBT18OlbLdlKmoK4za37hEFdGzvgTaQ1nFSIA9vQ7CQD/LBkenVfELcVf01Y8Ykv8Uh7nGu6zMnL1tyi8DdRTKgjqpr20vF1txZqnxhDMwusE2i/qlE9uxvzTRbW9jboaiQQ5uPaM6HjYYFQ4Et+IRaIIYnBZNIk4bRronXv1Eq19Ao/5Pq0zLLMHJ2qVsbwovAG4i7gWHU6Ul/eGgghg1DCrvhNVJx2cOyOMBuGF0S/JDxJaGrUkh8KfK79ddHlHuoiMQPKtmWiussXmAVlH+vG/8xThlYBwi6DdAC9oyk7zqs+SjM+bDxd2HdhkcXC3m0FogYtZkg9PgdSAJmMzChoPKzyP/bs/r6k7VtvC7cXky744cn3KBmexTpLGbEeFhobKa5sCNrC9Gx2VLoIZFcHvd3f2sOzLjnwGeNJoGR8nrVvovtAN7qypT3/a4w7CBtk/ZgB7uyYB1p2+4Swj78+SigJuu/MqyfWAtE6OsRV40bRYu7qI5ddVxF043qtuf5Dl8vAb/jI9KE/oSgBoxIehr4UYszmCnjW1lb4F8HNsHPZm6PtXTL7mMDazdA45L/KdaE8Wx2vFTclFsjFWuFCgE1aGNGhRGT2wSLz2NeQckCOWAGtyT9FoHtuJPVlNce9nwU5rwh6ZtlRoH//UQpkNlmq46p20wizshZ2qGjrl3x/YnZjykWCyqqSGdwIbppS7SBv5C1hlLq7puex7kFjOq2R4WeNsyAx0FD2VyNhc2B3o7ZEWoA2zPN1l3sLYlNo/WsHmc3kfHlMdNs1WTXgHcaT9hMg0crn+9YlriiYacHyJ/9iRsGHNMO9o6lNYW2z2neDrRAvIu1ZVgBjWGPPLz5qJzz4BGAsdlmawKz8ygy5R6VBTIU+hH4CcEVoK6oMCYjd8mnqeVe5v1Wyv+VJxjrv94BNoDlxZvXX0/P9EOyIUXD1rTxPwBNCvWpM6SpLOZ3PpuD78NsydwCvW77M8CLiGWcBFGFc6IOqhn+jkKW1ZVSKbic+WfdSzjprQRH21qVt7i5Fs9S9S64eox1W6vArcX567fSTO2PpZs3OsDWzNzCCtKrgov9Rl0PZT6q5ryGmALOgM8jrQJ3ToYCCZbHWdCITa1IT9Jr/dTLWusrg4H9o+KMq9h5SE8prQEvg1PB00OyIkPPFv8A8FeEzjlrSBTf/4r5GALOgkcQZ8B/FbRl+JPZudaOQy+FHcQbmPbSzRunrr5gprlQE6ph3ucgAC6HJBPllULOwu41vCmroZ5gKvo+eiVr+d3rwWO8JvgD7PW0Eu5rQ7Bhs2g8Bpx7iPMxcM4ljYCu2n7lxCiQrFr2gsSIg4kepTY75xAsEinG3YPVz4zuX+NqO0+wbvicUuObhzOHYd4aEt9qM248nb/rxSY6vRcNAu3GFA7VuZmCecWwLfQrFhuCVeMd4BQWqKlmXBf6JsRVzIWQ1ebCJotceW33VTH04Uqnef69Iol14BjyG1ifcqo+v899M5sSn7O5+lDnY785t0csvZXgajx0PCIXlqdBbwdGS9WUhfc6oD+jiv4tKtu0YGsZ/Ingg0x48N1xKzSvMX8X+AoHyvBGrnanej9UsVByGT3nZfYIfGht4G9L2phptpYxnxfcRX41S4k8kT24Z8O9rQPvw/omw3vBZ5DqUSft8p2rWCfVvdM0WLRVrLiKMdYwrxsvWX5NKCWi3B/WbJ4HvhG0IzFEJf/gPc/HgXNuM4J9Bfi/T4wCERrGjKMQPC9rz8E9pPb7XAPEU0Y0ti20QqpLeLOoKbB+vhXpPGicELDLaY+D5qMiQWgkezEWXbMOniTUl9RAywSr5KTuUBHUHJTGVcEZAj07uY7kuW2TCvfakROkv1rK1nosiPor84AxdhFrQhuL89eTJX+/ck/aBdaMtrPNUiefjXXf83HgnIfiRY9jDZ8YBWL7vKSngLHY2dezRnrpifk83fzn5RLMSoNQbMq6ZfE54C4pUPvgu2O7hpkz+gbw+7DHkGr9zjbOKmwHz4cyjn33aZajxjnd2p0eEea4pFnDVcMeYdHtCV6anWttAb9DIPJ7AdhZnL++fWzvLTRsPxX6jHNJcN52vZdX0icwjFQwfeYG+h70eOeao1CK7niP8TVabwPHCC6VPcuvyPwjK1nxDyj4Oki74M9aehb73SHR5D7n4/7mfBh02fBVs3MLY5Z2luavH1oG6qEqkJm5Vk1yDfRf4mC+5f7pxYSRoqcv1hsVOW/5HW43EKU9xJaCgEkFbPct3Ba6IqchMWx7ApgEhrO0XMqxqqLnPR8YVG/XVGFB5nmAapiGRAPH13gyC9hPZc/QpO3t2WarYbuN1KH3k87SzetH9N62ut3q6gq9cMZtTwIjhkZQHlHg3GU+uD4PkgfaeBqYH1pspDNgDLmTZTFuI23KTlb8A6BbuDwzt7AD3gTaFGK+9zQf9zfntczKaVgayuqwjqcFIhg1TGOfIfi6y04qD3jII+2bN/ZcYQA6TsBas/3RwIqZ8ECzZmrAey2+F3gyq4gudHeMTe7B85HvoFacv/773Pm5jDsBXMvePZ2lMXYy63IZ8aLgC0ifMGwarx9dq9MIhi3OAT8lM+Uu7XfXIWEP4NYT+xcNuPJoTtnf6xhmQ/IvyPr04s3ry2lNvGm8gtgAPYk5e9/z8QBzjpgWvNOwyCFmY9UPWRY1hMaNh3o067GG7T2vhRhHTDjWDdb2zh9MCGA5FPCgVctb6bl9IHfjiKTz4PNCU8bDPYuxGJAq7AGqwn9dGzvu7pIPiEQ9XO5ljD7R3BAwFpQbQ8AueEvozuxcq41Yd//Y3uMuWpydC/QkwlcwZy3GgRFVMU6V72LO3VcVUi3esty9vOcxjGDHsGXzeT2iTJ5TgB2hTcOOxC4OhbeHOecOHp9xDpnmvX7Iwmhc4iowGTdCyWkPCVX1doz600pVjl0X7zSgjkLx4HMmVZ4/kM6XzgE/jLmEmO09kzka/cyYVr9npOM5qcyAcGnaot3SvY+BkahhJrEnJa5km5AOqCP5BcOG0O+A7wi9aLzNY04PNm4IDSP9OHhC+Grsn1V0w1RJs2fKpHp9kaOcDRhTOdzHGKZjWAXekPg50hp6KFi6eWMVWJ1ttu5gzmX1ULVDnXN70uLtQq8cYxeWhm1/JcGVVbC8YiXR9//174yjKsz8brbiXgLuYK0ar2e0JSn+8UBKn11gGTSV3cOuTzWio+4G/bqbgN61+3MwZZTUVdW3zn3HA4xBKFC1OSMxbruD2HBwf63NzC1sBLeXdsC3Je0R4mSHej9n5hZqiBrWexwyzM4RYh5l94RdoXiJgoEesF+tcgdTDC7uO4ag7TDfHwP+HGvXaQ097NW1ZvXWVuOQ53w0WLo+1Gysw3ZhjQpdsD0W0xjnlG3WMVCU7LHq8wcUHhjvSdzFWlucv56Cfm/C3Ab/CXDe0M5o2mu5+66YS0Fl2/ug18VmLlWc/Q82Ri0ThzUA7wAAIABJREFU0AhfyvrNdCTdBu4a/77gi4YN4x2hQ7dKJNUxdeBvWToPXBCuV1bLKIoqKW+ll//R+QXQv6WDmEb3H8OmjbQr+NfGW4vzqePgw7dC9acKrMqzZAkphzbnYgy4QNY241gpkED37ZrNqMRF9XLbq59tFa2JQUUh+y/Vju3XgD9Nj+qbwqak5w1r4P8A+hvgizaTkuqV83KvzK9d82EgVz/7FwTd7xiBfLOWuVBHsMZDXIS/htk1/z97bx8cWZaW+f2ejESbK8taIYpaUTRFRdHbNE3T9LREMzELHYBhGPMdw0YAu1U4HCvZJgjHxgYmNjB/EBMbNrEx3mUNscbequFLMgF4mBnAHsbDeGajGYamQ+ptepumo6emp6ampqiVFVpRloVWm87Hf5z7cc69NyVVVaYqVX3fmWopM2/mUd7znvN+nPd9Hv7N4vLajsTrhk3BDeP9jSuX+yNYA50M+uV7kJ60/SzmDFIn+aOj76fYsHrIYlBzJK/avTrmGKFsdAD8hswtixvQou2OyYLcQB6A+kV2akxzbpgRdG2fWVpZnQPtjqMqtTu+ewUEkpMFUK8Rm0dVTOKsJyCnfqwg76qgq40rSwqL288AxFq4hfuQjYDg+ebiyuodzE3E37J1Djxvu1tDQwbkhvkoUpJpGF5WLA7Bq25CXL7XMcq06CxoFlgIZyhays7IFrBvYwZZ2mwThd6TEdzKjkzX0pOC/wQCFlxenpzQzqVNAEUaItXzUv9JTjOIqE6VpQjLTeYYYwyyXPoGcA20s9GiJI9Ltgib+uAE5nzKaAo0jT1teSw9U2MxILZ7QhctzmNmm0h/40PTosYgqzao4mHF19dDkoJBqi/4E7fcEyOaRO0AuzY/i/hFzH8t6Zztd1KBY/AwHPGGx1XDcNxrRjlGjusFPAv0jZ7LIpJ9zLWllbVNzB8BuxYfAw82rlw+1gJcWl7rWEzZ/nZJP4j9rNF5YLqZ8CbW4bKm37XvnBZHc+jrxx8D82HgVcNHJW2qbbwd56K6ZusmuH9yc66vMlrC/Ctg5JWp44lARMcwLdxzqJgpgo3kjFRpE3r+e9m0XDaoJY1nlf6bYKUZZDeozd2OJhLpA/3FldVbMpug29hTGcdK16ibNy9ZDZw3aSFdje8oTvMWr8WNpXF0nqJYj2qMDuVh9lx22cAoZ1r8rGBHZgapv7SydmAzyGLjgWGgcJ8AWFxezb3HjlAPdAZ4VNIZ4xkacMMaz0wbbGKcGmcYOEPl+x45hjVQgNbYEnxOaOe0dvafItlD7ssaIA9sOuOfc08rRN+dUxOBYKaFn0P66vwbHnZumncch3b90spEBZxlBbTKuxbBhh9khuPF1oMatS+gA+MDiZ8BdcF/ZPgKwX9DOFzvpp6QqM55CV0SeQl5miqvc48sgWNvIbIc4x4jqzZ7HOlx4LlstPdi70qsg24Y/gR4TfBm5rDk6a5O1jPztOE9EucNFzNDVUBRhL++IRVXxRVTCftSJCtiqHyZtJHTdzvGq9l6+WXgxbbi6gTWkpRFAH7NaAHx+LjnXOixYDz8rxgDMnl3PJsOXcTfAE/j6ItWMZOygyAl4UdpSMrWM5UbSOSWRs/vB+uuPq0BGalEZa79pZW10CdgOsbXJM3YXpDUDd6Uoig6nfOyqKTKKOkk6igMQ5SudHEuUuKjjW8M59+jk73eAwY28+ADxAXsfmBh9NbS8tqB5TsyHYsFWeeN54FpTCc9AC1J09yQWsptZRZRhw3FqYGMowmS1489Rl+wD9oS/pzhzsbVy63xOMG1tLi8tgvejf2jcc25xTQhoj49EYjDontW6Fx8jidUFBqI5vRs1WgQmZKimz3yRzP8oFcFt9fHCBrWCmTd3B9aXF7tSfqU7eeE/gEwH+hsKSPJaM6T9FKDMaAIBKJe9ijCVEOp/EmNQaBfngXekQUw7w7pKw+QXsbexvy+w2f8UEiH6XEa9Dv+m8r2JdVzD7W/O27YcP31uxhDIWp6SeK3sa62DtcDkZdkLRiWxj3nEheRzsJ4+kHGVIWlLjBvM6O8AzarlpGrSKyVlZMvdOqgYiFQcQ0nH9i02sPzEwzGB4ZtiTds/+9CTyIeUwBe7MWZRorKuVTx4xJER1FovTK3rM7LcYOSPPGYx2hasHnKCnve4TD+G7IXzximZafZVioOkstUhYaN4WpUX2kcu/sxBpK2sG+APpFFkIM25ftA8sL/NifWG/OcY9PLfu8traxNAQejbJ4dVxnvVNay36vSMhbRRJTXTsiJrPQgtXLYnhud+ExFgfTmL1rNPBnZuHrpALixuLJ6G/Epww8L/lPgHSjg/KQeUt5RHs17DWk5wvKh3ojrLB88bFMf2xiNtsSdTEkvZq8/lTd0hXLjRvaB5I8tO+6H2aqwUlRr3HfR0X83Yxj3sd9AvCT75yUdrLflug9K3kDsVHH9Rj3nmcxkPSEzhErAkWZpRmpAAhQ4Pcw0Yib+fGdnFjXwMMWLXvUemoYm5eplxp/FaoHfTtqRsvrG+xIvOHDQ31ZAX/52UM9yp0g+Kkk6RsUTlUVRfa4p5RnPvaIE5zjGEI0oRVX9jC+uQhem+G+l+xgbs3GOYXwD2AFdwb6NdGDcGo8HJr6O2c+q4AjkaePVK9vzwBnMnVGmLUccgSgLmdyDjBErytM1wEc2314f0qzc8JoCtHdrQE5YMprZA+AV4JXF5dUO5jyhgmlKqFO26VAlLCpJcqKGKjWxHFbKeBv1alxjDDuz06EqfOgrw4ibxzaGuAXaFH6/YdCeFT7oDJZuGQ8Qg4w64QT0SrPY84g3JzYCsd1BnLNZSHHbaeY8jX+vuGBuel7V0I2DzJpeo20gfPALQ/ok0HPA05o3/AThjGC2Mm/J0ZfTHGei+W7A2mzUq3rv6ejHGOLQ0OAIJs+5WY9hzGNY1xG7oH8M3gLtHxMXqJVxxh9h39q1/YbQjPH5E9CrBUKrw0sTHIGAzIwJBzc+vGE46his2I8YmZhqY1jCH9FHDAx3stCslQcZkVy5tAmwtLK6bnQGs0dIlcwO3beGHCAOfa5Rj455/T2MEXVsH/0+N66H+vs9ZG8Y2RiFVdzB7IBfBraziLGVBywbVy71l5bX+s47wz1+vRKaNkzj0ToQIzUgCrm8C0KP5F8y2vmHtBwrT9KlZWrJr2neKurSvB4WifczeO5WJsLD0qvYHaTvxDwO/APgEUmPNnrbrsALDF1AldbyKh1oDCg3qjEKyuU6BH09SsnzYGk+TNVwSPUPGOUYhutIt7D/O+BV0KbUNgpO2CrpC71mOCd4Yvx65S/P+JJG2g/SGcPu0cvSFlg5EWqoDsjsRM0hzK/JwGACb3TxvaN7FD0On+N97L3M+211cnI8rANJB4LbSLcFt4Bt7F2bfl6O7aj6KY8p8+eL1+xER8r3VPQq/73y3vseI782OltJdLl4PX4+6yaO/h5Hf0N4j6L3j2aMkJrQgfCO4LbQlqRNoN+ujwmTcDa3R0baNW69ysrN//rhZygPOAJxOBD6KuxHpEpyeVhWoUIyXwVSjI2MKhzcgbqWm2phGCYxnTUAdpZW1l5AvCDr7Yhvw/5Bm6cpCaDydGQdOC7ayBOt8dHxftyRe39jpA/kdIwEDJT6Z9WOJRoT2iMbY9PoNcEv2/6ApP22VHdipS/8mZwX5AT06jy4N+qgYeRVWFnHY6+MxHWkJU4/QUeOUBS02ftCexmQYiuTaUgAWFpe3QG9Cbwq1Ac/hjRNxNncNPfDKvI01CU5/CRxNGOkn1RtbK2O0cx9NbQw+a7HMPQxdww3JL+MuS2pXROTnMAKe98u9l61ZHdMejVtMz3qEorRGhDRAZ0TnM2faIB0a7Ceh/MIHfL6FubzgaSllYk2JFcvvw68vrS89jKwYPFPBOeBhaat3w07e1MhXwIbN1RvxP2MQcUTLD/PFZdGlffH/A7lX1SPpO9vDGBf0suG/wv0z7KUVRuVT3IGC/rYN43OUoNDHL1eEfbk7qgxscYAsOV523PJAs3ycSTJvgjGIT/siB/XXqf2OtKu8Ta03tYp8ry2kW+Cftvm122ug2/nfC/5v+iAIo82Cz1ylASuAiLmiWHX9M7cyxhl3KIKZltD8sDV1ILS3xqqZAqon3sYIzM5N7BeB35bsE5I57brYdLXQSAx2wZ2T0ivZkFzQGdxeW1SU1h0QGckz5fMglHm2aRfvVo8UM301aAoXLXi/w6xRZvCOjWycfXSJrC5uLL2S4Jpw5NY84Q69bKL1lVisWqmt65XVWyphEMm+nk3Y9Sqt/IBXcdqKzGKPDQ20tB63bsfwzBAuiZ4E/uXkAZt5HGanClvSdqBk9Ar5gQdm05WiTWSPXNkBmRpZbUT+BR81jDbBN/eyCrnIV+4POeoBPjJZ+xgbrcprFMYwptd8B7wXtBZxA9hHjF+JtUJNWiNUkcjZUioJJ/Kx8n1dzVGCbLYXBYiDm/icOOzVA7172YMoWvIu+CfM+wIDtz2CJ4mGWC2DDvI/Swb1BmXXmF1skqsM+ApAr3uZEUgGSfCDAG4K4GZyO9H0qAesxQmHxS9LwdaLK5PrtxFvjPq0rRWxi/rVy/tL/39VSQ+bnnB6GsznXmm6SCiKXxP11nKIJPG/Enzaf1g7Ygxms7gapGOSjTf6nFnHcEn/vvubQyLLcE28DxttdVpjD8GknZDs22GiYU6Y9SrTvZvhhH2BI3QgOiM5TkFMvduzUrWerjKJ9TE5xmxx+VMXaUR8kDSwHhL1k3aJqlTGsIXntimxC9YnLf5ffB3Y54DpiW6RQGuKbtTG0/LTXxJshXnayuBfVfCBNc4hqp56SbYQ1MHvCsXsZK4JoZZSJJlxxrDcA28ifkZw03Bbht4nMIIPOxvAwdyr5vgOcnz49QrWx3w+UC5zI1Ji0B6mF6WxqqzwtV2jgqWdsI2GD1W5fnwmQNnTVPGB20Ecjpl432X81/7wO2l5dWO8SzotuCOcTdT+k6Cg3ZYpa7jswuSrm4nn1GGw3aRJx4+hhsYp/Ln1ZRqGBLeUNHx445B4NEG7Uhs2b6hsAkMcl72Vk5RBF6wE64OMPuIvseuVwbUc2j2nrAIxJxDOkNuQGhg0FJDas8qu/Ortb5N1wcWuR0ChMke0G/Nx0MTkdyW2US84nA28o8ET4GeAqaGFL43/14l5WjiBVCMCaFDPzfoqCvXx5HzMC2M+UE85I8+eoxgMHTN8AuY5yXt2u5LrfafctmTfC3jPD87Tr1yQMe+KCbQgFh0yZrCas1aRyR45QYD05DriB73JfayqpNWBR+WiOTq5QEwWFxe3ZPo2HzW0JO0YJgmUOcerlcFzpqGR7+HNR0NuV6xQfIQRVVzlK3aGGocu2kMB8DQfQLj5rUMVXfPZrBx9XKrNKc/lzVwKCY50Jj1KjMiUx7hvj+yDxLMGuby0siyCis6Ka+GX6piEouy/NcJ8m6RFQygi9uYG4i9VgMfSkOyC+wurqz99wo6+tPgBaz/wtWjQ1dD1LgSdggmdgXVuXRk4uqVCvVbwmfjCixKqZvpiQkRDalKvDcims386iFjECqs1jEfNP4VSf32wPwhsh+wZ7ghWPCY9UoSyH8D2Jm8CMR0wd1a3m1I2Vl8oFnUGOQVJg3kDvn12cccBJ6Dtv/jIV9c2Awk/hTzeeDxrBnqiUArmzfCuqKLR2NiN13jw3C1Xdbbu3ZtHUtr+OvUdLtKZhKNcYDYtPkE0jVg4LZW96ES44Hg/8E5qOL49CrLeXWxJy8CQZ6SNY2avlQZbCTnl3FZb/R7QROisrErYY6DXWBTGZJlKw+nZJ72APjA4vJqD7yN9ITsnwSmQnqLGpPbIcjsKZNAHOlXGAmrdRtSs22Jjypo4mKnUjMyJJtWfU+gO9We7DeM/rnswfrVy2214cPnJh0A21kaa+x6RVgzU5NnQKwp8JStjqon4tKhZ5p5B3GgHy2tTFRcWZ6rhBXdB+23IIpvpWhEffCrtreALzI8JfGs0ZzEdNnyF3kieZoqr6WPrI2HcNm6iSKzipWlEjm6SCTEfOzF6+W7cmpdGIIQV8fj6gA9o2nkWYd+gdaAPHxR9sB4H6kvxqtXIWr3FEygAZGYwnRrHpujL1rpTM8PgpSEH6UhUQVBtTQu9AUHblNYb51o5OqlPvDG4sraTeybwPdhXQD3sgP2qHClcr6R6ZYqIXEVR0t506pURv55k6IodDVc4wh5pAK7HZWfJ720EWmaG9IM6RhGooeCEckoC9ozv4cwiSV0AO6PW68y72cK+GsTZ0Bs94D/qJ66UsrH0FAtmYKJVWG3S1OSd1ra7lv8Fbj1yN56620f6TbwIcy6xPcCT4K+yTBbOjCpMaAINqI+c5WIpmpowUiQFBK4qsoBexEdu/46cSBT/k0lUKjquYfUiM0jP4d4jcBn3crDFYP0gX2bg3HrVfbUNBPZBxKAFLtNBzdluVnWdU7cpl9ZOflCpw4qljPZKUQefdoa+LecbARe772llbUbhlugxzBzwv2qUxKXOTqKdOuVvGUFYI5HNcR4UXHz0tRBjAIaZciSfHQE0FgFf2waQzBFgPy+0c7+Q+oT2X2kQRV1fNR6lWVyux4hCvsoDcg0YnoIWlG0kJWnp8v4orCgFPno6iFQmdYWtg+w99TCuL+VZSBxgPl18PstPoFZEPoZiR7Qq6dSI7wg6s2+znLOjRt68lTQYtUa3l10wtecydRljLrhh9mqgoHzrMz3Z/Snz7fT/tBJX2IXc1CweoxJr7KUbYFVOHERyGGE7ZZzZPrUymZ3pDh4r/bQNDQQh81DLe/BW1iiBtJ9YH9pZW0z050tw4zMQlmgUVl41eea0qqlG9iITFXVz/jiKoxdiv9Wuo+xMRs2hkwHMYuZXlxZ62IGWRTWysMRf4Q0ljwYt15lmbAOaPIiEEm9QGdb+eOiPF0DfOSQkO6QRuLweQc2e1JrQFop5OOEXqTrwGMWV4JTo26RloobqqpqWCnjrepo0/OHqDCH47M1EzcPGXsWeBrxoswjDjDcu+10PzTmo68wnwfj1isHNsIZORSdTFoE8kWgrqNqqkOxh6spgooL5qbn0zLgfksk1UoUnndBU5Iexz6Pc34Fl3w9TQB0Snte3bROj3B2aHAEk+c8XI+PHKN8/4zls0K7rQF5eCTAl7hvaZDUUI1Pr0ZKaztKMMWinLJgiDuMCyWYRBqpouISfKqNYQodurBPG4G0UkbAM8YzoB8H5hLdHnL4PfS5OHJ2IxnmsT+r8f0esjccMobQI8BzNruMiAyolYmQPmIv70Qft16FTNFEVmE5gCmqxLFXtSW4sR1YBU+6Kq245a+1nNbA4Ya3BuQtLovLq1NA1/i7MAvgsyIUc6RRRIU2dugirbevK3YJq63tiaeX58HSfJiSlZwU5afqfsgYhnnsr0H6ZDvrD5Pnw8BZH0gtzT9ivQrbrKcQkwhlwhRoqgC3y+uOHSX2qEcWJRaWIh6fKF8d3cPopvQtDtSmsFqBnqBn60eEHzU8kjO75SB0QZXK/qIEnK4oDS97QpJGrgKsMeVgp7p4k+dz3J4hENRuyuceOcYZ4Clgvp3yh0gC1tu+pb7HrFfZo54DodRkGRBbU8GIOKm5HxaDlaXNaadWFUgxZvYtbwN9mX3TcqG/ZSOPlbUpBRKzdxveBn6SAPfecYUlPWlkrYLTxU5LrHFuziEo2t1TB4ik9TX/rZqidmNC+1hjzAFTmIWl5bUzwE7Wnd/KqY5APADtC/7DuPWKwLne0yRCmYA7QskBjaoY9Y03UBVbqiMCnWBAwH21TIRvZdeta6sn8Tbg22UtIPeaNSiGw254dUhWS8PzXDT3O7lxjGaOKg11SYeMEXLXZhYxY7jT6sDDkcPC9B36msasVwLoTiQfCDCNPVN0mGdfpgHeq8F6Hs7xU3vd6iPv0Z6BvOVkaWWta5jFfhf4R2w9KbFgmFJF32Kz0VSo4gbr0Vws6Noidc0wlc+rFjWnnDdKAPHudgy+ntBU+H5gu9WIUy/ZIboPQANMxxqnXjHNCA/RR1bOhULZZOMCtWMuj+I5xS5gtYa39nr8uR4QutBbA/LWk45wFzQv6SIhtdND7rjQrSw1muidC06Z/B+upEuj9zjRwawFNsFsa0geuJpaUPpbQ5WMuLsxAtoDc6PkdGjlwcn6lUusX7k0kHJUDY9Nr7ID9Y48gVAmcp0AXhELYXoupEr4VTksqkFKpGQPBTpvy63z1ok8llc7RmcNS7LeC57HOlseepfw/0FlMnicOPxv0K+03l6l0cgrYmqvp+GJIu9QFQiJiNImqThMnm+CXjhkDMvPCj0q6UPAZqsZD5FE8z4uvRL1fXoiDEgGrT44bGfPjYiHvhgDE6WJhJi2Uahj6EgjjKBamVDDsYbLvO1FzDmHELzruD2wevZtKq+lBfOpiip57MaoN6+9j483ywSBK4pdwb+LPk7R+Koc9x9rjCnjHmhqcXl1StJBBOvSymnT75U1DB3bnUQ/x6dXefZmwiIQsWe0e39hwSGUomldTVdoepSokq1MrghmDWeE3wfMhFLde9Wre3k9dWXu9f3VazVUyw8d4xxwDnEes2dznTaVe5qjjq5Ez9IUiREZk16JPZn9yYtAnEOsM1CGh9UIK9wAG0flMKj59dhbdBfotjmsh1sWV1Yzz0xvl1ggGJLe3dfeHaZbDHntKP28m5/RMo7TDjHT5l1+ps05YE/y9VZTTrd3lO1lEZPrePQqO2ruM0Jmy1FGIAeGg6Jjsoa9W2XmGX436zcp/RxJXaA3SlTJViZydYUDc7GSe97iMLx13dWqHW486q+7OBu5G8Ok+gKXhjhHdzsGX4c0B3yyjUBOdQTSITBPftG49SrQ57KPMtiUSTIg4APQwfA1rENMx+HYpNXmfNtdwZTaFNZDvrj8nNE5zGPgeekwvToqGtUQXdMRxieivlXTtdnI1nAE6bQMt3H8ux1D8Bhm3rhdA6c7Auk4MAR2q0Zg1HqV/b5vPHkpLFBf5JZNQ76uGnNfTTwgtS3CCTFDJ4NOaRfPw726niH0PVyQNN0cxZaEx0lAMrTBqMoyVcUfqqcJVOVYb16q1Jmqjh8X3fUY4gJmvm2mfRgiEE9hdcetV1ml4oEmMYVlsy+xZxdppmhBDGXNST4gzt55aDBnCDSfPbv1vh5GWVxZexp4HPPdwGPgnl1t76uQdbiy8Rclfw0QD26wLI3QJZVzh+IlN0cxbuIjiK5x42D3OIbOExoKzy0ur+5tXL3clvSeSvtBl8DmOmWfgF4pELBNnAGR+A82fSX6nz8qOafzL1bCvTcB2pcV/a7VsBXXd6U2AnmYZGl5NUsZMQ++QIAwP1dfHMP0algVX9kL4qFENcMWX/S74xavZkyF5jGaFvd9jzGdrd8Z2jOQUxxkG1AX3GHMepW9t2978sp4MfvgvZKjwwkniOSo2cVJNFb+7mqkETmXcWcmU5hpt30gD5s3do6AOHtZ8D3ZJpkuh0xPmvUq1w9HjVZOwOkCIrYTFkKqnb7RGMWyrdALpOcuSYl5CaGtuplqXPy+xzECON53YW4Dv9Zq0Km0ILkTMCWNWa/sQeCT0d7kpbDwADFoyg6owSEsjn/sCMZeadu+Gkt4IZyBdGlTWKPz/lfWyHB4BvncnFSD2uLKGgrNgjPgs5h5YDamfC50pEoz60rs6oq+5RS2ETRO8j4fPkb86TkGERn8e8nqU765oGyIC2UU0xEE01BQP/g+xgjv/WKklqHw1HpNRsGIdIrczNj0Cogbvkcgo9yA97D26uVk5ZrMraGL1F1JN5o0UEklH0PighZ3ZQoz3aawRiodAtDaNNDBJxfdBT4PPyl4t+AXJX27CQuk2mVuYgj29F/sf6XPO/tdRHBZHGeMsIZdB1nMM2cSAfyuRExQ0Q0cuX9SiHZUolQrf3DPY9ARfA/mW1v1PbXStTxtmBq3XoXjwNFSIo8SkC00EkZ5AOcYRS6DiRimRVUbaSXlukkVQnm/yA7Pu20f4Sgij1WA+ayU8Jkwj+obBksra32bgWCA6IdmUfelcA32wKivLPoMzzEw9JEHyj4HZ++xwmuZF5QthQ5mBvG07a8MoJzOqYsTbChhLKXRRuXcPAs2kp9xMBu/vzAth4yReXp97C3DlMRM1ofUiVZ7Ec4oXtxF5WBczUXKvBlvCpGHFSNaDx0jLIAZiZmllbVpoL9+5dJBq9WnKIEV5rFrqZPUV41Dr4KE9TppBkTSvs3/G32vSMfL713m5tQACOayXlkRf4PT+xp4R/jrmBaR9P4jaCQ9TYDHuCLUtemC9zF7SLvYB4YdpD4BQrxv2FEgwtkF9mz+SuJOaFLyDsFQbMs+sHTHsC95T9YuYt/B2RgQyG0eAb0HeYaMLc0VT6OaGq3qlRqej3PEuUrJwUAkbv4hY2SX7gqeR1oAHs9y1tOlkkc63EzSkGEalbX5ivRc0WClEYwonoeNIXUMFwT74EdAd4DbrVafrggEaVqEKqwj5/w+9CpL+OyBJhLKpKwvjo1n7vlFpWaq3JD8i8eVWRrSdZjdqi5u+0DuO/pYXltATNv+XsRZgvEIdLB5t7/dQeoL9wJgpuaMB8J7oD7iwNaBgpe+T4ClzrhaQlGFQvPSAagP/FWIVH2QAXB2wF8mNBvmFIq2DpfppaozUtUrR1FLDF/tBraoQreOMwa8itk0/B72gqRrNs8KnhDuOG70KnTWiQ7XP1epgUi8yPKPa4qkmsYw7iEex9xsDcjpc+CQp8Jh+vHn/N70CkIGQP9+8lJY8gHWQYaFlX5zHdIvrOikRKo3z9DQpR82ul6Lxnvfc/ZIxrX9d2XNIbqlQ+4uqCtpuvDeiXfessJc2W5u5TwEdRweFYd8KiNWPFDQmY7NrFT1PohOBCvnYhW9avLOkjSp0mq/Y48B64KbRr8e8LgwMmPuAAAgAElEQVScRSB6ohJCR0G0avk1VfHjk8bF5A/J/t6Ev+CIMejJeipzRF9qFftUSUch6u5yV3N+L3rlAXCAJrCRMPvD0tAozi0cQik6HF5imNX2jILHPNXq393L4sraAnAGuGz8uMRsXReqBrwBFjN5XkOAM4fOfTdwyNAlQPOPY4x7/h6Gdew9pCvgPUkD4x3Qa+BPILqGbxI6W/2sKitnmk+rwk+U6bQ0h61G7pzGMcw08I0ye612nzIfLnShzxumy8zMMeb8HvQqMyl7msRGQszAol/W2WfVAW6yiJET6Qj9XjkvQwXeJII7UQjRprI8dBuB3JvMAguGZ4GnswP0+jw1dXinWsvwRqbh3nXeCHoCY9zP97iJ2N64culT0XN7wN7iyuo1zFngaeOztVWetr+mf7Mr9HE+5E9pxNNrHGPKAdrkS1vVPnUprA7wHxed6Mef87vXK4FCGnkSIxDdwfQKAhQNZ45qXK5RWW9+ZxURo+TNh+FeeT7k5bODzFaOJUsra2cwF21+BPyurNN7Kt1wI62rGf/hHC2HP3/I+yduDK0jbmD/E+DWkKFfNH4V+DLQ0+BngKmj6QXc+DDpPD/q6zePMYV5FHxxaXn1gtH2xtVLd1qNPxUyDT4va853N+f3plfiLz2RZbzhEPWg2UNUUgoTRxnF9yoikbJ0LQc0cVbiWxpad/NO9KWVNQBaVrZjRYldB4U9I+m8oRf6PfJQcDgIpjkC1yzO27oy50m4OaljeBDSVGyDbwE3N65cvtWcdtAdYBd703gTNBAeOOSzK3ocL+r4jKMB8ko6JFJq+h7FGB3COcg0Yga7bSw8PRL6r8RUIxXt8Dm/J70KlBueQD4Qc9OhRGwg0pr88osmtLRRxUFeO6OooVA1w1oGNZoj5O2nCdSm/VYPj2M/2ANug27YfhN0IaQCq5tuunn5SIV2tL+74vBHuFWTPcZr4HXML4NeDPQEzZI5K4PF5dVfCCjB/J7NWdCChzqHrjtVroD2HLKBxGc0w8YwPCL8faCPA1utxp8CkaZlP4p95l7m/C71aoC5jhgZ8OboynjlA1n7hkF+BpJ5a805u/j21CCKVXESa0dDgfHQnkJMybQG5HgykNjD/AXSG1kEMg+aSyvahhSdVw+s1UwAdjzOl8kYw/hAaNdw2+aziJ2NK5eOd8gY+lkGmBuhtt4L0lFkaUkkc+iHH/bexjVo92x9KbjXqvpky+LKWubwuGPoSerqCH25b70KFmXfk0hpK7SZ8e0eZN3G3aPzdse5SY0hfQfcQZwBnUNch9aIHCUbVy/tAruLy6v/M3BV6L8yfDX4R0HTh99/3eW83c18P8gxtAn+MNIfbFy5/P67up9XLu8urqwh+T1GC5gPBn4HDeG21l1uDod9LzVFUwsW7wT+tNX2CQ88yFB4Qx/WeeOO0F3P+V3q1QC4Lmln4gxI1so1QN7NIoS5zCsq8nAFPLuJOiVJ+gMcdXXlvmbcHFOhGJm2PdtS6txt1KyB7QHiNWAHuGg8C3pGpmPcJWnsTAhpiklIygOTI4nKnBevlYsi7pZ9EGMQYK3fBF1H+mNxj9ziNhbb2YHlS4g548eUMBkSmOVySLsEJ4XK93BeLZMeh1BBIi6uiev/PYWZA+aWVlbnQLvrVy61jtUESqi+8gxoGtFRfMZ7N3N+fL3K4IO0ywjLvUdmQNavXB4srqwNQJsKZxJzJRaWozujoisyfEEnu0O1VL9auKbsPRng2BxiAXi1Vcm7matLoaEIPpphYW0BAaYjHOZ1C1zYTElDIUNmyLOKuQI2vVIkUZ3z/GDPKewUD3IM0IHEx7D/fP3K5V+596juMsCbSytrtyV+E/hqzGOO0gnhO5TnesUZToRK7Zoj5UqncbR+yM8Nq2MwDZrGfDn4HHCDEVbctDJSJ67j0Is1J9RB9zrnx9OrrMH7IFvrEwmmCMHKbWUBxkUVXyY6BKo1c6nePBk1ICpl06qGal8sfMZuIU3uU17Dugn8nPFXAO8kdIbPpYfSlUa3SjSt5Pf44K+EFimxC4Vy7PUTGiNbXgOhjxlvG30QaWs0qu8D0PPAttA7gDNGC/F3KmBXrIqRq6yEpOCkAkat9GpXIUnDNeewnkLebg3IpEYg7gjOWpobyZwfoVeGHds7GTDqBBJKlV96B5roGSOW0WFp3qTaJm0Ic0JTWow3A5pvIU3uK3LMPeguQcGeAj0VPHXmqh1J6bQqBTVMcozpnMf+QfK4VnM41jFymJ0/FLoNfGxU5d8bVy/3gfXFldW+zbXs6YVycaerxAVaqtOst8va/bRrRWX6t+pvVcYQOov4mlBN1sqERiCA5+VQBXm/c36UXmF2BXcMg42w5icwAoFBwA26Vws3jJK06TEYnQn5vJZYagTSd9hU94B/CCyBvxnxLOb80fN1z77Yfb5+HMfGfaS+7V9HfMbm/eC95n6R+/06ui54r/H3C52xPEdjp39z/7uHfufj3webiwQss98D3mxVeyIjkC7SI4i/WXei7kX3D9crAsjmpkZMfzwOOPQ90H4OSqdhcUrtcRMf8OHX2+6Jltp2NJHIJYD9pZW1A8N2tul9pawnglPjKGiugyXed9zaOM/3N4bLYDaDb9CnbV4Brm9cvTwu3oxdhzO5Zwgl0zOl10kK0T0EePLefiYbyQxmwTCVMU2yfrVttJ24CCTw4PRifbjnOT9Cr2zvZc7hSGWkBsQht/YZ2f9fwYxVD74YXm7WXPM/FLtIOudQedIakNFGkQOjTwrWgd+RfN7opwic5XPDN3Yd4kHdS137/Y7hPcQ28BvY/wfoNZs7EuMkXeqDd4V+1/Aa8JPAt5FDxtSgpR2l6lw/IjzSwKphE+EM0jzmcWDb4hptmfukhSBdw1eBFuQRzPkRegW6ERAWNNkRiGAf6aAxkcBxG8DS5yrg7vHPqQyJtLO0sprn81u5/0gEQpXWwdLK2lbgKuA2gQWyJ+igHAn58Ga4ISD+hzgOx3n+yDEGDnANu5jbwF8gbgt2N65e2h/n/dsInv5gaXltD7OJtC2zYzHfvN6ikuPEwKj2HYm5R2pmNIkNO+Gfpx1FQK1MWBQSKuZ6I5rzQ/VKAVnhr0ZN4jryMxDguu2pejekm6HcXUHeHbZFFDSOxOQqFzPPKieXGrRqOXJ5zfCa7NcCjhZXHEoPn0kte1N4nc+50mBhGNRTE4vOvYwh9kEvg58H/sdgSLSLTnR32BJs2bwP+Q8FP52BVw5NafgQ0LwaT06FKGvIV/tGYB54nbYaa7ICkOCUPQHMarRz3qhXRl8AX2eEdLajNyAhotolw5u3jwDHU7p5xNk7Dw3mcrwjIdFx6OaccWiOaRFIxxSRLC6v7WdcyuuGeeM5pBnB2Xo1VZWwqbLxO57HShrKDZbFTQ/qY0gMDFuYbUnrNp/O6Dv7Gyd8BlDct5W17YA9xm1EV+asa0Uf0ble7V5WFour96pyTdpDMC/48vaMcLJkaWW1azMlmDVMj3bOh6XC2EMTfgYSOpy5JZivgdwlmPUpfW29Jb9sKnSthi0yJaaXVTk/SuC4aNnYxpea2ck2xJ8SLBA2xCeNvy8zBJ1UaatzPqzCzoVG+NhcHc1jOAB5ftLwpu2fljR40J3YG1cuvQy8vLiy9s0yF43fXb9X0e+uwHA3XNN8rxo2EPGU8UW1xGuTFn70hGcsPVp1nu97zofoldBtzM1R9oBEi36EgZm8n0Uge/FhpRS1v8hZ162LrnQJyB47+z08zt9UXh/zzmc8IY/4kPRAK6PMzBjbuxZ/hPkDofcTuDF2JQ1ilIF0zktYhqzRPMx9zu2cX5vPMWWqMskMC4aNAQwMbwCfVeBmn5yUpv3HyH9A6AS+k3+PkirY5T1SfG9Mea3Le5XTB0frIr+X5b0OfVK2zywur8232jsxcg44Fxwfd0Y558P0yviOYXuiz0CyQ+z9xeW1PWBX0AOm1OB0Fsc/eeVJ1r5uR4RTque8ikqVyEEV+iq35FInlJq5PMhShR9ZXFlbEH4d6e/JPgueIqs2iuc8JpZUJQuV8zwnx4gufIbiyeL5KiVC0rnrAdKfYm+uX7k8aVVHHw0bOj9GOJeYdfwdi4x3lsTNCNVKqJ/yJuSUJ/FxkZV+VuagzWU0qGezdPJ2q8GT4IXpQsZo2dHI57xsSI31SmHut/BERyDFzn4Avu6Mk8Dx2lfcte8ihZc0UClvyW/q6y+5gXPsI+PHgK9pNfOkoxF2jF4DVgmHxB81ehXouzLvsc1Pn3fuJ0Xzmf1TvcvcRP0dtc8S4GlgEuHM+za7iF8E1hxwifp5OFZNUJgoOydhxXdM2QahyNHKr6PwSotSevsZ4JlWYyclg+XHwF891jkvwnzvEuCldhF7oy4k6Y5rsRAQSns5A6FiZsUKqVbhezll/lAaZhQpDOfbTok0eTYBaGzlhKKRS/vA7cWV1V2k18BfK5hCeiye86KYShHYoZM1kHlU1c6hFBlROLmmOkY2SM8FTe/kyMbVy/3F5dWB0CcNmzJ9pC7xphB5WAkPilOmTsUbSFGdWPKn2BVOCPGVTOA9eetaEH0pcfHJOOY80yuJfWBX8v76ldE3z44lAhHsy7wIfjMpIIhWvqvFNPlOoBJ1MmHUirFf7CrJ1JNYTyytrE0tLq92Ww094UjE2sPetvmnRj9m88/AV233rbJs0M3UzWUldzTvjkOQbD3FyCNNemXoYM8KT2TvQ3Yuc13iJcvvMXzIinJxcXQef0HFHpeGck05whHL3x8Qi/kWzLe2mjoxFuRpi6fHOee5XhneNLxoj74Ca2wRiEUf6y8VDtIz4q3yK6tyQ3II77gyS0O6DmOOkCgs6WFPY3WzTsu26/YkI5Grl/ID61sAiyurn5d1YPkA07HcSyAWHHF6VPqFFPM+RUj/Kcx1FLU4ilbCEWM34EBNZMQGsL+4srYrc8PyV2D6Rh1JnXA7yhvQFK1V+qCK+1W/PyWPjvGszP7i8mpHKJ+vVk5YFldWc0sxg5kpI4fRz3lkYfYEd0bdgT7uFNae5Oed3aSY6McNFqFIVUn15hkauvSploaqZzQDfha0DbzSqusD9LTRv0RMCX3C+EnQPwLPZjz2NUcqXTDV/o7SqiTnYqiZQAq+WOjOZN8fdiz9FuZG4PBgCXgqoexVDNlDck8cFR/EObxi43BavSB0AXlW6AnjXeB6q6UPRGZCKlFPKnCBMK45j/bGN4A/ZEyNpOM5RDcDrD0C/+7AZlDGDsNgS+6GA1rF/6Kb3BGaRW6rsR68p913gELZQWwKXwM2CfzhjfNckEZV5l4JOFRlzqm+BoKuJzQCiSORjSuXBuBdw+dsb9veJy47dvU7p/ckOUilkvuWqu/r2HRsz9NCmzzAzBXTGYBiB9Ghdm4xyjkvwvi9rIT39EQgQvsO8AlPge8APReQ1kqjD5deZR7SVQ/OY7iTkCdvaGmXu6BvBH0aeKHV1gcrG6GB7+WllbXXMS8K/yjSTxh62FNJ+OnDkGWHIfFWu9gFqCMxsWcgDevkVcPrCgi+c6BHjWdqzfZu2kk8BGGsmtcoNpgpwXcaPk3L4PmgJvxR2Wdtuh6m4qOc87CnfsYBFHUsZyBjiUDy8lykPcFtob34VTUUYJZlva40kLkM72qNBNEsmK7FAnbbMDVZMkDsGq6DX5C8lc5bNR1ZLf71UC1rKhC23TP8tdPhkIZo3ehNiefBm4KDRhBrYmfKR31q/aHdBS4AZ1uVfGATPk+gju4kMIhHUR/d25wfIO5khmNvXDBwY4lAMp7oweLK2h1LrxPIU+bz/F0cZRT+o0mrouUC0MRZiW8FDYUKlEVH8ASoBY2brHTNAbC1uLL2Ava+4cdB56oar4RFbQh2WpwbjkE4HXemM5MhNE9+lJYVHywtrz5v9Irkx0Fnwrp0pzmV2wBrodQilTn1pI+mCzwrjxXKvpVDIxCdB74GR/uudEgEfj9z7l3QJrC1cSXAEJ2aCCSSO9jXgJ2U8zeqxlEZmtXIdSqGV654rg4prezVLvCI8dnF5dXe4kpbzjtZ0bu3LL0MeknixWpI3cg3WYtMqMw5aWMRwlaPyWwkPGxj2RNs2/oDm9/C7A/3MBsKUUwDgbar3mvH5gzi7NLy6rnFldXZVitPOgLxV2A/Tjina9DfUc65dgTXbI+1oGTcm+yepM9l5yDJDUmWfQ2iWBVHdMjrqb/asb2Q0YhOZfeyLeedmEjk8jawvbi8+m9AM4JHUR4pNB+Kp7qRemga7hD1OGVNc1lD5v7i8tqnBNcQfwc0Xb8nR5vpum1SfG/mgHnD2Wx9tOjVJ+onsGC4IOgcxYE0gjm/Y/uGpL1xfqexGhDhbdDLhr+tRgt7nJt01AFrcuM6xvPANyHeJBzktzJRkYg+hnkJeMz2BUnno27Su9SNBp/NnhWaOaUbzGvG1zAfECyA3oXoNN+PYaish5NwhcN6nkO8RNa308p4ZXF59axCCv+8pHMZX/0x9717m3ObTeBf2+PFPxtzCksHmG1CVRZ5ssqO2NKddmDaZSd6mZaIa/1TvKTwXP6ZdEA9mQWhNkSfTAtyG/E6sJ15R4Nizl1incWPy+ca57yM2sMu3D2ByHpckcgOodz5c4abcVd+3Igbvrdr98FWgfJQliI4uUa4J+nL2nLeE5UeZg6YcWCJrOhuPJ+jmXPEvsR2wCU8pRFIxj+9q4BDvwXMYk0luFVyksurckJXC9dyyG9HLcoFm1s4pD8L+qGMtOfFVncnTg4ALP+M0DzwO6CeYCrf7PLm0/JxNvP5gXl1zosmQwgpGp9e5yF8iX8OOivxlENV4WNxlCbSDajsQC7PDouSBMfoDWCYRbwd+FyriifmND1t+1sJPDqV+Sg7x3Ndd63G9+7nHLhl6VPAzji/2lgNSF5lsri8+u+x9iVmahYiPuEoTLKS84/aWVE5BcX7VD7qWp4FTS+trHVtDzauXm6hGybHywZgaWX1jvEAcwfoE4xJxXuoMxMq+V1JpJopSue0RiBhzVxmcWV1T+aO7S1QR6EJrFNdAyUJEUmETuaZKiarC0uqb+gL9i211VhjlqWVtVxVe8BcU+pKSSmvaAQgv7s5HyAGNgeC/VETSJ1wCqv42m+CP2mzg6OQ2mVoVgIougAIc5HecgzdXnmueEeeD5vDvB34WswjktrO9Ik0JJevY15H/AzwP0UBfZS+KsP6BNK9MuelTtBBzAGnOn25ceVyH7GF+DHh9yK2jXedpDKin05/xveRMo3VN76JeR7zY+APtVo4dukAUzJfD/4Bsh6cqu5SRBbVuY1T/sedc/awXwU+u37l0k5WRn+6DQjyHmKbI6uimpgjhj0+MhUwAz6HT1lJ51spspcGoFugzyPdzhqfGnTiuHNvcNDppZW17uLK2qnlAreNrH3Dtu1XQbePX1iQxGVI2hPaFXoR8brFvtxGICcwiT3jswQMrG4195LOlo/YD4875z4wbIP3TuIrdk/mPuoW8K/B36IGlsF6pVXT68OuHzroBaRvI4CIbbXaPJHprAHwkaXltQvAd9icl3g2TWUdY65rOq0poKfgsOyf0lTWANhaXFl9WeZnET9oc1HKS0APqU4sniqIVjaNN2X9hKT99SuX2vVwEvuedEbwLHBBYiZBpK7p9r38bJpzdm29grh9UiHWCXiabCGuSdqlAPUSw8vUmn5qyE1U42c5cEF/re22GmvSF1roE/p94CXMHRfe8TCHQofoj0IUYvc4xWchkeyDrgN/Bn6BUKXVsEaisp0MWM8Bxnvb8geAD2ZpsP1W404owjZzmCeAM+l8ldzMjksLj3SSj55z0K7En+NcTx6CCATYxNwx3kUaCHWaDUfzcxVw90PfU7BCiAWsJeMzrSpP+EKDHdvvl7QPvEuBM3zqqJ6G6pxHT3VsTQOnvnhi48rlPeCNpZW1M5K+hAAUebZuhOsNloEHgl2h94G31q9e3mm17SQjEOaxv0HSQtPe5mTzr8+esw+RhjlejU21u+CXQ8rzoTEg3pfUt/UG9hzSU8XYriDvDtsiChpHUhysSit/DuptmEYsYM4vLa8+arixcfVym/edSAuiAfa+7VcR/wLru4WfI3c0xJCQP53zwimTOwETSw8REoGvYfYsFsBdrItSeb6XJDTsnbCR6JeEPw26RTDOrZyALC6vdhAzMucMTxnmGt3dvBR9uGOV6nqFgK3ymQPDpuAm8KbEw3MGsn7lch/oLy6vbkm65RDWdStan2QIPTSYy7lNmzCQieHBp8BTkr7E+IzQLWiB5CZRstLeg6XltVvA8xZfb5Rzh3RqgIrD5zzSIKYsHh48NLNpaQv8WaFHDefrm0/Brb0P7Bj/idG64E523tTKiUTU6gA941lJ5xxgloamqcreDTdnYRLst+Y5BwYSdzA761cvn9gZ10kvsD82fB78nFDPpmII0sOl8EoTcF7ToXqCzEtU9/mMYApxHU7GKrdyr3skOwpcFR/EbAHvBs43L6zhc+6A/jynU3qAPiQdgoKX+Vs2H0P8C6GLtqP8uncQt2x+E/QR0DXhsdGZtjJUZoHvAt5m0x1eFFTyNpf9HW68pobGW3OodAD+sNGfn+QXPWkDcgd7S9LAGbeHSOlMk0gjcS5dDVhKJN8ileiyIKEw3p5BnMHuLi2vglQ0s7UyWbJx9VIf6C8tr26BPm+8JzRwVOxxvDkHBdKehyYC2bhyOU+PbAG72HeM9kKToTtZCuMAdAd8C7gG3Fm/erkFFD15Y98RnEGa1TCyjxxaJuHXc+U8L4byyfY/u05GGF4fGP7vOnDtQ2RAhF40dG1vInXAs8QcUXl7PjF9YwXW2K6nxEl5plIiQz2LeRr8vsyAtQikky+fNHxK8DcRS0LvAPfioOPQOUdd8LweSrRZBR0WP60AHPrbhGKB14GPY/9TQrVjG20/OBMyb7gsNJ9nTQJkSaa+TlNULugtsp8FvJNKcr38GDguwFL8Wewhfuuk5/1kPTQxwO4Dd2SmHTjMIz74sioho5FKytnzuxXsQloCNyR7iOxOyIVrPoT7RKXErUyirIceiMHiyupfYF8HlgLXeV54ccSch1+6rlX7PRRRWohEVlbvZN//BqgPXMN8QWIf6LdR9snL4vIaglnDbKiW81Re+5PXSynyfHJ67iRxrzy7IiLI2XBdTshX4GcVCf49AuvrvnSy57wnakDWr1zqLy3/GqDnLS8I/XCG9ZOlJVLmj6QKQeXmUCJOKvE8FaUQXQYwvcyQfLfhKaT/oTUgp8WR41dAPWAp05ezrkQbTXNu05E09zAjzm5cufz64vJqR+KnjXeBT4H6GbdIKw9GYTugbwEuYl2kYhDSLFaM8VcUP5SukFN2VkWeUVmRmqHBiVfBt0E3T9pxOHkPLSCtflboRpKGyncCEeFiQZWZ0BkollLs+/L3eJ6cPL4AfA14amllrWUrPB1yQDgIf1HoxWHFKI4sikOEe+BwCP9Q0xtnS+aGrNtCfXB73vEg5wN1LD+J/bfy1FQJdBhBsauMQooiKqW0FoWxiJGoq6F2+ISBzQ2s63cHfXIaU1ilxX3R+JyIYYwV0VsLDeEUKqGQUx7guCkzD/FcVC8A6JsInlovm6h2sU18uuby3uLy2p7gVzHnBN+T9F5V5jxLde4j7wq9yZjJdB60rF+5PADWW02ZlIDZHaHvNcymsOwx/Loqz1FCsqMiqk5aPiq9b/nlxXXwJ4hbvgcSttNnQMLGfgPTB7YRPcEMSUqq0ntes77VKgVl/69YnbhNQO6Fm++3A9vAC63Kn5JlCdeR7mB/HJhHPF2dc6ODLGL5NZkvADdb2I5WTkqWVlYv2MzafkRiOnDUVPo4arwVFZpmRSW8SjewIg2W5m0HmSP8GvYDYZc8cQOS5ehuLy2vQSA7maFGQXqUJdWQKyp82umJyhSBsfAp5NutATk1UQjAzaWVtR1LL2JfAD1dn3MH4ETpg7a3Nq5evt3evVZO0M85B5wRnM3APOOMS2VXK1ET0rMRFYZDdb+7KB7KP8MwQPSx3jS+la2VhzwCKf3KfcHHsc4bvysO6aoH5zHciQo63CaQsWbLHl3eQfwg5trS8uqvIw3Wr1xqU1mnQ/aBXwWeAp4OTH06m1F2DoCfR3we87JasqRWTnw/43uBC4Zu2i1ezWVRZ6loAtVwg/Wo8bPyGrBlvJPRQ791DEhgzdIXBNPFfY4p5xx3X4bwrkSrGNKcU3tcMTWig3Ue2AsT3Z6DnCLpY18DzTmcbfSy1dYPYbz/TNY1xHYL29HKScni8mrezPqI0UVFbQmNe1PCOFh2oh++nTUfjkvsOADVHjwoR/iB1cnL7Ak+ZPijcDaRV1upCOUilvRAHi+Fn/kJkkiRLKuHJconKQshQ7nOGdAFpB8WvL1dAqfHxZPUB78G/nFgTdIt8M+D/zPgIwQ4+NZ4tHKS8pjROwxL4KdtdcLeFNMNZLzmyfNRX0KSRRFNlAWqvh6yNZ8Efhs9uKbRB5jCAsGu8K7Fvk1XqOv4VdeMTgSomN/OKKxLsLJc49TOPrVjmAKfBW0urqwhaOFNJlzWywa6A1lbhn8L3gT9heAWYm/c9J2ttNLgCs8Q8Mh6wFQaQaSo0XE6K2lRGMpTmJx3xK8NZA2M/pKAH/fA5IEZEJk+4k3DHOjjgouIx5PjpuJH9fipSkzfOEIt3ovGnsf8uMUHhD9CyKG3nuvpWLD7iJuCf4n1K+B9pDYV2cqDkneCvhM4U+ftqO9M0uHcNkftaplp2QbvYL2A/Un04MAyH5gBWX9fqBhYWlndM7xpPKdDLXEDjeOh1VrDXw9gZ+phz4HOGe/wUOImPXyykUWKS8trA0RfaNBGj62ctCytrPZA0zZfIjFv3K3vT3A8UrTj7l9F9dY2cF2w9yB6PybCgBS3ydwG/tfsPryjqMIqekLSBhxX5iWcqccYWucI2FsAACAASURBVHHRVoy3nwOVAaabMRU+FirA9ALwSrssTo+sZ8i97Z1o5QFFwmccsiZP2X6qpO6IT8nzMiClPSCmsl/lyOSKaW2ixImjPU0gXgb9PvatjYAb99Y1IBlT2i3gC4ab4PnQiJPfbtdtcFHpkBmaAlgxO3bPz+OdmQ81pLxCOvKs4JuNby+trL6BdbB+ta3gaaWVVpplMVBCdIwvCH2HYUGZk1vahdzpLc9yi7Nax2gaRMCIOSJHXHRVdqhn0IkHWXPsjVBM8uCheh44WunGlUv7G1cu3ZD1pvA1xJ348LugK3XVBCgx6gmtKcqsv+ohZFHhKxDnQO8CHsNMIzrtEmmllVaG+rvQUWDJfMz4B4TPxztVtZqqxMKK96M6ZGwJiJXvbfV9T+hAaEfoM6CXJsGATAyooPE10O+AZ4wXIoS87L9lM00C512pkY6ZIdNKB8cUVfkFU8YzwDcY3cF8mMAp3EorrbTSZELmwc8Ci6H3g+mUAi/CZ0t4P1zg/DkhisqrS1P+1XyvcpzyMrckfQz7GtLAE1D4MzEGRGILeMXouxP43dQ03JNpOuRxB+iBziPeBnyyXSCttNLKITIDehz5PGbubvcgDd2RfIy9ix3wnyFtTUqz7ARFINzG3pb0kqWzwo9lmzvNnMI6plFpui59zuZJ7EdBf7y0vArwRksF2korreSytLzWMcwbnhT+MaG5GCH30GrR4qmS3zyKP478adyXtUOALvmQPTkVoxNjQDauXD4ADpZWVv8Ss4PoN5fADZsoaMbHKkNB1eqs8153T2eh6DxoDtqzkFZaaSXeWdwBZgSzmAXwVLr9VPcqV7iOmpzXiKJbDHWSZQYOlLW7wLY0OdWHk7hRfgT4OWCrOZA7rK5aeGhboYZEJ+E+KNyLv2/8s+C5pZXV1oi00kor+VYxi3gP8J8DM8CULYb2mhV70bB9R0n7QbPTW0A4bSP/ouD/lANlcRuBDJ+pXcSWYU8BgbWngkGeGrlKFS4gqbyqBSnDWKqK+okZ8CDjT+8vraxtt01qrbTy1pWllTUMM9gzEmeRinMPxbSzTtsFjtPeV7QfDLVZYNx3MBq3jHceBGT7qTIg61cuvQG8sbi8+qqhj/QkplMGfqbkhHTdMMSdhInhcVlNXfyWTBRIF7AGkr9P4haw1i6hVlp560q2kzyDOGd4J3YnMRHDeJbza9ycR0nPOEjLR1Pf9o7hFub9mkDInklO01wDXq1h58dgiYmtT8HKksnwcO6QaoCS2Zqvy/71Flv+9FZaeUvK4vJaR9Cx/bTN2+rAh0OQclFlnxp+NpvzMqsCnpjJwPAGcE0hbTVxTc6TuzlKnwjsXv47NlMoPd0oI8YSfz/D5Y9JwAqYgKrRaC6dM0BH6HsMm8B7szTabrucWmnlrSUSHUwX8UPAgkwnEJKne0dOcUey1wxLmJdNIvE+BWWHSI69azOQ+SjSF9avTibS9OQaEHPNsClpE3kamE+qFiozFFOlx0SGMZ5WXu6Qf4ah4BdW0vRDD5gD3m1xE/hwu5xaaeWtJTZPI58RWsCer2VCsk1HeaY8LsASyZ4SIEvKxsF4pyqS6gVen3GgZz6w/UeYnUm9RxNrQCRuEPD1tzCzwHx+53Nu4IB/RWMsoeiDUpcgBl50MXk5G2I4GKOXfcB3YP1pa0BaaeUtGYE8bnMRcdYwU2JcqYw6yEp3spRIiW0VPaaS7CoMj+tdIcqzKzoA9hEvZ/hXrQG5SxnY7gO/KPhKpP82twemOPROo42oKMtlcFF6B1YlylQRudR4RswU4jngzOLy2ivC19avXn6tXVattPJwy9Ly6gJw1vj7JZ626SkutY2rr/LUepEzV4HES+HoVnhACkiT2GrE1wjbv0so5LmDJ5fvZmIP0devXAIzELxu8RlifBmnTYFJIYSSELR4HPsLQQecHG/lx1jROVkHfFZiQfiRQHzVSiutvAVCj2mkOVnngYsS3aTcVnHeXEN5oBydz+bvt10WkeZ7UWGXIsgT6QbwaaC/cfXSxBqQ7mTPIwPDC5hbFh/APi+0VDbhqJxPRyBmxGGmkgq5osoXoainJMfiL+Y1czQcFOgfy/zG4vLqHcHN9auXd9pV1korD5csLq9NCWZs/11JP2I4T0DeJUfWLVNMcd6p/CXfU1JY9hjiXZXnKGHfgzW5Ibxt85uEStSJhlSaaAOyHppmDpaW1/Yxm4Y54wHQSU7NMy9A1bqHxFFIsfXTE/hmjJpsrrugGYs5wRnM1tLKWscw2GibDFtp5fSnrFbWsjXvHmge8yW25yVNxYflRf2m0s2lSFFV8uhSpVekUg1abYTO+tF2EdvAntD+pDcynwq4Dovbxu8B/jfELuJAVPk+4hmq1mfnM01zrJk9dvPndIAp2d8F/l+QnwNP0+JltdLKQyGhlIYO1rPgX5D0A0gLhCKeYhOi2FVUzZREFZ2VvaU4jFW9XyQ9GxlkzvFvYn4KuDUpiLunNgIpJ8FIHNhsY66BHjE+WzcGzZa9rNktU1XF6xWwXg9H+O1iZpAuAE/IvArstcuvlVZOvQWZknQe+RGbMyESqfQtV4KQuvUYtnNUc1mV9xefqV3EDmZL0o59OuiaT4UB2QjQ6tuLy2uvSPyq7e8Hvi2dBag/dgpZIopy3cIwZUak4CX2UJD4GQIa5w/aXkT6SeBGu/paaeV0i8Qc8MOgt4GXFO8cR9ES+ShKCTc+bBjjTcELSOsZnNOpkNMG07Ft8xLo6wRPAnMWUxHjfDShWUOOK909pCV4SWOPRY3fULEXIWwvIHqGp5aWV2eNX9u4+qMtj3orrZwyWVxZ64DPYT2C+NvAufQMVSmuXiNEYtRHlhy6EuFbqRqsxBHJQOjA5rrNHyogYJwaOVUGRGITs2XxLHjJpiczleKVRRg0Vs34qwQKoH4u0hCnukpCqfOY8+BvNJwVvM4EYtS00korR+wn4b8XLB4TvDMFOBJ17KvqHhFe99CgwwzD6itBldS32ZV4A+vD6HSlxU/XQXCYgwH4RaxfFtxCodpBWelc+S96jvIx8esQPafK+8qfTWMgfRfwI0YXllZWF9rl2Eorpyj6WF6dsX0G819i/5Dtjk1Hx9lPGl/niPfkTrCIxwDfRv4NzJ9kxuNUMaGeqghk/eqlLPRcvWHoC/7eUdbmXq3U0Zf5SQXukjMOhvh2uyxbaeXUpDOmMNPgd0iavf89Yhg76mEEeCB0B9gA31gPrKynSk4nVLm5LbFl81HgFvAu7F4ObVIeicR4+/GBeTbBCRSKo3K7NH0pSNjDsvd0Hegtf1bizaXl1X9oqb9x5VJbmdVKKxMqS8tr3ZCd8k+ALhidw+6W3cgk67worsmrN6PsdoIGXlwTn5KrINNOekBCaW8f+1WJddDvgvZP4/08lQZk42rOn7727zD/f3tnHxtXdp733zMdDKYMwaosw9K0rKiyoqjyWlGWjLJdO/bG3W78kTRugjqOLRYtQsJ2i8ANiqAw0P+MwMgfRYA0/aMgEyThpE5jtzAW2/X6I/Y6TtbOhlxvZFleb2V5rQi0orAsS7AsMZjO0z/OvXM/5g5JafVF8jyAluTcO/Nyec8573nf877Ps2bleU6U8WUl5xdFTWIqNIhz13KsvT1vlIScgbyxZ6OWjIdjmG2kelAzjIiIeHAjDyB0l08gjgJ1Qd3Jwp6xd5MjRiTpIs8XXRUbk1NqpOBY0q7z7Jy1d46aaQ51QZuGjeX5C2v79c+5r8WSbC8INYTeHPpCUrlJgcs+QsXI0qoQsi95lpKUiErNhg5KiScQE8afFvr89OziryK1l+YvdOJsjYh4QCKPuVZCScIHjX9c8IQd+O2c23SW0ku5NUOlElxKmSzlSnOzdSTjwirY6AjWER9in2sN7W+1PdEFOrZXgA74SL5MrlhN4T45qWKVlrMy3kJjIX213n02rBowZHwEOI59c3qutYqd0rFERETcz80mDINHQN+POWJUz1dcuseQ68I8D31hIt8omK4jLvWJ9K67+LVsA7gJXgW2jdr7+e+6rx3I8vzMJsD07OKvgcaNf7dy6Az8ueqaAN/q8GwS+lJGCRHJb2E+ZalLLPGNiHgA9pqcB/0T248Dp6BfWVADVwuz+7qyi/vK2xC/Dfqr5fkLV/b737V+QEbHiu1tQk/GkMQxdhwWg5yEdrm+w/AM+5EhoUnbb7S4KXMRiMy9ERH3CVNzrWGZEzZnwKckRgq9Gb00VDWh6u1/pc+GzarlNuYboNWD8Pc9EISAS/MzFxEvAM8AS9miXm72Ef1nHep/4KVW0eI/Kq71Pu8IcBbpp7DnDEfjFI6IuK+Rx7jFP5b8DkmPgyYK2g9SxcaxxzpRsY/UgExFeV3ptyHplWRT+czywoXPH4S/b/3gDBRtA//d+AzmPPJwdqhOH4Nm8WHv9lrxel74vvQ7pJ9wFKlp88TUbOu44LNLCxfacTpHRNwbTM8u1kEPY58SegdokpK4nAZmE4pl+/3rQnpWqnKBZ24bmqNot7dBbfDnJX0T2D4of+f6wRkybhv+WNK2zQ3sCcGR4ijZqUlwJ8qCIiVBgUa+7yMNaBwYB94keC3wLBAdSETEvdtS1i2fxbxB+NH8Sr+X9uJe2f6Oq0Vu8rvYLqDiZ7XBm8CfEgTyDsxaUD9QQwZ1MC8LfxT00xbvk2lY1DMZ3EzIvkj+bipr+fq4nKHQrdgTXYeyDeDNxtPA16dmF1eRnooiVBERdw9Tsy3A08ZjQh82Hq6qpCzy4A06I81XZbp6w1nQ03bJCQGoa/x5WX9kuATeAB2YwpoD40CW5mcAulOzixuSLoLPAW1EvVpIKqVWrPAVAwdUkRCtWMPXnw8VHg9dqH69zBB2bWpusbs8H0t7IyLuuPOYayG7Bowbxo3PDM4wDCqiKWkKuUS9XnFPHxtvZiJ1FCuGi4L1pYWZA5WJqB+0QSRp23Ad8ynBdcMc4pH8oMmGQH/RXqpe6cIuwrnzMOfYCFLf4T65yqIN/Wvj9cStXAOeitM9IuKO43xgyNa/B48Kar1+YbtfKJAB2Yakq1wFdWyXzj7z/SKutIG5bPSU0GcQz2MOXHPxgXMgiYZwZ2p2cRN0A7wutGW7iail1RW9BT7VQy8FED0Z5DLNf0ne2AX6g4wGJW9DYtghcHkN9tb0bGsYaMeD9YiIOxJ5NGTXbY8JxsGjiBFIGgFzbLi9jLOLriHNXsvFiKWX8O5x6TnrTE8WhD4b0AV1LG+CvwfaWJo/mHO9flAH1fLCzFXg6vTc4pjtK4j3YsZ6I0Rp4JkLQdOBVZYKcXXQm7EYlLc2lTaGjf8d0jXDGzFfjJFIRMQdyDrAw0jngF8yPg2qZao/SvjtlOO2yv1MtgFUbpcou78rROlZefbeShtmC/FVzOeWF2Z+4yD/7esHfXDZrCC+hVkzNGRG8uL2aVRRVdgnjAuMvb2ApedglD9HT9pMi5Fs0YZNEzgOnJqabT0kuI7YALpL8YA9ImLPmJ5rDWPGgVOYN4CHCwkqJYt8L9esXit4eFk9h1DMYuUOz5PQRPlyXhdVTXs2wv1tYMP2JeD6QX8G9YM/zPQs+I8FP450ynBWUHOu7K5IglZSssw5j973Kqaw8vXlvfK+tAywbEOMY34WcVrwI4Z5wXNEypOIiFvFCfC7MT+J9Gjal+F8d7mqUgZJ1aXzTLvZfFVut5hFHhkzb+YsijaSl9YQV0Af0wHq9zjEDsTdJJH0ReyXBSeBBqgh50JWcpGDKVE35yINZwMwC2WLJIyZNLsYaAPGgDPY/9DSOPaz03Ot9cjiGxGxY9RRAw9jzhufkfQm25P5OasyG0lacZkGJn1zW0UHUYhOMtp272DDdjeU7PI0+DqwZTjwc/nAO5DlhZku0J2ebT2FGAZmgSHhRhaGVvPghI1GrmQvJ1JV3tUoCWfzGgHFE/g+G+Oh4VB14fOGy7D/JC0jIu4DRhA/hzmFeJuKmguFSdlLUZXyz1Kpj6NURVluIM4cSbUNAnFqG/NxpLXl+Qubh+FB1A/LiDNeE2wa/TrwWlkfRK6B6ulIyA2X3iDqL/UrUhuoHCOXNALK7+2zIR9ziEb+FWZ9eq71McJ5SFQ2jIhII4/ZxbpDVPAvBd+P9DbkIEXbyyn3z9fsaKJa7yefYi5c7zsb2dkG9icNN0CXCcSuhwK1w/I/urwwswXakHlW8GeIThJy0hMadKIsVvkvvS//c+719HPS6o/89R1sYI5gJoXeAjxu3DhMjj0iYk8Ii3lN8FbEI7ZPARNBCTCZT5TmbBpgDJrTlOY7Fd8P+lqyYfQ1wVcEN5YXZtYOy2M5bAtVF7iEvWL0K+AfRVxIHGmtUOZdEcNU/+xib2qa9sqdsmda7FmpcIWNk4auzCJwfWp28VcFm0uHaDBGRPRHHq0hoGHzK4hJ47fhZN3yblN0N0kGV/5Y6Dzf3cbTQpcMnyIIRR2qYphD5UCSMtmt6dnFmvAVw+uSSomGodFTJMyPljTfmZZ2KD8wgzewS11KFMv8Cg1KA2wYmsnnngpRiI4gMz3XSkt8Y5VWxKHB1Fyrlky1IcEQ+ATmqNCRnrCfB2lwkNvclWhG8sechTOOCsqrQkmXy4muoIaKbwDfEawtLcwcOu2fw5oq2QS+AFyz+Y7g54AnspGVl70tCV1mozfnMIoblEw7vdyRWLyryobhBHAM+BxmCfl3HTQEXorLSsThgSdBx4U/YPQI6GjY6OXn1E4M2uH6QG7UEsN2nuOuKIVdbcPoBcGzoE8AL3JI2bYPpQNJdMo7U7OtTWAFuCG8YjwmqZEPZNmDdkBhx1K4Utz1qFLMqs9GzVAXDGONYU4I1qfnFjdtrYLbQHc5aq1HHKRU1VwrXbobNkdkjhmfAsaDiiB1CFREO89D7dFiRXmMtOv9tjuSNjA3EN+V2TjMlESH+rB2eeHCdeD69FxrE/i6rDnwqb0PQt/CgN37+xTOZIaQzwPnsZ4HLgH/QdJLHIIGpYhDF3EAqgHHEO8D3gR+HN9qoU/V3BrExKtbdDpAOOd4xugzy/MX/vCwP7VaHLhg+wZw2XDZ6DLQyaorevf0qi4oXMv+m5fA7FVhFe0kaSrl3rO7DctjoJPAY7bfCYxPz7VG4pOLOCDRRxMYMX7c9luwf9j2RF62qVghlZ9PLs4V58/OXbonXzmlpDor40zdyYah69AgeAXzFeFX4pOL5aJJJDLzEvDS1FxrEnwVdAwY7h3USRnVgfNNhikbb1GNrLenGbCxUY61dy82MCcQJwgcWhvAB4DV5PuIiP2+gRsRjCL9W8SY8NlC53dOlyN9PSNGTGlGio4j39CbdwhZ13l2ltI749zBRlA81YvAC4jfjk8tOpCKhZ3nQVcM54Ax0FkVDrrzh3IC99MvFiJkl7h4qG5mKjbSDrARvh4BDdl8AFifmlv8fWB9eX7m5fj0IvYbpmZbRwkVVu83GsU+CRoioREhiRSqhEJVmGsqleDS19Bb5LtTL2rZzUZSQXkNaV14MWkWjBWR0YH0Y2nhwsXp2cUacEnShO2zVXKY+XK/YsWG++SkilVazsp4Xf683WwAkKat3gOsy/oLQhFAdCAR+2/DJk/YGgW9DzgSNm3OTYVEHrrHkOvC/Aj9VCJPOJTOP5d6OPJp4eJ029lG0q1+w7Ai9JTkTmTNjg5kcDiNuoL/ZBiTdBT7iOHMbu8a/HPVNTGoXXGPaACjxv8GWJmea51LJDOfA7YOqnhNxP7G9Gyrhtyw9bDgjO2fBh8FJqvXokIsPmCWeQ/zcW9zt8+GWMFs2f4YcBPUjtFHdCC77IoAeFnmJvLNcBax26JfdW3Q/drl+p5QAzXAZ2yN2l4VWrPcBG1Pz7WwYXkh7pQiHgjHkS7VNaE6eNzihwjSCsermwFdpEyvIDu9/a+72XAqErWFtGFzUWIV3Fmaj+XzVatZRH7AhwW4JjFq+4ykXwJOAWdLraqlvYwrqNYqGpYGaxtW7KC08+7J6obeEG0gNhy04L9ueEry+tL8TNwxRdxXTM0uDoMeBc5J/nmsMcSoTVMqb2LLi3rVvMgkowsKb5VzbECz4Y42dC0RovuYQhPvdctdoSj6FiOQ3bE0f4HpuVYXWCdUO90wjGE2QU1EvaLHtZK7lz2/VrxuKvto+z8n6Lw3gRphQk4a/if2OKg+Nbe4Luguzc9EmviIe+g0WjUFfrkRYAQ8aXitYQI8IjRc1bfnPTTu2i6kC8qNhOHsQgzqCxxkw6ZDkFNYE6xg33SY/93luBGLDuSWncjsYkfiMubDwGPgnwGeEDpdliGrjjj24jiqwus0klF541X98aHesYHcAL1X8F5LvwCsgT6SOMJIhRJxD+Fxo2HMRxHjQo8lA7lWMXZvKSXSK3ffcZblpUL3bOMG6AXg94GnjNrgzqs7rjzYiCmsve6o5lpnMY8K3mE4DT6enEOQ7+co5FD71n7TXy844OxkIJFb+fuK94bf5xXsTcG8YV3ieaMNJYyhMbUVcScxPdcCu4Y0CgxjnzU6IvhFwxHw2eIY3euytOMYr2BAvC0bneA8uAJ8EekLguexO0sLcZ7ECOQOYHn+wkXg4vRs6zr4jOCXjScKO6m+wZlSK1bNh0GDvkjsNriiKy1YLLGNptes48l3v460CvyhzNeATyK2OaTkbxF3Kd6AmqQa+BGbM0IfEoyDh/oX9ezA2tUh9YAFvxSKu0S9fps2FBpyn0H6CvA7BPbr+FCjA7kbMZuvCG3afBaYlHjMuJaF5uVOkP7iw7QxMK8hkq9/VyIYkhNM63XbpgXwzkU1Mli5z+1FQ73fYcjoYfCo0IjNy9OzrVeMr0lsgogTJuK2Io/ZVhMxbnMMOGX0o8Ax8AhSPVNB6N8QuTcX3C8UWOWiknvz8yLMNZfODPdmA9MVesH4hsRnbF9TTMxEB3I3sTSf0J7MtkaQJ0GPAE2hmnMUJc4v4KkeeilISRf8PrmCkkyzXXydnM5z4RgxfV9Rxr2GGQY/injY9tsQTwFfElrHbFnEMD3idjGUUO38I+DdsidR0OzoneI5r6KWDXwlmx2V5HTkomvoydK6GOH3EsU90bZbs2HogJ+V9N2l+QufjI8yOpB7F4jAC6CXgd/ETFp+X+Ix6r2RrjSAzoXS6QQpS4V4cGKr+vVS17v7o331y5HUJY7YPIZ82tZbEevYn5meXdwAXkCK4lURgyOOuRa2T4OGBU8Y/x3EWWDCMIkYKo/b9DhPUhYRpAmm5IA7453K/UzGTaXcLkl2f1fIHm0kF7qGp8N5oD6BI6dcdCD3OhJZuHB9em6xDvoScFLmPUlJbSlaVp7Lin72LGOpGG2o6GCyyVEsKEnvy78/3ZnlD+tzNurJMz8JnAxNXGwhfRdz0/BiorQWEVGJ5FRvHDwG+kmkUcFDfRugZPwpX2rrolJn1sdBxhvnVCFQPYdQzDspTzFyyzZy4/sS8B3Mi0u/FZkbogO5P3FIx/ZzwCXDOtaPCf6ZRBNoOLfaF8ncSkVWOefR+17FFFb/JM6ciRwcRH6SVc2nPhswQZhQHwG2wb8IWpmaXfw00hWZS4bO8kKMSA511DHbOgkcM34H9tFANqomMCacnHMod9ag3MYnx2jby0Xl00ylUDvdADnPtJuU7b4KG4auRAf7k6CvGZ4UrKJYTBIdyP2KQsLB88b0bKtjuCI4mlQ4JTt91XosKGkaK8+uq+KC3osonE2kLCTPmHntCvr4fNLZWXXjLjbqhMk3CXQIaoxDEhPGa5aaMu3puVbHuJNGU/HA/WBjam4RBXGn8M8esTQGnMAcJ8guN/Jpo2x8pZFDNiCromdy8wLUG7/941VFB3GLNpxODtOx1AZuCF4R3FxauLAen3Z0IA9AIOItoedtvyTzJNL7gXdKPgEaya/cZT6fnt4B2Y5J5TqUsnJuKYqRCjMyVyq/dxuW6wq605OgR4Q3gQ3jZ2S+KfHfbK856MlHHMhIY5HgMHQE8XbMG4zfKWlceMyonqSFalnJYCG/RJ9Mc55HTv3RsQqDOB2vKobLr8JGiKy1Cn4G+DhB0fOG7RhV34mlL/4J7uAEnFscAsZsfkrwVsM5wajRqBTKfL1//uhb4C1bfyJ8FfEZh872FewOaAPcXV6YiSmAfT1mW3WgZjMsXAfGLEZkvc34ByXeAhol0K2XoocKVLQk7TTgB15+9Ta6TjZBmJeBL0k8aXNteWFmLT756EAe6ElpqIE/iPVD4H8OGiqO+J0exyDukmIUUd2pnp9RvmM2JDYIzYf/2fDXgqds1pYXLlyLT3xfp6tGhYZtv1PSGPYMYsjW0T2zT++FjLrvZw3oIr9jNtrAFyRdAn7NZnt54UKMnmMK68FHCI8F8JLEus3JhFRuOqlNr3vg1qrq54rXvYd77qANuzdWTgNHkbrg9anZ1nUC4dw6+KakLYImSRwID9amBqABbmKNG0YQo8DRJLr4YdvDwAimsTMViCt/LHSF7zYcvRvVyG3Z6IZ7dNnyJuaPgOshjRUPy6MD2SdYDvw5XeCzAFOzi+sE2pMzmIZRvTAz0rytXdr5p5GAS8qG2XtVUFHTgN3aHbGRUlI8kXziz4LWJVZslsDfEPoCgVNom1gO/GBtanBgbTYTEm/GvAH7YcFpo4lyBNtHAVIIUPPnDxWBxEAeN+6uDdFNbnwS+N7ywsxvxicfHci+h6TLhmvAbwhPIt4ODNseydZ3l4KKHDeWByd8vevEzGu632kbDGEmwNOSjgNvtNlE/vrU7OI24iKwiXVV0F1auBAp5e9NtFFLKveOYg8bnZVpWrwRaRhzTDBmNOGeTHL+mVcICbhqbBR524ryzjsxT99xG9vgbeALBInnz0FsDowO5IBgaf7ClenZVp1wqHcW8zAykkYKO61q97PDz1XfZ41YxXDkbtgI0rpCo4mNrmSMnkNsEPQVbkpcx44phHsVbYSy11rSgClcPgAADwdJREFUGT4GvMv2iEL0WCM8t76W1j1uh6o2SHu8/67Z2LbTlJUuAs8vR1nn6EAOVhjiTqhgYhP8YZvzgp8wnJOY3Cn5sHs5ivZw784JjjtiI9B5I/sho47EMYd01iri5tRca0X2d0FryC8BW6CriZONKa9bxNTcIphJoAk6DR4FjoFehxkHJiQNGY8j1U2V49hpDAxWBLw1h3B3bNisSrxi/HmhPzW+pKB9EyPd6EAOWhQyA7A1PdfaxqwjDYN/EHMq6yzPc2jljyuyiZfvyHUuMSylFA8u7Njy6eS7b6OngXIkaYMcCwebbiNdx76KaBq+J+tGoH6hlh5+RtzyrqSGaCqkoY7aTAi9wfik4bikEeN6vqs0a0Sl19iaz3QWmKF79+RPsNMEqYr9GTlq6XtlQ6Jte1Xom4ivYm0sLcTI456OwPgnuLeYnm2lKdyGoGl4RKHD95cRk0klTI9dNJv7ucVb6R3h7MKUF3RnXeh57QQVJUHvhY0cOgokdh2kLqZNoJdYdxC+etFwU+hbll8BXZd9fWlhZuuQj5cGMAqeRDoBnMJ+TaATYRg4GqRjVTeuYeqS6oRD81pPO7x35uDCM6rq/M7W62zlzzrCk89KOsF7Y+de2ZA62DeRfgfzDeOnEdtY7aQvKS4yMQI5wJHIQq+8tQ20p2Zbq5aHkG4K6og6pgY0yNGX5BdrpQu8B5EJqS8roML3Ksrp3EUbueKvevJtI5/MsN0AhpAmsGsW/xtrSyEN0Z6ea20B7WQZSavburKS790FdcHdpX2yeCSMtrXERddI9GSc+16oZqgbmhKjmAnsccNrglATE8CwYIwc8aB7AaJ6C3Fxx1jiTCuUx5azTCpxuKVOIU0hqV9g867ZcCd59uuIVfD3gNXlhZlIRxIjkIjpudaYAzfVrxPq8t+++6PzHh+tX8XwuH82JK3btMGXgC3EFQUqlb8E1gw3Za0gb2DWlhZmOvvkWdfoVeFpQjCOPGp0FPx9wEkFssIzmCHjo3uTaa36m/a/r6jidyvP+/7ZkHgRtAn+ELC9ND9zJa4aMQKJSJffJKWD+AvM31YgrztiezJEI+VndYuNWLf3W91XG7aT/2eNIg9h2oZtpBFCmeb/QqwZbQmvTc8tdmy2QjUY2zad5PylI+hid0M0pE6yPHWNu0lKrQvuSuomqnedlLQv/AquyWQEg1LNdi1wOVFPiC/rSdqlBqoRooy076eZRBdDhnpybjGEGLUZwfpbwBiiiZkwSWQGzVv/W3vH5doDP++BstGV6NjcENqwvYTYENokNgXGCCRiMKbmWsOY8xLnjf+FYAwYrd6dVfE5wM50JrcaHTz4NhwcSkfois0W4RxlA/grOekTENu2OoIti47MFqIDbGPaiLbxtlAH2KLndFTDDFnUsZtCDUTDuAmqYw8J1YN0MHVJTaCBaYL/LjBsdBw8pITJFmmsst/htr/m/hL53OH+tbGFtYn4A8yy4cnlyJ4bI5CIPe3u2hLXwsYXDH8fcUKhVPMIhU72QemkQQty1U7wdurzHywb4WxFdcLZQAdrWGLbsIncMeqEXhR3De2wBqqN6SaaEF2Fg/6OoSvcDoVl+n/GfwOpgcNhNXbNqC4UOM+khsO1RrjmQOcv1RUOuhuY0eT8Zzibd8U0UO/AW7fiYNW/qEsDU00Pro0QdWBvGq4Krlq8DP5zxLWk6CIiRiARe8X07GKNQKH9mK1pifcTdrDNO+KmqKCOv9Ou8ADYcKlsuTIp0y/Rsufr0UaqPuCu0XXEU7K/jPQMgVctOo8YgUTc8sKlsCsGXRJeAV0DRrF/3mJE6KFk1vYr9RTWU1emGpRvEBxEzputDIfWRk8Rb8ddWO5DSoJfe3Frh9mG0SvgTcN/QV7FegG4CWw5NgXGCCTiDkUkc60J7CHQRy3GsR/vf5zeJZWUu28g6V0Vvfsht9HrxNzpnltJzUUbOafzgu014COS1pfmL8QKqxiBRNwFrIbqHz4SHAlPAH8P9B5IqLj7dtFVk7dIUFe8r//7PtbUQ2Uj973L5an991TbgMHaLIfQhrSN3Ub6lOCazScI5dk3glhZRIxAIu4qpmYXG8ATiFNYH0AewYyJnvJhrTCtyyqhOUkFlTMWpcxOqo5rZQ2HzimIHmQbvfdV5eyr0o4UpL53vT+9eKBtZH/HtBF0U6HK7feQ/gfmDxDbkQ8tOpCIe5fOSjUeauAG6IzgnPG7hB6yfSxhyy1sDu2Khz7w9TIHxYCN+gG34ZyuvAqaKs66rZWtoC5TOCW3ph8cekZysvUH3gYdB9GxlxCfxjwPXBRsInVtOssLUYAsOpCI+xGJEMpJfQLpNPgncOBMUmhEG0vKShsDB4GqBeKy1ytW3NzOHe0uMLdfbfQiHGXkLAldevY1R8ThhAiQ3uv9Xwf1VRwwGx0HuplVYFv4GuiK4cvAi4KXjduJ+FpEdCARD0RkMtuqJU/2cQJn0odtjyCdErukeHLn0SqvCyovFYlWeu7NljhoNkoksP1FSrnltJgfK/0e+aim4hz6ANpYwd4E/iPSDeNPCXWX5qOo2EFCPEQ/eOgSzkFWDJvgp4ERwQrmCOIoeAg0lF9MXSFBnV+MlSys2SqhQqqnkCfPfdZ+t6Hcm92LZjK22SyHk08B9W/PnFN9zO/8U2ry/W+DttC27OtI67YvgTaFXzLeECldTESMQCL2V1Qy1xqxeYvgIcTP2D4GmkyXhF4aoyBjm76eW0TzC0uJzcLJ9Ty7hXOftm9tFJxJmvoppsbUVzXc319ilzS+84v3QbBh1hCrmCeRv27racS6TGcpnm/ECCRiH8NsIy7b3FTQZj+B/Dqsc6BR4DgqjgVRtbi4sGPPTk+zg9PeRVV0h6t69/JA26hsLMy9pv4oRgVj6eeWy8dKuZ/9Z6OLuQGsGb+IuA58G7gihyZABXLQiBiBRByoiGS2dRI4ZvkXhE4Ab2aHQ/bogKluHdnj7Xt63/6z0QEu2VxFfFz2y5YuyftHlyUiRiARt7cergBroBs2Q6TqduKtmFGJc5iGRbO6wxt2ZsnVjjtfSlHEg23D1bdV8gKq133tQfu1ncqJH1wbneTfJaQ14S/b2gR/VUHzfgWlEUfck8YIJOLwRCNzLWzOII5g/1NgUtJbbIYQw0oPXhPtC9uHboL4VVPW7z8bSVlvV+HAfNu4DXpO4gbmvxqvA89FCdkYgUQc9l2EeBmoGS4DtaBboWOYk0Y/Bj4GegQYSWjNKzbt5WaK/M4/jQTcL4WbvDejzsjtax4UG71d+aAopsqGKgKl0gE0VTv/+26jK9jCfkHSNeQ/w7wEugreDNrjbAvF842IOAQi+iKSWqLJfgxxwvZ54AeARwnlwCNBA4NmuE/1anW6KtK9QQn4AXxMvYinuMrfWxtV02QQYSN7fM0VrLX3yYZSbXm2sbugLQIv1RKh4OLPgcuCq4h2pBuJiA4kYk+pLUjLNMEOwkiCdwNjSO/CHg/d73Brp7fc5n3328ZesX9sGK5j1sFPAX8t6ZM225ibue5KYqoqIjqQiNt3KLOtJiHl+ajxiMQ/MBpLJFqHDcMKjMANWyMKUUptcHSw02K3K8XfgGt328btLtR+ldPt1dlIIqwueCNUT2kDe0vSJviarXXkr8jaMPwJ0I7ysRHRgUTc7Shl2HgUdA58WmgKGMWch1DFpXQB6/XuZV3MaYd0Ps2ScjJlzN+ZBBFV78n/fM9sKHeMkPWPgHNHM7n0kQBnLFKDeFLumo2g8d4RvABeA72I+ZbxRaRry/PRWUTcHuIhesTtJ1FMG7QBXJG0AazYHpK0ZLshMwlqIsYxI4Yj4CNIQ4TD+h57Kw5LX6+zOWnoS1NohQNzKcvvO98AmONtyu3MX40NEhNpR3vqmIrEjT2h8J4TcN5Z2VnTXo93iuy8PnEWt2uD9FWxbbOBWBNsYt802kZcF7SB79jaVijjvgm6GXTiIyJiBBLx4EQmDaCB/bBhVOJHjI4JTtqcAMYUGIJr+dW+R2xYofmRRgcqvFCmIckNaGUkgXfSRp76pK+Wqeq6imSEWRRU/H1fjY3EBXWR1kJKiiuIa7K+Bqwhnge2l+YvbMXRGREjkIgHHR2ga3hJqAlclcM5CXgUaBpeDzSxTyOahI74YcFYspDXyO3O8/vwMmNivlS1sGEvXCt20xU/Ym82gmyGyDfxpdVgLhJzZddd/Jou+ym9vAux0k42wKiLvU5o3rsC2iZobGwbvo3ZkrQm2LS9abwm0ba1KUUiw4gYgUTs9+hkttVArts6Bx5BvBUYwZpGHhU6jqkFsayDPvk0sJ98wDu6wivAhqXnZTaMvySxgbUEbi8tzMQoIyJGIBEHdtVMD3RfBNUxLyJqiCFDHdwMZyWMEPRMmqAfEDQsHxM0jSbAI7JGjYd6yos77pMqOTvye392pjN5NV9zMUYxF9WRte1wsL0B3BRsWb6O2Qb+EtiSdDOcbXg9iTra4C2jLmjLpiOxFfeDETECiTi80clcq+ZwuD6KGQEmQcPAceQm6PXYQ+F1RiXGbEaEGsa15CC5FiQrXCtrnYNq2Z6/j4W2lh5wpy4lqXSqgbt26ZMCRXw3/YyCQp/d7Um7ZvTy3Z7iX2jew9CW2bK8irWGWMFsgb9NSFNdBbaEVozXAw9VbOaLiBFIREQfHGg0ujarSKvgV5J1vJacC9SSHU9Ib4UKrOGgCc8xQ1P2cYsG5ghQN/xNoEl4rWmpJjNsuQYM47Sr3o30HgIz8RBQM67LdARbhLOdbYeu7TbSNhn1R8diE7sraRu77RAt/F/jjtCGwvtfcYguXpHYRmyCuknTXjf5/+0mrqqbOMUuBpmu45YvIkYgERF3LGppGuoyR4FmiE5cT9JgtSQ6aUqq224mzY3fF6IRhjC10K8SdONtGmFjpaZEDVwHdW22FNJvbdttUFtyO9H93koOqf8PCS2I7bakNvTu2UxKaVcsb4NWkmhiMz7FiIiIiIiIiIiIiIiIiIiIiIiIiIiIiIiIiIiIiIiIiIiIiIiIiIiIiIiIiIiIiIiIiIiIiIiIiIiIiIiIiIiIiIiIiIiIiIiIiIiIiIiIiIiIiIiIiIiIiIiIiIiIiIiIiIiIiIiIiIiIiIiIiIiIiIh7h/8PbOLGodQDfjMAAAAASUVORK5CYII=;" parent="1" vertex="1">
          <mxGeometry x="305" y="329" width="50" height="50" as="geometry" />
        </mxCell>
        <mxCell id="o3aBx_VyT8-OBaSvo29I-605" value="" style="endArrow=classic;html=1;entryX=0.5;entryY=0.005;entryDx=0;entryDy=0;entryPerimeter=0;edgeStyle=orthogonalEdgeStyle;" parent="1" source="o3aBx_VyT8-OBaSvo29I-594" target="o3aBx_VyT8-OBaSvo29I-596" edge="1">
          <mxGeometry width="50" height="50" relative="1" as="geometry">
            <mxPoint x="500" y="439" as="sourcePoint" />
            <mxPoint x="550" y="389" as="targetPoint" />
          </mxGeometry>
        </mxCell>
        <mxCell id="o3aBx_VyT8-OBaSvo29I-608" value="" style="endArrow=classic;html=1;entryX=0.5;entryY=0.005;entryDx=0;entryDy=0;entryPerimeter=0;edgeStyle=orthogonalEdgeStyle;" parent="1" source="o3aBx_VyT8-OBaSvo29I-590" target="o3aBx_VyT8-OBaSvo29I-596" edge="1">
          <mxGeometry width="50" height="50" relative="1" as="geometry">
            <mxPoint x="530" y="200" as="sourcePoint" />
            <mxPoint x="452" y="259.25" as="targetPoint" />
          </mxGeometry>
        </mxCell>
        <mxCell id="o3aBx_VyT8-OBaSvo29I-612" value=":9090" style="text;html=1;strokeColor=none;fillColor=none;align=center;verticalAlign=middle;whiteSpace=wrap;rounded=0;" parent="1" vertex="1">
          <mxGeometry x="309" y="379" width="40" height="20" as="geometry" />
        </mxCell>
        <mxCell id="o3aBx_VyT8-OBaSvo29I-616" value="::3306" style="text;html=1;strokeColor=none;fillColor=none;align=center;verticalAlign=middle;whiteSpace=wrap;rounded=0;" parent="1" vertex="1">
          <mxGeometry x="470" y="464" width="40" height="20" as="geometry" />
        </mxCell>
        <mxCell id="o3aBx_VyT8-OBaSvo29I-617" value="" style="rounded=1;whiteSpace=wrap;html=1;strokeColor=#000033;dashed=1;" parent="1" vertex="1">
          <mxGeometry x="510" y="329" width="70" height="70" as="geometry" />
        </mxCell>
        <mxCell id="o3aBx_VyT8-OBaSvo29I-619" value="" style="rounded=1;whiteSpace=wrap;html=1;strokeColor=#000033;dashed=1;" parent="1" vertex="1">
          <mxGeometry x="510" y="439" width="70" height="70" as="geometry" />
        </mxCell>
        <mxCell id="o3aBx_VyT8-OBaSvo29I-618" value="" style="shape=image;imageAspect=0;aspect=fixed;verticalLabelPosition=bottom;verticalAlign=top;image=data:image/png,iVBORw0KGgoAAAANSUhEUgAAAN8AAADeCAMAAACKeyW7AAAAxlBMVEVMaXGJLKCJLKCJLKCJLKCJLKCJLKCJLKCJLKCJLKCJLKCMMqPIqNLkz+rYud/p5u749vr///+wdr+2hcOhWrLx8fGpabqRO6bU1NfPztDh4uKZS6zX2Nq/lMq5urujo6OWl5eurq9+fn1MS0wlJSYAAAAXFxc9PT5oaWeKi4rFxMgeHh4vMDBfX1sJBwkQDxBxcnJjY2AiCyg4HExbH2p2J4rN2eu0x+J1mMqhrLyTr9ZWgb08brQ9XYlHaJdsf5u6XV38fn6rTNmaAAAACnRSTlMAbcLc7Jr79kIeqDI9iAAAAAFvck5UAc+id5oAABlcSURBVHhe7V2LQuLIEl3HGUYBJ0GNJoB5EkgCCYnvx6i7//9Tt6ofeUM6gDq7lzN7R0dD6JPqrjpVXc3966899thjjz322GOPPfbYY4899thjjz3+DTj4Vo/Duj/1+F7Cj6b3/ET86HZ+djqV/3UBnZo/Quj8OQSPRMfcCp2Dpvf9JBz/bBrqRuh8P2p650/B8SEMptc/OflV918tpHrIGU56cNPD46b3/gz8wIfdH+wYv9CC35re+xNwgE/6tGm47XGGj+3rfcwRDuNcbhptGygK+XIBN/751T7m+DuM4lIiw1o76BZQtSE+L2WEBL/Yx3xD853gaFRtRwQlTdPIN+hjOl/rY370uG8Zapq6dtjCAHoS/Q59TPcrfcwBDuCiPKztkH9Q6GO+UMcQ3zJivgWn1Q7cjAy3ySY6+pjuV/mYnG9BjDVtWDvkVgDzjbN/ER/zVTqG+JZf2VgKT35DyKWbnFx+mY4huuUqN5ZduJjKJPgyH5P3LRSyurWLUaqL+It0zNHPnG9h2N7FyOPqGkYf8+m5Ek0aytYar7GfPNZ1wzQNS1+7Squ/k79Cx5R8Cx9KvfVk3XYmbg7TmWeI+9ovyJV+dEq+ZTWG/sytxcQLml7L8Ok+pupbVkAxMnLzxcxxQmc2m0Tk3/D33Baz4tXn+pjjn2C+UXOsU+wpM1XoW9o4haobHucdak13QXyqjqG+5aRpTIq9JAxmfjCugWaE9PeOAEP0MZ3P8jHfOnW+pQyD2G4e15IjUDWTWjFungqfqGOIbzlrGM+YjHziqyvZUYqWg9dNrYbbfaKPIcXO84bRGEvwHtMmdpQheRJJowk/yceQYufl+tHIMfUcTdwYTJzJi8ZV+Dk6RsC3SAtceFYTrQwaTtLIWntTpmM6H+xjiG5ZX+wcolSZiRqPwofpHJlrb/spOuYAF9/6Yqc2B3p2E6EydPKqtTcGH9P7YB8jUOwcw2KK/CY6VQQ4qf11dx58uI8pFSTqIMHkXBpNZOqgoR9tmqIfq2PSYudKKGCFaCN6lGCTk/nQXCkrdq5EiDZoIrIKGtg+aqhwEB3z/UN8jEDSYOIaaqKxGgE4mUVDoP8wHXOEsmy01rdo4OVDAc2yEjreYN07DD7Mxwj4FhkW36Rd3CtB9WECGOveY/BRPqa+IFEADC7Smyg0wIncacMM/RAdUyl2VjGEdC5uGn8TNAif3tq3gRi0+1xJwLeg75xss/go0EU11WV27mPqip1ljHHp8FGqvjOZL7zVuW0ORuLMEiN9MhAFnbVvNNi5j6kvdpaQgKjmY7RoNTASmK/WglzqTni+oQsYcMc+RsC3DIZRZj4rcie2pZuQ9oSreDEYS3eamKY3zWSPI2DAneoYoWInpLQLNsBg6Tp0upnLJjGzcB2IKCqkgBH3vWjAxmRX6u1Mxxx0mn3LYAAG4FwCZ8ZXU2M01GJ+qZPmVE6zC92hjxErdsJDX+ZGPd4GBtyreZtmRz5GsNgJwSFpGrcwJs0iZrArH0OKnY3dVzLE9kLBpX8xuhxdXK1ikEdwen45Or/Khc5YwMPsSMcIFTsHg8B1p/khn+Oz7XZ6o8YIqBIzAC6zhwGTPWqeoETHdLbzMULFzgGRnk425v5ll6PXr1LKQx2ll3bO0p/CBNWb3nKwAx8jUuwkcPJ5n3rZHfXHxuT6Bgmu9zVg6N7t9bUlnZx2un3+U9AKcdNbItDH9LbwMWK+BQDLL8scTruXOLukqbu8g8iyTpP24Q1uWNIOL+OXmpG7aHhHiu18jECxk0KCBZOOWe2x19iuew03SA2oWoZv+75pZYsSZuctdyYn3Q5fghqEeIEFuKWPESh2MoB7maRjvuJaDmSae9vrsmVl2UkYwn+I2KCkVRidy+ei3MlsPReQMATS5vUYgWInh5l3L2fdrsV/6sISPMUf6nHCyRF4RG3C9Lxzuf00kBH8HjOhCIggfb6HTVxqIFCQSAEz0Uv5gaO4xacizym/C7CTScjZhq5pgeV7yNCGWdrv4PRkztLpdS/5PWJBBzOgPmaTHjxcfL3GXUyK2I2yTAjsd7sIFFKQpvZTbWKxzA/r5AfBOKD2c5e+ZjnXOfvZzXWmFJv5GIFiZwYvv+MARrlzOW4h81B9sJ5P2Q1ZfdNKkCC4ou6SX3qT87XgQAUUDMVGPkakIJEhzG854KBv2Jiv4XvNBGNZcJVseDBllw6hOoZJamP4u2WXRvCGqYSxXMEAgdjAxwgUO/NwClVr7Bi7pvTuet2LAExFnIWNLCCPcmf4LyRogK3Zs4ggVKbLDxXafP1b5kH3lVoQbONbEEV+Gk4YECXXt3gXDWYn2fgCDT7zbDt2Iur7LZih2ilccndzfX0D9Dr99BYQcJbr37KAtrmSSEEijyK/sYYTBp8p0As0mJ2kiydwpzbBgu2DgZOxVKrEydW5bEMFg659xxJOW/kYgWJnESV+Y40nBee/xkYYUjrAL7Z94DeJ6A90XIHqGX0QKFlzcAUFDEMrHyNWkMgj4ycpijKEr8HZ+ej8NAB/6IchzQXkibvE+TmHTJ/8QIEJig/j7Px8dNFHRTOEVyvkPiB9BGR9BlrzbWJGgapa3LcgUn4KgZS3BMxC1lAtgSqZweqb8D0w8DCF7GJIX47fQtQQX/4IkiuJuZjDdotvkPFjAyQW5IjZ8htg30gE3tNJBw6/KuS/7NVIcOq6Yq13HBIM+nsTMwpYfr0r7BVWh4qYGTk/PsC8AeMwISO10IoBbSIYGoRjXLQffzrIDzJc0V5uWRmq6qAvftzsgC4/7DbWgKPUzHEdP5ifGA5k14W/Fao1Z+RvGQJj7sIyP5EEQpaGZJSafCbuQI/Rr5N2eI6mpTBjtWuJDTA/P0FaY3RX3Qn8PaR5QUIaCSByFOr3eX4LkQrFOBshOSgh6D//wuhOzkwNh+34DbMBMqg6+M9YxgLpUpf1ReTOzaG6ILMUdFsS+0a2BHPWhztaDW+a8hsOlYEs7l5oeOcORpGGzSfDOD9mQG4+zbBp1oemSIgMm9LtlAUwHmOWhL/1TE4xezqOGzUngENNHbPDgug+BZcfXYD5vL2J3mCRVj+HEjwQ+m3gJ8AuNsGA6GFkf75c+PLAmk3n2PApg3fxNZ1mgzar3kgSezhhcy8M3CL79qrXQqBh5j5afdsqFvnqLs1xNKRlY1dyAAS8yiOS6e/xYt2EK+LiznbY3MxUwEWr3kIUMI1Gy2FSql5Dwg6mI9MO1x/Mwjh3aAqh2KRMkXhkY1MzPMgQ87HCixq70QrotVh+xQUognmpsSCAoIf1B7Ai8PQNXGVW7oHJOk5KQzNgjnrkyahwjZd7RrZ4gQJxIh7dEViVby7KZwC1mH/4kJzT6QY0ElMjxaUQvyMUZdUgBRiy6LBSYZPXBnaSe0ZtChSAfq+Fe6ELUKAqzwGx283RU+2QdiabpIqkwpfYZmWz2KbcwhgWXWLAYrW8xKPE8lPAFNpiSXEqHt0RGOF7zbKFQyps/sGspBMN/CesLmCLXyybhYOELju4CnhjVUODCyrNvq0KFINBm+iOOOw2NAoWANnovDxAQg+HbYfcPKZNKqAQMpilYB6jobF6WCbYLoFXMLo3ccoDM1zxBDfI9t4zwKCRhh/mu0S0INBy+xEQOkhdCnLgEkG1VYLbKrojDlpluFauNYTDoPSMsNQEU9xt0ZOQCB/2MHJolSBh/UU4uiOYxBaEX+0D0enkDJKyYUqwwoTwN9nXFBOBLpgU5+3cy19EYgttjBHElcYzzQtJwmQnTe2gfkgqw6pfulBIYHNAdOiIR3cEbruLVq9J+lecd6pJRq2HXlMrBTyJWgsnze30KVpGdwQswJ7Q1hhimt/dzMMOm3uxrTAuPhsKv0WA77ddfu0kNu5u1m7SBmHSZD4wdVxrQMMlCbEQWkZ3ghYS26oLDwg/LLZnDQES/lX4qRGWFi+BGolX0C5bRndEC4nt5Xf/8kP0svLYUOK1C5qiSxlHuMy2ndkcj5xFy/kstMnu7kLYwWAvWqeJTxkY4UUkthyYS3KWFsa2cGIz5+Wt0ObklDpQilZSOFpNN1tmnp64UXMXGkHr6I4Qktiy4SzdIqJFmqmqOvluqKyEpMfzCjmGufAW0ll79yIksYdemRxFNMt5zTXslCCkJ6ndSWibeqChfrPM2Ek5W2vfn+N8g+XXLLEVj45h7uDYwH9quuGHrBt3kZVjVgJ75V3c74QMkbtf9jXwHXofgZO5A7ld7s7RILH58eFy4AvYcf4w3S9ZAXq6erbqDGvgk2U5ba6iYXQX3FnJY63Elkm1b2HUDk7HU0juRB8rq6ERQ8+sdc1NJrnGyUUJ+f7h8bE8lg2iO2KdxFbQRtOVvceqjr9fWqvpGWi8eaO4ISdzp0/S/f3Dw/Pj48tvRHnKXmwQ3RHfVy5AcsDWWStN8KBNtJJgjKGuVpaVoJGp8Po7j4fSaDaJ7ohv2N1YR09G66w/gaqOLXj0S72eXiJkPAqyzm84t5fnh/vSaHBj7GcTlzqUq9gp8Jk2H23Xp9jzWkcPfaP4+WMdJ8vs8RmY1eq1jaI7YpXENqj1LGc+d+qUcRAvJg5YR4c1Nquhh3HFaXw8GcjB1dW5EkT3nxu4l79WSWxpSZrpfBqaq3bU6WeGeCQFcP0KPeyCaTr1UYSKBi9qNekhlR6bRXdEvcSGZH2q4UnEULfCfFcyg+MuTAscCFgQLLUsh0CrpfUAqooWzKoV98+PmZfBjbGWuTtHbRUbz+FgYPDJcQCzOlI1xqXlo//Bo/BxkR42Dsza0QNgtJxKuF37gNwQPAxuGN0RtRI7XpXs1QFPPBYNCJaYkhRDNWfT5SJe52bUwJstZqR6j2t5weIfpcft17p0lqFWYk95K4ga9FcOTusH1EagsWZvMfljv7/b77iSSGDQ2Of3TNeECTvKLjGjLAxCkMhGtWl0R9RIbFg+Uxy6eophdVR7gKOP1fLeBbIHZzLNhebfEUuFYUUtbT0ABTZfOVnxlIdp+Qt6sgxiZgTUHp/viy7vciNxTVEjsT16DkfjxxYuquM669BfXcI81KKC+oBlNCdGN6IpFebVnYcUxpKUDNWQFB/x4GpYzdc2ju6IGok9ofNr1B31r+66hUMZFCq2PHburn5dkHZ/mIavoBwpXty0j8sSkC+sFKCSS1UTe/Qr/Fq0vVRRldhYKgMDXPWwfyvA7tzK+Y3LTvd2ic78HDvn7fw+V8k3ab8aRYwa/Ern7yKqOTbXou2lBhWJrdMRXtC4MXHvCl2NZEDwkohs/Vx1LyGTyFUZUBmkOYd6hlN8dLYuVgQXkLr2zvv0XwY640EJbTfGiqhUsbEvGt7qkkxbeUrax4sjvCIdx6gU4dGqpMzHHYKZOyWh8SNKo9U2ZJ2TnR5bA4uqTGvV9lJFpYpt050GeGo6mW78eIOmW7pOiGL3vBs5ysDqIr/8PsksyzrAP12ent8RgqssSJpy70ZXF3yOwPOZlvj92vDwA0NFYid0iKD5biaoM2EBno1VK6Ybl76eds9H02vaT+2kJzWGKLLY2E/JiVADn093xRRVe3CnJbrMfrdDjKwuK01brdpealCW2CE9JwZGusOqJx4vCoI45Eh8Ne2ev6PBI2vU8bNdQriICNsZErys53dGzkYQjzmikwTvVdqTuNjyI87LEps1Cqq4em5vboHLhU421G3TRyMmtgbj6t3d3AK9HlrLSxdN7gwdeHWSy3nkMfRr+Z2T5yRTFvTgh1WZoJuVzjKUq9i8EbLf4+6BdCdZZBhDPOjgj1nHOFs16UkbOXeG7qzbIbphQQ+A0B+q9ONP+RQekaMfOB+Vy26P/mxZ6prcYGOsiLLEThuRAypgLjQ7DGP02oShjn0841NC/rJP5p3No5aWO8KKTlajByI4Pz09XhabGuN3DcElGEhOejLCKXVttWx7qQIjfDenimbZKff+2dmZpgYhth9L8SyaOuBHDNLSqV2dnfXZqkr38XJnzNQ+TOFosmTLNMDmnvTsHHyToGI5Z+t4GaUHk/DjYQpdMZtsjBVRkthO+iEMQ9qjC1PSpCfFMFnHllyyj66O+S5Yyi+/iZ0d4aH+xaInykxLN9jhMg1tfEcSCDzZws8QlvYktovuiJLEnuUbyZEA6T623Gloew5uSPq0lSX9fdaIlD+iq6KsuoncJYkPYwuNhi3ZYx1lnw2mtDX0YXfXeMYnE4F5tTBg0b2JwXrgWYicxJ5F1H40WR2y7n/Tndi2neCRE9bJkv4e+ZHjRqUeSp5/4NRDDwxr2CJ7UYtYGWA/nq/200syDVjsqti4dJaB5LjkZo+QVkqsUXeY45do+LlSczxWFJKeYyv/e1SNM+XhmSTG+UYf7mXPVRXipy1jeHSX5JMkuZ+6Yk66k0ncTC0gtsjdU6QSmxYHXm/eQIdl4/cTbD7WSM3Mk8mZIj3lB0tUe78h+Z/EewyHjLd6NYLh48cWgMk9CXssnRhnwRJjgkGOtmiYRF9e4GPBjSip3Pbavu2lCl7FlnJZ+NsbFlvJOA169k1J6GewYss/skByDw/vb2/8JQ8DeABq4YgKjJ/42Jj0Z4/diJ6+mqEewOZlEixV6ob5A/UKErt920sVaRVbvn/OF3gAL29vb++vXvyg3d8P9aE0vL9/8ry3d6D1UrwSqwr0CLmSWpYDIgwaHvh59PQVYWDR3kIO/jI7XwjdOrojihJben8rbnY0Ah4B2TFQSA9l/ogDg4ERZkD8a2jb8ZSevhrjgd2sO4G/zMwr0A03xkrAj2golnTGT8Dy7XcTXl/f3vX0lVItv8BEcW7hBTJ+/haevhrTfyH4yYH0ZUb+XO720R2xqlFEVp9MmImvb4jfhC58eXt9RV7m07hUC6rjh6oFZQtLerARww3ZE8FkhJwcAIZqxo9HG8SmG2NFiPViw9pQ1u6Vsx5fNk5cf3iCwPNRdxr0Dlh8BOuQGoSCUj0ITGCPcpS/zIgyftjU2rrtpYqcxH64F285LYPxy/ynHmPHOSaPCbp8eblcoBybzMlngGpo2MTEJuYkJxjybcs7iO6InMR+IbVj0a6pIoasR3soMeFm4NSzkgQJKrRH3XX+RopoTtS1EFttdRwY/GUSEaBpV9pGbS81SCU2D4Evj8/tLTksfsIPwKIN2JpHQ+jCdf4B/E0O/g0xT9J0LyltUOTLcZtvjBWRSmzpOR/VXh5xTxXiPPn/7VvJa8CexDAq88MGrtAcEx8zxmJM9Pc///y9wCUoY7qU2HhOpEgwYBm8tHHbSxX5KrZ8z/enKijvi/NXUHtLVfvR5msj9ICMNyS1q2gKSlYiZ5NC3YPfanFY2OjX8JOZHp5/v2y1MVZEJrEZcBOuynLFjL3nv3+9mT0Wm4FskCjYvoszNIEYYeJnL3vKYIin6oyxjqmkVmggUp8mVM6Cnt1NdEfU92JL2JOCTSkvVIytsN99Uam9vb6/6yy110zMj23c50sw0CkDaSgPyMdVhHQLNbOdamGsTW/zcr/VxlgR334K9GKvWYLDh/KkRlXw/v6kjzWa7rMSIx7/p5VUkilqSRgETz6KpYJaenxGF76b6I5Y2ShSj4fnh5pIrzzXSdfXMHlFBfTOKsS0/uLFRBi9voZe+QWQutAHudXGWBFterEBaKuXx0ofDoH29F6wxVuY/uuVHbxKMmlbuBTVbO4o946iOwFKbPGoni64yl7rgJQR5YESPGESVZXoNT97IzM5qNxo87aXKlr0Yg9Y+wYHGnL1ypSHwRNQfScanUl1Cvjh05Ne37FEsKvojhDtxc4gPRRy4U0Ez2DtC7Zoe6lCqBe7AqnkNjHMbyheq9hZdEcQiS18GqmA+4fnYgD8/fJCdd29JPjhFnX4NdpZdEegxO5ebMZwQC1ZYpmSfXl8eSyi6W6M3a6iO4J8oA9+Gk/TO68DCJ5VNAtouk+f1YbbfWLWWhx/o7fsjrZiSKDc33NdtwE/mbPr/tgdPcBRyrC/+aqpQFaUe+ke8UD+EKy7PmO3q9iQ4vgb70u62iHDNpD558J2dms7juMflGHvSxim7HY8M/M4/vGTvkXvTOBgyS4hXzF2Pz+OHYIx7G3LUFqnZ2TwQYVfK3wr6fvHskMcHzAbdk+3ECM0ySCR/gGD/T1+eX5+Tk9x5O4tcXY7E9QNOPjOZunmIb8xDqZuVOIfcHf4SewQWzN8XBX9CEDVMH7SaY/S+747tSKEg0M2SzcWNQqt4Dw/sv5QnJ04V3NJrHTK3uSz2SGODkm46G3OsAEnnN3hF7BDHO1QtlVwwj+D8qvYIY5SUbNL2Tb4Q9ghjlhu0dslwxPeXXG4c5nZHseM4c6E6S/O7tsfwA7BhWn3cjtRQ/DHsUPkhOkWomaQpuZ/FjvEcRryN5dtMmfX2316tz04w96GlZo0ee20+SjrTwUXNRvIto8qPOwYG8q2j07Nd4ijQzZLxRnKaafgH88Okcq2818iAVH5pNR8h2hRbVN4evcJqfkOcfSNBcT1sg2SV57e/ZvYIY6aZdu/mB0iFTX1sk065YWHL04RNscahl+evO4GabWtKNtOLv71tuM4rtai0uT127+eHUGR4R+VvO4IqWy76P+J6d0OcHDIcuD/JDtEKmogAfrvsUOwatsfm95tD2D4H2a3xx577LHHHnvssccee+yxxx577PH/h/8B5sAJItKCw7EAAAAASUVORK5CYII=;" parent="1" vertex="1">
          <mxGeometry x="560" y="499" width="30.13" height="30" as="geometry" />
        </mxCell>
        <mxCell id="o3aBx_VyT8-OBaSvo29I-593" value="" style="aspect=fixed;html=1;points=[];align=center;image;fontSize=12;image=img/lib/mscae/aspect=fixed;html=1;perimeter=none;align=center;shadow=0;dashed=0;image;fontSize=12;image=img/lib/mscae/Azure_Database_for_MariaDB_servers.svg;" parent="1" vertex="1">
          <mxGeometry x="526" y="449" width="38" height="50" as="geometry" />
        </mxCell>
        <mxCell id="o3aBx_VyT8-OBaSvo29I-620" value="" style="shape=image;imageAspect=0;aspect=fixed;verticalLabelPosition=bottom;verticalAlign=top;image=data:image/png,iVBORw0KGgoAAAANSUhEUgAAAN8AAADeCAMAAACKeyW7AAAAxlBMVEVMaXGJLKCJLKCJLKCJLKCJLKCJLKCJLKCJLKCJLKCJLKCMMqPIqNLkz+rYud/p5u749vr///+wdr+2hcOhWrLx8fGpabqRO6bU1NfPztDh4uKZS6zX2Nq/lMq5urujo6OWl5eurq9+fn1MS0wlJSYAAAAXFxc9PT5oaWeKi4rFxMgeHh4vMDBfX1sJBwkQDxBxcnJjY2AiCyg4HExbH2p2J4rN2eu0x+J1mMqhrLyTr9ZWgb08brQ9XYlHaJdsf5u6XV38fn6rTNmaAAAACnRSTlMAbcLc7Jr79kIeqDI9iAAAAAFvck5UAc+id5oAABlcSURBVHhe7V2LQuLIEl3HGUYBJ0GNJoB5EkgCCYnvx6i7//9Tt6ofeUM6gDq7lzN7R0dD6JPqrjpVXc3966899thjjz322GOPPfbYY4899thjjz3+DTj4Vo/Duj/1+F7Cj6b3/ET86HZ+djqV/3UBnZo/Quj8OQSPRMfcCp2Dpvf9JBz/bBrqRuh8P2p650/B8SEMptc/OflV918tpHrIGU56cNPD46b3/gz8wIfdH+wYv9CC35re+xNwgE/6tGm47XGGj+3rfcwRDuNcbhptGygK+XIBN/751T7m+DuM4lIiw1o76BZQtSE+L2WEBL/Yx3xD853gaFRtRwQlTdPIN+hjOl/rY370uG8Zapq6dtjCAHoS/Q59TPcrfcwBDuCiPKztkH9Q6GO+UMcQ3zJivgWn1Q7cjAy3ySY6+pjuV/mYnG9BjDVtWDvkVgDzjbN/ER/zVTqG+JZf2VgKT35DyKWbnFx+mY4huuUqN5ZduJjKJPgyH5P3LRSyurWLUaqL+It0zNHPnG9h2N7FyOPqGkYf8+m5Ek0aytYar7GfPNZ1wzQNS1+7Squ/k79Cx5R8Cx9KvfVk3XYmbg7TmWeI+9ovyJV+dEq+ZTWG/sytxcQLml7L8Ok+pupbVkAxMnLzxcxxQmc2m0Tk3/D33Baz4tXn+pjjn2C+UXOsU+wpM1XoW9o4haobHucdak13QXyqjqG+5aRpTIq9JAxmfjCugWaE9PeOAEP0MZ3P8jHfOnW+pQyD2G4e15IjUDWTWjFungqfqGOIbzlrGM+YjHziqyvZUYqWg9dNrYbbfaKPIcXO84bRGEvwHtMmdpQheRJJowk/yceQYufl+tHIMfUcTdwYTJzJi8ZV+Dk6RsC3SAtceFYTrQwaTtLIWntTpmM6H+xjiG5ZX+wcolSZiRqPwofpHJlrb/spOuYAF9/6Yqc2B3p2E6EydPKqtTcGH9P7YB8jUOwcw2KK/CY6VQQ4qf11dx58uI8pFSTqIMHkXBpNZOqgoR9tmqIfq2PSYudKKGCFaCN6lGCTk/nQXCkrdq5EiDZoIrIKGtg+aqhwEB3z/UN8jEDSYOIaaqKxGgE4mUVDoP8wHXOEsmy01rdo4OVDAc2yEjreYN07DD7Mxwj4FhkW36Rd3CtB9WECGOveY/BRPqa+IFEADC7Smyg0wIncacMM/RAdUyl2VjGEdC5uGn8TNAif3tq3gRi0+1xJwLeg75xss/go0EU11WV27mPqip1ljHHp8FGqvjOZL7zVuW0ORuLMEiN9MhAFnbVvNNi5j6kvdpaQgKjmY7RoNTASmK/WglzqTni+oQsYcMc+RsC3DIZRZj4rcie2pZuQ9oSreDEYS3eamKY3zWSPI2DAneoYoWInpLQLNsBg6Tp0upnLJjGzcB2IKCqkgBH3vWjAxmRX6u1Mxxx0mn3LYAAG4FwCZ8ZXU2M01GJ+qZPmVE6zC92hjxErdsJDX+ZGPd4GBtyreZtmRz5GsNgJwSFpGrcwJs0iZrArH0OKnY3dVzLE9kLBpX8xuhxdXK1ikEdwen45Or/Khc5YwMPsSMcIFTsHg8B1p/khn+Oz7XZ6o8YIqBIzAC6zhwGTPWqeoETHdLbzMULFzgGRnk425v5ll6PXr1LKQx2ll3bO0p/CBNWb3nKwAx8jUuwkcPJ5n3rZHfXHxuT6Bgmu9zVg6N7t9bUlnZx2un3+U9AKcdNbItDH9LbwMWK+BQDLL8scTruXOLukqbu8g8iyTpP24Q1uWNIOL+OXmpG7aHhHiu18jECxk0KCBZOOWe2x19iuew03SA2oWoZv+75pZYsSZuctdyYn3Q5fghqEeIEFuKWPESh2MoB7maRjvuJaDmSae9vrsmVl2UkYwn+I2KCkVRidy+ei3MlsPReQMATS5vUYgWInh5l3L2fdrsV/6sISPMUf6nHCyRF4RG3C9Lxzuf00kBH8HjOhCIggfb6HTVxqIFCQSAEz0Uv5gaO4xacizym/C7CTScjZhq5pgeV7yNCGWdrv4PRkztLpdS/5PWJBBzOgPmaTHjxcfL3GXUyK2I2yTAjsd7sIFFKQpvZTbWKxzA/r5AfBOKD2c5e+ZjnXOfvZzXWmFJv5GIFiZwYvv+MARrlzOW4h81B9sJ5P2Q1ZfdNKkCC4ou6SX3qT87XgQAUUDMVGPkakIJEhzG854KBv2Jiv4XvNBGNZcJVseDBllw6hOoZJamP4u2WXRvCGqYSxXMEAgdjAxwgUO/NwClVr7Bi7pvTuet2LAExFnIWNLCCPcmf4LyRogK3Zs4ggVKbLDxXafP1b5kH3lVoQbONbEEV+Gk4YECXXt3gXDWYn2fgCDT7zbDt2Iur7LZih2ilccndzfX0D9Dr99BYQcJbr37KAtrmSSEEijyK/sYYTBp8p0As0mJ2kiydwpzbBgu2DgZOxVKrEydW5bEMFg659xxJOW/kYgWJnESV+Y40nBee/xkYYUjrAL7Z94DeJ6A90XIHqGX0QKFlzcAUFDEMrHyNWkMgj4ycpijKEr8HZ+ej8NAB/6IchzQXkibvE+TmHTJ/8QIEJig/j7Px8dNFHRTOEVyvkPiB9BGR9BlrzbWJGgapa3LcgUn4KgZS3BMxC1lAtgSqZweqb8D0w8DCF7GJIX47fQtQQX/4IkiuJuZjDdotvkPFjAyQW5IjZ8htg30gE3tNJBw6/KuS/7NVIcOq6Yq13HBIM+nsTMwpYfr0r7BVWh4qYGTk/PsC8AeMwISO10IoBbSIYGoRjXLQffzrIDzJc0V5uWRmq6qAvftzsgC4/7DbWgKPUzHEdP5ifGA5k14W/Fao1Z+RvGQJj7sIyP5EEQpaGZJSafCbuQI/Rr5N2eI6mpTBjtWuJDTA/P0FaY3RX3Qn8PaR5QUIaCSByFOr3eX4LkQrFOBshOSgh6D//wuhOzkwNh+34DbMBMqg6+M9YxgLpUpf1ReTOzaG6ILMUdFsS+0a2BHPWhztaDW+a8hsOlYEs7l5oeOcORpGGzSfDOD9mQG4+zbBp1oemSIgMm9LtlAUwHmOWhL/1TE4xezqOGzUngENNHbPDgug+BZcfXYD5vL2J3mCRVj+HEjwQ+m3gJ8AuNsGA6GFkf75c+PLAmk3n2PApg3fxNZ1mgzar3kgSezhhcy8M3CL79qrXQqBh5j5afdsqFvnqLs1xNKRlY1dyAAS8yiOS6e/xYt2EK+LiznbY3MxUwEWr3kIUMI1Gy2FSql5Dwg6mI9MO1x/Mwjh3aAqh2KRMkXhkY1MzPMgQ87HCixq70QrotVh+xQUognmpsSCAoIf1B7Ai8PQNXGVW7oHJOk5KQzNgjnrkyahwjZd7RrZ4gQJxIh7dEViVby7KZwC1mH/4kJzT6QY0ElMjxaUQvyMUZdUgBRiy6LBSYZPXBnaSe0ZtChSAfq+Fe6ELUKAqzwGx283RU+2QdiabpIqkwpfYZmWz2KbcwhgWXWLAYrW8xKPE8lPAFNpiSXEqHt0RGOF7zbKFQyps/sGspBMN/CesLmCLXyybhYOELju4CnhjVUODCyrNvq0KFINBm+iOOOw2NAoWANnovDxAQg+HbYfcPKZNKqAQMpilYB6jobF6WCbYLoFXMLo3ccoDM1zxBDfI9t4zwKCRhh/mu0S0INBy+xEQOkhdCnLgEkG1VYLbKrojDlpluFauNYTDoPSMsNQEU9xt0ZOQCB/2MHJolSBh/UU4uiOYxBaEX+0D0enkDJKyYUqwwoTwN9nXFBOBLpgU5+3cy19EYgttjBHElcYzzQtJwmQnTe2gfkgqw6pfulBIYHNAdOiIR3cEbruLVq9J+lecd6pJRq2HXlMrBTyJWgsnze30KVpGdwQswJ7Q1hhimt/dzMMOm3uxrTAuPhsKv0WA77ddfu0kNu5u1m7SBmHSZD4wdVxrQMMlCbEQWkZ3ghYS26oLDwg/LLZnDQES/lX4qRGWFi+BGolX0C5bRndEC4nt5Xf/8kP0svLYUOK1C5qiSxlHuMy2ndkcj5xFy/kstMnu7kLYwWAvWqeJTxkY4UUkthyYS3KWFsa2cGIz5+Wt0ObklDpQilZSOFpNN1tmnp64UXMXGkHr6I4Qktiy4SzdIqJFmqmqOvluqKyEpMfzCjmGufAW0ll79yIksYdemRxFNMt5zTXslCCkJ6ndSWibeqChfrPM2Ek5W2vfn+N8g+XXLLEVj45h7uDYwH9quuGHrBt3kZVjVgJ75V3c74QMkbtf9jXwHXofgZO5A7ld7s7RILH58eFy4AvYcf4w3S9ZAXq6erbqDGvgk2U5ba6iYXQX3FnJY63Elkm1b2HUDk7HU0juRB8rq6ERQ8+sdc1NJrnGyUUJ+f7h8bE8lg2iO2KdxFbQRtOVvceqjr9fWqvpGWi8eaO4ISdzp0/S/f3Dw/Pj48tvRHnKXmwQ3RHfVy5AcsDWWStN8KBNtJJgjKGuVpaVoJGp8Po7j4fSaDaJ7ohv2N1YR09G66w/gaqOLXj0S72eXiJkPAqyzm84t5fnh/vSaHBj7GcTlzqUq9gp8Jk2H23Xp9jzWkcPfaP4+WMdJ8vs8RmY1eq1jaI7YpXENqj1LGc+d+qUcRAvJg5YR4c1Nquhh3HFaXw8GcjB1dW5EkT3nxu4l79WSWxpSZrpfBqaq3bU6WeGeCQFcP0KPeyCaTr1UYSKBi9qNekhlR6bRXdEvcSGZH2q4UnEULfCfFcyg+MuTAscCFgQLLUsh0CrpfUAqooWzKoV98+PmZfBjbGWuTtHbRUbz+FgYPDJcQCzOlI1xqXlo//Bo/BxkR42Dsza0QNgtJxKuF37gNwQPAxuGN0RtRI7XpXs1QFPPBYNCJaYkhRDNWfT5SJe52bUwJstZqR6j2t5weIfpcft17p0lqFWYk95K4ga9FcOTusH1EagsWZvMfljv7/b77iSSGDQ2Of3TNeECTvKLjGjLAxCkMhGtWl0R9RIbFg+Uxy6eophdVR7gKOP1fLeBbIHZzLNhebfEUuFYUUtbT0ABTZfOVnxlIdp+Qt6sgxiZgTUHp/viy7vciNxTVEjsT16DkfjxxYuquM669BfXcI81KKC+oBlNCdGN6IpFebVnYcUxpKUDNWQFB/x4GpYzdc2ju6IGok9ofNr1B31r+66hUMZFCq2PHburn5dkHZ/mIavoBwpXty0j8sSkC+sFKCSS1UTe/Qr/Fq0vVRRldhYKgMDXPWwfyvA7tzK+Y3LTvd2ic78HDvn7fw+V8k3ab8aRYwa/Ern7yKqOTbXou2lBhWJrdMRXtC4MXHvCl2NZEDwkohs/Vx1LyGTyFUZUBmkOYd6hlN8dLYuVgQXkLr2zvv0XwY640EJbTfGiqhUsbEvGt7qkkxbeUrax4sjvCIdx6gU4dGqpMzHHYKZOyWh8SNKo9U2ZJ2TnR5bA4uqTGvV9lJFpYpt050GeGo6mW78eIOmW7pOiGL3vBs5ysDqIr/8PsksyzrAP12ent8RgqssSJpy70ZXF3yOwPOZlvj92vDwA0NFYid0iKD5biaoM2EBno1VK6Ybl76eds9H02vaT+2kJzWGKLLY2E/JiVADn093xRRVe3CnJbrMfrdDjKwuK01brdpealCW2CE9JwZGusOqJx4vCoI45Eh8Ne2ev6PBI2vU8bNdQriICNsZErys53dGzkYQjzmikwTvVdqTuNjyI87LEps1Cqq4em5vboHLhU421G3TRyMmtgbj6t3d3AK9HlrLSxdN7gwdeHWSy3nkMfRr+Z2T5yRTFvTgh1WZoJuVzjKUq9i8EbLf4+6BdCdZZBhDPOjgj1nHOFs16UkbOXeG7qzbIbphQQ+A0B+q9ONP+RQekaMfOB+Vy26P/mxZ6prcYGOsiLLEThuRAypgLjQ7DGP02oShjn0841NC/rJP5p3No5aWO8KKTlajByI4Pz09XhabGuN3DcElGEhOejLCKXVttWx7qQIjfDenimbZKff+2dmZpgYhth9L8SyaOuBHDNLSqV2dnfXZqkr38XJnzNQ+TOFosmTLNMDmnvTsHHyToGI5Z+t4GaUHk/DjYQpdMZtsjBVRkthO+iEMQ9qjC1PSpCfFMFnHllyyj66O+S5Yyi+/iZ0d4aH+xaInykxLN9jhMg1tfEcSCDzZws8QlvYktovuiJLEnuUbyZEA6T623Gloew5uSPq0lSX9fdaIlD+iq6KsuoncJYkPYwuNhi3ZYx1lnw2mtDX0YXfXeMYnE4F5tTBg0b2JwXrgWYicxJ5F1H40WR2y7n/Tndi2neCRE9bJkv4e+ZHjRqUeSp5/4NRDDwxr2CJ7UYtYGWA/nq/200syDVjsqti4dJaB5LjkZo+QVkqsUXeY45do+LlSczxWFJKeYyv/e1SNM+XhmSTG+UYf7mXPVRXipy1jeHSX5JMkuZ+6Yk66k0ncTC0gtsjdU6QSmxYHXm/eQIdl4/cTbD7WSM3Mk8mZIj3lB0tUe78h+Z/EewyHjLd6NYLh48cWgMk9CXssnRhnwRJjgkGOtmiYRF9e4GPBjSip3Pbavu2lCl7FlnJZ+NsbFlvJOA169k1J6GewYss/skByDw/vb2/8JQ8DeABq4YgKjJ/42Jj0Z4/diJ6+mqEewOZlEixV6ob5A/UKErt920sVaRVbvn/OF3gAL29vb++vXvyg3d8P9aE0vL9/8ry3d6D1UrwSqwr0CLmSWpYDIgwaHvh59PQVYWDR3kIO/jI7XwjdOrojihJben8rbnY0Ah4B2TFQSA9l/ogDg4ERZkD8a2jb8ZSevhrjgd2sO4G/zMwr0A03xkrAj2golnTGT8Dy7XcTXl/f3vX0lVItv8BEcW7hBTJ+/haevhrTfyH4yYH0ZUb+XO720R2xqlFEVp9MmImvb4jfhC58eXt9RV7m07hUC6rjh6oFZQtLerARww3ZE8FkhJwcAIZqxo9HG8SmG2NFiPViw9pQ1u6Vsx5fNk5cf3iCwPNRdxr0Dlh8BOuQGoSCUj0ITGCPcpS/zIgyftjU2rrtpYqcxH64F285LYPxy/ynHmPHOSaPCbp8eblcoBybzMlngGpo2MTEJuYkJxjybcs7iO6InMR+IbVj0a6pIoasR3soMeFm4NSzkgQJKrRH3XX+RopoTtS1EFttdRwY/GUSEaBpV9pGbS81SCU2D4Evj8/tLTksfsIPwKIN2JpHQ+jCdf4B/E0O/g0xT9J0LyltUOTLcZtvjBWRSmzpOR/VXh5xTxXiPPn/7VvJa8CexDAq88MGrtAcEx8zxmJM9Pc///y9wCUoY7qU2HhOpEgwYBm8tHHbSxX5KrZ8z/enKijvi/NXUHtLVfvR5msj9ICMNyS1q2gKSlYiZ5NC3YPfanFY2OjX8JOZHp5/v2y1MVZEJrEZcBOuynLFjL3nv3+9mT0Wm4FskCjYvoszNIEYYeJnL3vKYIin6oyxjqmkVmggUp8mVM6Cnt1NdEfU92JL2JOCTSkvVIytsN99Uam9vb6/6yy110zMj23c50sw0CkDaSgPyMdVhHQLNbOdamGsTW/zcr/VxlgR334K9GKvWYLDh/KkRlXw/v6kjzWa7rMSIx7/p5VUkilqSRgETz6KpYJaenxGF76b6I5Y2ShSj4fnh5pIrzzXSdfXMHlFBfTOKsS0/uLFRBi9voZe+QWQutAHudXGWBFterEBaKuXx0ofDoH29F6wxVuY/uuVHbxKMmlbuBTVbO4o946iOwFKbPGoni64yl7rgJQR5YESPGESVZXoNT97IzM5qNxo87aXKlr0Yg9Y+wYHGnL1ypSHwRNQfScanUl1Cvjh05Ne37FEsKvojhDtxc4gPRRy4U0Ez2DtC7Zoe6lCqBe7AqnkNjHMbyheq9hZdEcQiS18GqmA+4fnYgD8/fJCdd29JPjhFnX4NdpZdEegxO5ebMZwQC1ZYpmSfXl8eSyi6W6M3a6iO4J8oA9+Gk/TO68DCJ5VNAtouk+f1YbbfWLWWhx/o7fsjrZiSKDc33NdtwE/mbPr/tgdPcBRyrC/+aqpQFaUe+ke8UD+EKy7PmO3q9iQ4vgb70u62iHDNpD558J2dms7juMflGHvSxim7HY8M/M4/vGTvkXvTOBgyS4hXzF2Pz+OHYIx7G3LUFqnZ2TwQYVfK3wr6fvHskMcHzAbdk+3ECM0ySCR/gGD/T1+eX5+Tk9x5O4tcXY7E9QNOPjOZunmIb8xDqZuVOIfcHf4SewQWzN8XBX9CEDVMH7SaY/S+747tSKEg0M2SzcWNQqt4Dw/sv5QnJ04V3NJrHTK3uSz2SGODkm46G3OsAEnnN3hF7BDHO1QtlVwwj+D8qvYIY5SUbNL2Tb4Q9ghjlhu0dslwxPeXXG4c5nZHseM4c6E6S/O7tsfwA7BhWn3cjtRQ/DHsUPkhOkWomaQpuZ/FjvEcRryN5dtMmfX2316tz04w96GlZo0ee20+SjrTwUXNRvIto8qPOwYG8q2j07Nd4ijQzZLxRnKaafgH88Okcq2818iAVH5pNR8h2hRbVN4evcJqfkOcfSNBcT1sg2SV57e/ZvYIY6aZdu/mB0iFTX1sk065YWHL04RNscahl+evO4GabWtKNtOLv71tuM4rtai0uT127+eHUGR4R+VvO4IqWy76P+J6d0OcHDIcuD/JDtEKmogAfrvsUOwatsfm95tD2D4H2a3xx577LHHHnvssccee+yxxx577PH/h/8B5sAJItKCw7EAAAAASUVORK5CYII=;" parent="1" vertex="1">
          <mxGeometry x="560" y="387" width="30.13" height="30" as="geometry" />
        </mxCell>
        <mxCell id="o3aBx_VyT8-OBaSvo29I-592" value="" style="aspect=fixed;html=1;points=[];align=center;image;fontSize=12;image=img/lib/mscae/WebAppWordPress.svg;" parent="1" vertex="1">
          <mxGeometry x="521.48" y="341" width="47.04" height="48" as="geometry" />
        </mxCell>
        <mxCell id="o3aBx_VyT8-OBaSvo29I-621" style="edgeStyle=orthogonalEdgeStyle;rounded=0;orthogonalLoop=1;jettySize=auto;html=1;exitX=0.99;exitY=0.5;exitDx=0;exitDy=0;exitPerimeter=0;startArrow=none;startFill=0;curved=1;entryX=0.5;entryY=0;entryDx=0;entryDy=0;" parent="1" source="o3aBx_VyT8-OBaSvo29I-596" target="o3aBx_VyT8-OBaSvo29I-617" edge="1">
          <mxGeometry relative="1" as="geometry">
            <mxPoint x="424.25" y="287" as="sourcePoint" />
            <mxPoint x="345" y="349" as="targetPoint" />
          </mxGeometry>
        </mxCell>
        <mxCell id="o3aBx_VyT8-OBaSvo29I-622" value=":8080" style="text;html=1;strokeColor=none;fillColor=none;align=center;verticalAlign=middle;whiteSpace=wrap;rounded=0;" parent="1" vertex="1">
          <mxGeometry x="470" y="354" width="40" height="20" as="geometry" />
        </mxCell>
        <mxCell id="o3aBx_VyT8-OBaSvo29I-624" value="" style="endArrow=classic;startArrow=classic;html=1;exitX=0.5;exitY=0;exitDx=0;exitDy=0;" parent="1" source="o3aBx_VyT8-OBaSvo29I-619" edge="1">
          <mxGeometry width="50" height="50" relative="1" as="geometry">
            <mxPoint x="500" y="419" as="sourcePoint" />
            <mxPoint x="545" y="399" as="targetPoint" />
          </mxGeometry>
        </mxCell>
        <mxCell id="o3aBx_VyT8-OBaSvo29I-625" value="" style="pointerEvents=1;shadow=0;dashed=0;html=1;strokeColor=none;labelPosition=center;verticalLabelPosition=bottom;verticalAlign=top;outlineConnect=0;align=center;shape=mxgraph.office.concepts.folder;fillColor=#7FBA42;direction=east;" parent="1" vertex="1">
          <mxGeometry x="620" y="456.5" width="40" height="35" as="geometry" />
        </mxCell>
        <mxCell id="o3aBx_VyT8-OBaSvo29I-628" value="" style="pointerEvents=1;shadow=0;dashed=0;html=1;strokeColor=none;fillColor=#505050;labelPosition=center;verticalLabelPosition=bottom;verticalAlign=top;outlineConnect=0;align=center;shape=mxgraph.office.concepts.folder;" parent="1" vertex="1">
          <mxGeometry x="620" y="345.75" width="40" height="36.5" as="geometry" />
        </mxCell>
        <mxCell id="o3aBx_VyT8-OBaSvo29I-629" value="" style="endArrow=classic;startArrow=classic;html=1;exitX=1;exitY=0.5;exitDx=0;exitDy=0;" parent="1" source="o3aBx_VyT8-OBaSvo29I-617" target="o3aBx_VyT8-OBaSvo29I-628" edge="1">
          <mxGeometry width="50" height="50" relative="1" as="geometry">
            <mxPoint x="500" y="419" as="sourcePoint" />
            <mxPoint x="550" y="369" as="targetPoint" />
          </mxGeometry>
        </mxCell>
        <mxCell id="o3aBx_VyT8-OBaSvo29I-630" value="" style="endArrow=classic;startArrow=classic;html=1;exitX=1;exitY=0.5;exitDx=0;exitDy=0;" parent="1" source="o3aBx_VyT8-OBaSvo29I-619" target="o3aBx_VyT8-OBaSvo29I-625" edge="1">
          <mxGeometry width="50" height="50" relative="1" as="geometry">
            <mxPoint x="590" y="374" as="sourcePoint" />
            <mxPoint x="630" y="374" as="targetPoint" />
          </mxGeometry>
        </mxCell>
        <mxCell id="SYBpbQejeq2HBVFwJb7x-1" value="" style="rounded=1;whiteSpace=wrap;html=1;dashed=1;" vertex="1" parent="1">
          <mxGeometry x="289.9" y="433" width="80.19" height="76" as="geometry" />
        </mxCell>
        <mxCell id="SYBpbQejeq2HBVFwJb7x-3" value="" style="pointerEvents=1;shadow=0;dashed=0;html=1;strokeColor=none;labelPosition=center;verticalLabelPosition=bottom;verticalAlign=top;outlineConnect=0;align=center;shape=mxgraph.office.concepts.folder;direction=east;fillColor=#330066;" vertex="1" parent="1">
          <mxGeometry x="220" y="457.5" width="40" height="35" as="geometry" />
        </mxCell>
        <mxCell id="SYBpbQejeq2HBVFwJb7x-6" value="" style="endArrow=classic;startArrow=classic;html=1;exitX=1;exitY=0.5;exitDx=0;exitDy=0;" edge="1" parent="1">
          <mxGeometry width="50" height="50" relative="1" as="geometry">
            <mxPoint x="260" y="474.5" as="sourcePoint" />
            <mxPoint x="290" y="475" as="targetPoint" />
          </mxGeometry>
        </mxCell>
        <mxCell id="SYBpbQejeq2HBVFwJb7x-7" value=":8000" style="text;html=1;strokeColor=none;fillColor=none;align=center;verticalAlign=middle;whiteSpace=wrap;rounded=0;" vertex="1" parent="1">
          <mxGeometry x="310" y="512" width="40" height="20" as="geometry" />
        </mxCell>
        <mxCell id="SYBpbQejeq2HBVFwJb7x-9" value="" style="edgeStyle=orthogonalEdgeStyle;rounded=0;orthogonalLoop=1;jettySize=auto;html=1;startArrow=classic;startFill=1;" edge="1" parent="1" source="SYBpbQejeq2HBVFwJb7x-8" target="o3aBx_VyT8-OBaSvo29I-596">
          <mxGeometry relative="1" as="geometry" />
        </mxCell>
        <mxCell id="SYBpbQejeq2HBVFwJb7x-8" value="" style="pointerEvents=1;shadow=0;dashed=0;html=1;strokeColor=none;labelPosition=center;verticalLabelPosition=bottom;verticalAlign=top;align=center;fillColor=#505050;shape=mxgraph.mscae.oms.app_with_changes" vertex="1" parent="1">
          <mxGeometry x="408.99" y="100" width="60" height="40" as="geometry" />
        </mxCell>
        <mxCell id="SYBpbQejeq2HBVFwJb7x-11" value="rutil.io" style="text;html=1;strokeColor=none;fillColor=none;align=center;verticalAlign=middle;whiteSpace=wrap;rounded=0;" vertex="1" parent="1">
          <mxGeometry x="420" y="80" width="40" height="20" as="geometry" />
        </mxCell>
        <mxCell id="SYBpbQejeq2HBVFwJb7x-12" value="" style="shape=image;imageAspect=0;aspect=fixed;verticalLabelPosition=bottom;verticalAlign=top;image=data:image/png,iVBORw0KGgoAAAANSUhEUgAAAN8AAADeCAMAAACKeyW7AAAAxlBMVEVMaXGJLKCJLKCJLKCJLKCJLKCJLKCJLKCJLKCJLKCJLKCMMqPIqNLkz+rYud/p5u749vr///+wdr+2hcOhWrLx8fGpabqRO6bU1NfPztDh4uKZS6zX2Nq/lMq5urujo6OWl5eurq9+fn1MS0wlJSYAAAAXFxc9PT5oaWeKi4rFxMgeHh4vMDBfX1sJBwkQDxBxcnJjY2AiCyg4HExbH2p2J4rN2eu0x+J1mMqhrLyTr9ZWgb08brQ9XYlHaJdsf5u6XV38fn6rTNmaAAAACnRSTlMAbcLc7Jr79kIeqDI9iAAAAAFvck5UAc+id5oAABlcSURBVHhe7V2LQuLIEl3HGUYBJ0GNJoB5EkgCCYnvx6i7//9Tt6ofeUM6gDq7lzN7R0dD6JPqrjpVXc3966899thjjz322GOPPfbYY4899thjjz3+DTj4Vo/Duj/1+F7Cj6b3/ET86HZ+djqV/3UBnZo/Quj8OQSPRMfcCp2Dpvf9JBz/bBrqRuh8P2p650/B8SEMptc/OflV918tpHrIGU56cNPD46b3/gz8wIfdH+wYv9CC35re+xNwgE/6tGm47XGGj+3rfcwRDuNcbhptGygK+XIBN/751T7m+DuM4lIiw1o76BZQtSE+L2WEBL/Yx3xD853gaFRtRwQlTdPIN+hjOl/rY370uG8Zapq6dtjCAHoS/Q59TPcrfcwBDuCiPKztkH9Q6GO+UMcQ3zJivgWn1Q7cjAy3ySY6+pjuV/mYnG9BjDVtWDvkVgDzjbN/ER/zVTqG+JZf2VgKT35DyKWbnFx+mY4huuUqN5ZduJjKJPgyH5P3LRSyurWLUaqL+It0zNHPnG9h2N7FyOPqGkYf8+m5Ek0aytYar7GfPNZ1wzQNS1+7Squ/k79Cx5R8Cx9KvfVk3XYmbg7TmWeI+9ovyJV+dEq+ZTWG/sytxcQLml7L8Ok+pupbVkAxMnLzxcxxQmc2m0Tk3/D33Baz4tXn+pjjn2C+UXOsU+wpM1XoW9o4haobHucdak13QXyqjqG+5aRpTIq9JAxmfjCugWaE9PeOAEP0MZ3P8jHfOnW+pQyD2G4e15IjUDWTWjFungqfqGOIbzlrGM+YjHziqyvZUYqWg9dNrYbbfaKPIcXO84bRGEvwHtMmdpQheRJJowk/yceQYufl+tHIMfUcTdwYTJzJi8ZV+Dk6RsC3SAtceFYTrQwaTtLIWntTpmM6H+xjiG5ZX+wcolSZiRqPwofpHJlrb/spOuYAF9/6Yqc2B3p2E6EydPKqtTcGH9P7YB8jUOwcw2KK/CY6VQQ4qf11dx58uI8pFSTqIMHkXBpNZOqgoR9tmqIfq2PSYudKKGCFaCN6lGCTk/nQXCkrdq5EiDZoIrIKGtg+aqhwEB3z/UN8jEDSYOIaaqKxGgE4mUVDoP8wHXOEsmy01rdo4OVDAc2yEjreYN07DD7Mxwj4FhkW36Rd3CtB9WECGOveY/BRPqa+IFEADC7Smyg0wIncacMM/RAdUyl2VjGEdC5uGn8TNAif3tq3gRi0+1xJwLeg75xss/go0EU11WV27mPqip1ljHHp8FGqvjOZL7zVuW0ORuLMEiN9MhAFnbVvNNi5j6kvdpaQgKjmY7RoNTASmK/WglzqTni+oQsYcMc+RsC3DIZRZj4rcie2pZuQ9oSreDEYS3eamKY3zWSPI2DAneoYoWInpLQLNsBg6Tp0upnLJjGzcB2IKCqkgBH3vWjAxmRX6u1Mxxx0mn3LYAAG4FwCZ8ZXU2M01GJ+qZPmVE6zC92hjxErdsJDX+ZGPd4GBtyreZtmRz5GsNgJwSFpGrcwJs0iZrArH0OKnY3dVzLE9kLBpX8xuhxdXK1ikEdwen45Or/Khc5YwMPsSMcIFTsHg8B1p/khn+Oz7XZ6o8YIqBIzAC6zhwGTPWqeoETHdLbzMULFzgGRnk425v5ll6PXr1LKQx2ll3bO0p/CBNWb3nKwAx8jUuwkcPJ5n3rZHfXHxuT6Bgmu9zVg6N7t9bUlnZx2un3+U9AKcdNbItDH9LbwMWK+BQDLL8scTruXOLukqbu8g8iyTpP24Q1uWNIOL+OXmpG7aHhHiu18jECxk0KCBZOOWe2x19iuew03SA2oWoZv+75pZYsSZuctdyYn3Q5fghqEeIEFuKWPESh2MoB7maRjvuJaDmSae9vrsmVl2UkYwn+I2KCkVRidy+ei3MlsPReQMATS5vUYgWInh5l3L2fdrsV/6sISPMUf6nHCyRF4RG3C9Lxzuf00kBH8HjOhCIggfb6HTVxqIFCQSAEz0Uv5gaO4xacizym/C7CTScjZhq5pgeV7yNCGWdrv4PRkztLpdS/5PWJBBzOgPmaTHjxcfL3GXUyK2I2yTAjsd7sIFFKQpvZTbWKxzA/r5AfBOKD2c5e+ZjnXOfvZzXWmFJv5GIFiZwYvv+MARrlzOW4h81B9sJ5P2Q1ZfdNKkCC4ou6SX3qT87XgQAUUDMVGPkakIJEhzG854KBv2Jiv4XvNBGNZcJVseDBllw6hOoZJamP4u2WXRvCGqYSxXMEAgdjAxwgUO/NwClVr7Bi7pvTuet2LAExFnIWNLCCPcmf4LyRogK3Zs4ggVKbLDxXafP1b5kH3lVoQbONbEEV+Gk4YECXXt3gXDWYn2fgCDT7zbDt2Iur7LZih2ilccndzfX0D9Dr99BYQcJbr37KAtrmSSEEijyK/sYYTBp8p0As0mJ2kiydwpzbBgu2DgZOxVKrEydW5bEMFg659xxJOW/kYgWJnESV+Y40nBee/xkYYUjrAL7Z94DeJ6A90XIHqGX0QKFlzcAUFDEMrHyNWkMgj4ycpijKEr8HZ+ej8NAB/6IchzQXkibvE+TmHTJ/8QIEJig/j7Px8dNFHRTOEVyvkPiB9BGR9BlrzbWJGgapa3LcgUn4KgZS3BMxC1lAtgSqZweqb8D0w8DCF7GJIX47fQtQQX/4IkiuJuZjDdotvkPFjAyQW5IjZ8htg30gE3tNJBw6/KuS/7NVIcOq6Yq13HBIM+nsTMwpYfr0r7BVWh4qYGTk/PsC8AeMwISO10IoBbSIYGoRjXLQffzrIDzJc0V5uWRmq6qAvftzsgC4/7DbWgKPUzHEdP5ifGA5k14W/Fao1Z+RvGQJj7sIyP5EEQpaGZJSafCbuQI/Rr5N2eI6mpTBjtWuJDTA/P0FaY3RX3Qn8PaR5QUIaCSByFOr3eX4LkQrFOBshOSgh6D//wuhOzkwNh+34DbMBMqg6+M9YxgLpUpf1ReTOzaG6ILMUdFsS+0a2BHPWhztaDW+a8hsOlYEs7l5oeOcORpGGzSfDOD9mQG4+zbBp1oemSIgMm9LtlAUwHmOWhL/1TE4xezqOGzUngENNHbPDgug+BZcfXYD5vL2J3mCRVj+HEjwQ+m3gJ8AuNsGA6GFkf75c+PLAmk3n2PApg3fxNZ1mgzar3kgSezhhcy8M3CL79qrXQqBh5j5afdsqFvnqLs1xNKRlY1dyAAS8yiOS6e/xYt2EK+LiznbY3MxUwEWr3kIUMI1Gy2FSql5Dwg6mI9MO1x/Mwjh3aAqh2KRMkXhkY1MzPMgQ87HCixq70QrotVh+xQUognmpsSCAoIf1B7Ai8PQNXGVW7oHJOk5KQzNgjnrkyahwjZd7RrZ4gQJxIh7dEViVby7KZwC1mH/4kJzT6QY0ElMjxaUQvyMUZdUgBRiy6LBSYZPXBnaSe0ZtChSAfq+Fe6ELUKAqzwGx283RU+2QdiabpIqkwpfYZmWz2KbcwhgWXWLAYrW8xKPE8lPAFNpiSXEqHt0RGOF7zbKFQyps/sGspBMN/CesLmCLXyybhYOELju4CnhjVUODCyrNvq0KFINBm+iOOOw2NAoWANnovDxAQg+HbYfcPKZNKqAQMpilYB6jobF6WCbYLoFXMLo3ccoDM1zxBDfI9t4zwKCRhh/mu0S0INBy+xEQOkhdCnLgEkG1VYLbKrojDlpluFauNYTDoPSMsNQEU9xt0ZOQCB/2MHJolSBh/UU4uiOYxBaEX+0D0enkDJKyYUqwwoTwN9nXFBOBLpgU5+3cy19EYgttjBHElcYzzQtJwmQnTe2gfkgqw6pfulBIYHNAdOiIR3cEbruLVq9J+lecd6pJRq2HXlMrBTyJWgsnze30KVpGdwQswJ7Q1hhimt/dzMMOm3uxrTAuPhsKv0WA77ddfu0kNu5u1m7SBmHSZD4wdVxrQMMlCbEQWkZ3ghYS26oLDwg/LLZnDQES/lX4qRGWFi+BGolX0C5bRndEC4nt5Xf/8kP0svLYUOK1C5qiSxlHuMy2ndkcj5xFy/kstMnu7kLYwWAvWqeJTxkY4UUkthyYS3KWFsa2cGIz5+Wt0ObklDpQilZSOFpNN1tmnp64UXMXGkHr6I4Qktiy4SzdIqJFmqmqOvluqKyEpMfzCjmGufAW0ll79yIksYdemRxFNMt5zTXslCCkJ6ndSWibeqChfrPM2Ek5W2vfn+N8g+XXLLEVj45h7uDYwH9quuGHrBt3kZVjVgJ75V3c74QMkbtf9jXwHXofgZO5A7ld7s7RILH58eFy4AvYcf4w3S9ZAXq6erbqDGvgk2U5ba6iYXQX3FnJY63Elkm1b2HUDk7HU0juRB8rq6ERQ8+sdc1NJrnGyUUJ+f7h8bE8lg2iO2KdxFbQRtOVvceqjr9fWqvpGWi8eaO4ISdzp0/S/f3Dw/Pj48tvRHnKXmwQ3RHfVy5AcsDWWStN8KBNtJJgjKGuVpaVoJGp8Po7j4fSaDaJ7ohv2N1YR09G66w/gaqOLXj0S72eXiJkPAqyzm84t5fnh/vSaHBj7GcTlzqUq9gp8Jk2H23Xp9jzWkcPfaP4+WMdJ8vs8RmY1eq1jaI7YpXENqj1LGc+d+qUcRAvJg5YR4c1Nquhh3HFaXw8GcjB1dW5EkT3nxu4l79WSWxpSZrpfBqaq3bU6WeGeCQFcP0KPeyCaTr1UYSKBi9qNekhlR6bRXdEvcSGZH2q4UnEULfCfFcyg+MuTAscCFgQLLUsh0CrpfUAqooWzKoV98+PmZfBjbGWuTtHbRUbz+FgYPDJcQCzOlI1xqXlo//Bo/BxkR42Dsza0QNgtJxKuF37gNwQPAxuGN0RtRI7XpXs1QFPPBYNCJaYkhRDNWfT5SJe52bUwJstZqR6j2t5weIfpcft17p0lqFWYk95K4ga9FcOTusH1EagsWZvMfljv7/b77iSSGDQ2Of3TNeECTvKLjGjLAxCkMhGtWl0R9RIbFg+Uxy6eophdVR7gKOP1fLeBbIHZzLNhebfEUuFYUUtbT0ABTZfOVnxlIdp+Qt6sgxiZgTUHp/viy7vciNxTVEjsT16DkfjxxYuquM669BfXcI81KKC+oBlNCdGN6IpFebVnYcUxpKUDNWQFB/x4GpYzdc2ju6IGok9ofNr1B31r+66hUMZFCq2PHburn5dkHZ/mIavoBwpXty0j8sSkC+sFKCSS1UTe/Qr/Fq0vVRRldhYKgMDXPWwfyvA7tzK+Y3LTvd2ic78HDvn7fw+V8k3ab8aRYwa/Ern7yKqOTbXou2lBhWJrdMRXtC4MXHvCl2NZEDwkohs/Vx1LyGTyFUZUBmkOYd6hlN8dLYuVgQXkLr2zvv0XwY640EJbTfGiqhUsbEvGt7qkkxbeUrax4sjvCIdx6gU4dGqpMzHHYKZOyWh8SNKo9U2ZJ2TnR5bA4uqTGvV9lJFpYpt050GeGo6mW78eIOmW7pOiGL3vBs5ysDqIr/8PsksyzrAP12ent8RgqssSJpy70ZXF3yOwPOZlvj92vDwA0NFYid0iKD5biaoM2EBno1VK6Ybl76eds9H02vaT+2kJzWGKLLY2E/JiVADn093xRRVe3CnJbrMfrdDjKwuK01brdpealCW2CE9JwZGusOqJx4vCoI45Eh8Ne2ev6PBI2vU8bNdQriICNsZErys53dGzkYQjzmikwTvVdqTuNjyI87LEps1Cqq4em5vboHLhU421G3TRyMmtgbj6t3d3AK9HlrLSxdN7gwdeHWSy3nkMfRr+Z2T5yRTFvTgh1WZoJuVzjKUq9i8EbLf4+6BdCdZZBhDPOjgj1nHOFs16UkbOXeG7qzbIbphQQ+A0B+q9ONP+RQekaMfOB+Vy26P/mxZ6prcYGOsiLLEThuRAypgLjQ7DGP02oShjn0841NC/rJP5p3No5aWO8KKTlajByI4Pz09XhabGuN3DcElGEhOejLCKXVttWx7qQIjfDenimbZKff+2dmZpgYhth9L8SyaOuBHDNLSqV2dnfXZqkr38XJnzNQ+TOFosmTLNMDmnvTsHHyToGI5Z+t4GaUHk/DjYQpdMZtsjBVRkthO+iEMQ9qjC1PSpCfFMFnHllyyj66O+S5Yyi+/iZ0d4aH+xaInykxLN9jhMg1tfEcSCDzZws8QlvYktovuiJLEnuUbyZEA6T623Gloew5uSPq0lSX9fdaIlD+iq6KsuoncJYkPYwuNhi3ZYx1lnw2mtDX0YXfXeMYnE4F5tTBg0b2JwXrgWYicxJ5F1H40WR2y7n/Tndi2neCRE9bJkv4e+ZHjRqUeSp5/4NRDDwxr2CJ7UYtYGWA/nq/200syDVjsqti4dJaB5LjkZo+QVkqsUXeY45do+LlSczxWFJKeYyv/e1SNM+XhmSTG+UYf7mXPVRXipy1jeHSX5JMkuZ+6Yk66k0ncTC0gtsjdU6QSmxYHXm/eQIdl4/cTbD7WSM3Mk8mZIj3lB0tUe78h+Z/EewyHjLd6NYLh48cWgMk9CXssnRhnwRJjgkGOtmiYRF9e4GPBjSip3Pbavu2lCl7FlnJZ+NsbFlvJOA169k1J6GewYss/skByDw/vb2/8JQ8DeABq4YgKjJ/42Jj0Z4/diJ6+mqEewOZlEixV6ob5A/UKErt920sVaRVbvn/OF3gAL29vb++vXvyg3d8P9aE0vL9/8ry3d6D1UrwSqwr0CLmSWpYDIgwaHvh59PQVYWDR3kIO/jI7XwjdOrojihJben8rbnY0Ah4B2TFQSA9l/ogDg4ERZkD8a2jb8ZSevhrjgd2sO4G/zMwr0A03xkrAj2golnTGT8Dy7XcTXl/f3vX0lVItv8BEcW7hBTJ+/haevhrTfyH4yYH0ZUb+XO720R2xqlFEVp9MmImvb4jfhC58eXt9RV7m07hUC6rjh6oFZQtLerARww3ZE8FkhJwcAIZqxo9HG8SmG2NFiPViw9pQ1u6Vsx5fNk5cf3iCwPNRdxr0Dlh8BOuQGoSCUj0ITGCPcpS/zIgyftjU2rrtpYqcxH64F285LYPxy/ynHmPHOSaPCbp8eblcoBybzMlngGpo2MTEJuYkJxjybcs7iO6InMR+IbVj0a6pIoasR3soMeFm4NSzkgQJKrRH3XX+RopoTtS1EFttdRwY/GUSEaBpV9pGbS81SCU2D4Evj8/tLTksfsIPwKIN2JpHQ+jCdf4B/E0O/g0xT9J0LyltUOTLcZtvjBWRSmzpOR/VXh5xTxXiPPn/7VvJa8CexDAq88MGrtAcEx8zxmJM9Pc///y9wCUoY7qU2HhOpEgwYBm8tHHbSxX5KrZ8z/enKijvi/NXUHtLVfvR5msj9ICMNyS1q2gKSlYiZ5NC3YPfanFY2OjX8JOZHp5/v2y1MVZEJrEZcBOuynLFjL3nv3+9mT0Wm4FskCjYvoszNIEYYeJnL3vKYIin6oyxjqmkVmggUp8mVM6Cnt1NdEfU92JL2JOCTSkvVIytsN99Uam9vb6/6yy110zMj23c50sw0CkDaSgPyMdVhHQLNbOdamGsTW/zcr/VxlgR334K9GKvWYLDh/KkRlXw/v6kjzWa7rMSIx7/p5VUkilqSRgETz6KpYJaenxGF76b6I5Y2ShSj4fnh5pIrzzXSdfXMHlFBfTOKsS0/uLFRBi9voZe+QWQutAHudXGWBFterEBaKuXx0ofDoH29F6wxVuY/uuVHbxKMmlbuBTVbO4o946iOwFKbPGoni64yl7rgJQR5YESPGESVZXoNT97IzM5qNxo87aXKlr0Yg9Y+wYHGnL1ypSHwRNQfScanUl1Cvjh05Ne37FEsKvojhDtxc4gPRRy4U0Ez2DtC7Zoe6lCqBe7AqnkNjHMbyheq9hZdEcQiS18GqmA+4fnYgD8/fJCdd29JPjhFnX4NdpZdEegxO5ebMZwQC1ZYpmSfXl8eSyi6W6M3a6iO4J8oA9+Gk/TO68DCJ5VNAtouk+f1YbbfWLWWhx/o7fsjrZiSKDc33NdtwE/mbPr/tgdPcBRyrC/+aqpQFaUe+ke8UD+EKy7PmO3q9iQ4vgb70u62iHDNpD558J2dms7juMflGHvSxim7HY8M/M4/vGTvkXvTOBgyS4hXzF2Pz+OHYIx7G3LUFqnZ2TwQYVfK3wr6fvHskMcHzAbdk+3ECM0ySCR/gGD/T1+eX5+Tk9x5O4tcXY7E9QNOPjOZunmIb8xDqZuVOIfcHf4SewQWzN8XBX9CEDVMH7SaY/S+747tSKEg0M2SzcWNQqt4Dw/sv5QnJ04V3NJrHTK3uSz2SGODkm46G3OsAEnnN3hF7BDHO1QtlVwwj+D8qvYIY5SUbNL2Tb4Q9ghjlhu0dslwxPeXXG4c5nZHseM4c6E6S/O7tsfwA7BhWn3cjtRQ/DHsUPkhOkWomaQpuZ/FjvEcRryN5dtMmfX2316tz04w96GlZo0ee20+SjrTwUXNRvIto8qPOwYG8q2j07Nd4ijQzZLxRnKaafgH88Okcq2818iAVH5pNR8h2hRbVN4evcJqfkOcfSNBcT1sg2SV57e/ZvYIY6aZdu/mB0iFTX1sk065YWHL04RNscahl+evO4GabWtKNtOLv71tuM4rtai0uT127+eHUGR4R+VvO4IqWy76P+J6d0OcHDIcuD/JDtEKmogAfrvsUOwatsfm95tD2D4H2a3xx577LHHHnvssccee+yxxx577PH/h/8B5sAJItKCw7EAAAAASUVORK5CYII=;" vertex="1" parent="1">
          <mxGeometry x="350" y="499" width="30.13" height="30" as="geometry" />
        </mxCell>
        <mxCell id="SYBpbQejeq2HBVFwJb7x-13" value="" style="aspect=fixed;html=1;points=[];align=center;image;fontSize=12;image=img/lib/mscae/aspect=fixed;html=1;perimeter=none;align=center;shadow=0;dashed=0;image;fontSize=12;image=img/lib/mscae/Azure_Database_for_MariaDB_servers.svg;" vertex="1" parent="1">
          <mxGeometry x="300" y="469" width="22.8" height="30" as="geometry" />
        </mxCell>
        <mxCell id="SYBpbQejeq2HBVFwJb7x-14" value="" style="shape=image;imageAspect=0;aspect=fixed;verticalLabelPosition=bottom;verticalAlign=top;dashed=1;fillColor=#330066;image=data:image/png,iVBORw0KGgoAAAANSUhEUgAAAGUAAABeCAYAAAA6wdqhAAAY20lEQVR4Xu3dd681XVkG8AsERJQi2BCkKYKgoiICFqQJAmJAQSwIiFHDv3wH4gcwIRATUMCuAek2ROlSBKxgFwtKUaTYkfzIusww795nz95n5jzn4X0mmZxz9l4z6153b2udG+TadekwcINLB9E1gHKNKJeQCa4R5ZIS5S5J7p7kw0nek+Sfkvz7JYT1MoF0oySfn+T+SR6Q5BuSfEmSz05ywyT/keR9Sd6Z5HeSvD7Ju5P815JFkJSvTfItSd6f5I+S/OUg0JLnr49jbjwIcI8kX5/kS5PcIslnJPn4QAi8uj+a5B+S/P64/ybJvx1CmgcfneR7k/xdkt9N8uYk/3zowQ2/n6rUs9Tr/01gmP6+IWhBkFsneWCShya5w5CKP0zyV0k+kOR/k9x8fHe3JHdK8o9Jfi/JbyR5V5L/SbIXZov+4STfMx58dZLXJPnbQw9uuHKqweJ7+5tKACtOtGiL+u+hDvxeDt0QrE+++ouS3DvJg5N8xdAqb0/yx0nem+QjA5abJrlNkrsOTfTl4/OXJ3ndwO9eVWahzxhU/5ckbxrUNMmHBgK2WCgkE/cp8j8zyWfNbp/dZIwFB+QjggXR22xfb3/7HLHcxiHgGlIET2C+V5LHJqG6/jPJi4a9YI9dU+YxPxtDvXnm64aN+e2hkf51H2JN9qokxMxC/iTJi4e0/PlY+BZEgfzPHZz3xUncDCfVQPR9X2JYaK8iuNICMR9LYoFsIieFDqcuGFr6G3LOe2EgcD0oyRPHnDieETcPNfaFYwzJBhPJAQtm4QyQLtJD1T0/Cfuyk2EQ5WVJvnJQ3gMvHdSnIy16jQuguOaWST4vyRcMgliIv31+s0GIEqGqyk+3BZRjIcltrM8h3uJxLImHKASCGPbxg+M7Y06RHBKLcR6R5PHDaP/y8FYx07cO40/ywUVi2RcG/i1Jbpvkm5J824DnmUPlGXcdeCzy6Um+cwxGfeJVKTmvrvZ+HA/pDB7X+57jd1xTD8UCIA+3QyAOp5+ppqohzGG8RUMSIvJ6bjUkDKER2N+QgwA49c8Gd1oTCcLFJfJShsNQbMjDkjwkyW8m+cUkn5PkfkkeM9ZoHZAMPs8w7j83JNnanzTmflYStoiE7yTKE5L8wPC+EIRP/fdLoT1jHBXEMIqDGLo7DxXFCEI0ri4xys2ARAyIq42Y2wXSAemIjTAWX+JUCnEv9QgGBDCXNSEMIlEdJMq7l1xU19cM2ys2oV1+aUgH7kcUsMOd+cQs9xkhxrOT/HWSOyZ52oD7J5O8dTDhdRgf5z08yXcPriIpRA7HnnJBWFXV7YZaFAfhMguDcIjhFgqmuOHm4s9X95dzDqmZuetsbhxqHsyACXAnhrj9WAzCvGOsERzmpkIOSQ6JQBRSQg3xoqgv6pd7/B3Do3rlmIfXxf6I+Z4zGAI8PzYYqkTBlDuJwsjzKnhbXkLkIemUixTQvYIqxPiyQSQ6Hrd4P3ebZFQq2K1DBDgGFsQCB+LUmYAQEos4pMda/2CoEM4NqTkLBhIJ0d8+bhrlZ4c0f1WS7xp2Et7qoJD2NwwbDX7eFycBE7Ap1BcJ3qm+iD7geV8GVY8fgwjqBDdZPKdB2oG4QhBCENUGWIhxXlu1D7bCgSgk1kV62BvMBzHgs95G2q9N8qfDMaAyd8EG0aSPTaHujX/hWBP1ybP6xiGZiE4ieWaCcVoBQUkUKTMvleYdcL6TKAynBdTLOSTKuxBChzPgRJaEIAa9Le7BiXJqVBepWMNF3UcUNgUcXFSIrydnfbidc0F6MQ/3G4NQ1zi/QfMuLeE9CM3LYqzhzHNsCzVo/Qw+pPvOZ0INDOm5Rw7Py3sw6C8Mwu11iY+RiPlYHMTdo/5wChVhYlwAaCKKa3DgRVwMLMQI7uj7KbNBAElCGJIDkWCl19k3yGKocTbvby4xxnovBLMv3l3HCPcjskDRPN5JTZOarx4E8Z05SBBm3ZsDOzV1X9eUSPNGJDRNDjgL4zD8xUQVrmkzziIum1E1AvEQ17kb4zRZ6D24mPp2Y5zfGkhDGKp8ThjSx2mRLyQZXOy3DdfX2mkCHh1mNZa9wSQkl1RyDuAG0aiundepRCGipIJBl5ijNkiEZCbfnLo6mA3dQHQYd5KLa6mraTbAdNaLSFXVkCeuYWcg23ekhhcl1TR3AEiamMu6EZ8qZLN4cZwZDoR3mxtTkErSQmoQj+Hn8Oy0JcXHKUSxEESQOiAhjBjXln4lngDYypCfh4671opokIajrQVXky6JWRzNOWFj5vEM1cdxgAMExQSuZkC8A7FIm8wI7YFZZRkOZklOIQoVgVPoVh4Wvx8HmBTHHJz0PJjd4Fk4oL6shdTLApM4nM3D2lVfqpdHfcMHW4ZRp0UuUkalYVJqTqZiZ1plvqZjiEJlAZ67yzUkusRVApPhMjHPaq4y1sAjtbK1XWJfOCwkhpdFQnhkXGYe5C6VA38ISHKoKr/7TFiBCJgUcY7yOI8hCoKIkEWvOIrdADDRpL62UlmIgcMaP21FnLq91igXSKXBjwQtG9Pof8pk0wSp58uQYKTymlQ9CuYlRDGGuJIMwErLcA2JtRo04oheW0tYQzKm77A4xtFcpPHUbMNSuNgHLq+clvwVgy8BSRuwCZtfS4iCIG0S+MERnDFk3Lom9Y7ihCNXRfTpd9zKVaUWtryqpgXCEo1UEo+MO4sxFtmF8wC4hCjSJ9w/QN53qBHcw7PAxUvecR4YEYVUCkZJiszA1hfCCPa+eUgM1Y0oAj+aYW+MsQZghxBKSiQY1fAZeAjCLbwtOn4rldW1NaYQeFEdVNemCJkgtbm87x/epnVzleWzODibXWcRxXc8CgbvySMhR4W0h+mikGPxJNJ8p+TlTkUehqO62FAJR2kb7v/zRl5vaS3m6PnPIgqgEER2082YP3cEiGzJ9eGixjg13ORHDXv20yOn1yrj6njYRxSfi3TVDwBDlEW3SptyWq4tjfvqCz3xhRjT2sUvPzpSLDwxKkw9ZhNp2UcUqRTiypYQX52TMqLikq29nxPxt9ljpEW0z7ZIqbAn1Lh7k/befUSRpCO2jxtpB/1NSqBqJBeVht8Myye8WMaX9ynSl+vT6UhrSEKuLi37iIIzGDdAIJA+pV8f3s9WkfsJuLqwR6hyLjJ1Lm3fLhVNGG3EWw2YXUTxGR2qv0mFTnoBV3CD59e0R2sXUK1dnJW7WjrGXGdx5SFYwHdozLTWMmU+n0vZU+VPGWUKmuONI+m4GkG8aE4Uf4vWeRtPHcZceoFxU+LswoxpFyPgZYbp12nXObtkTKt/vjduOkYS0E1vQ7gx7S4xl899Lw0Oodxi6rPusTFiKd+7XZ43T3t1mybqGPO37bWJwrYtTeE1T2v2bQSU2lcONif3WF5MlXXVa04USMAREo44Qtr5FZPCDL9dbkia2s0zsUjGTzciV9mCRcBSM+72eXEh6eC608ZwJsRCFgmRHSNYREywKFr52XZQjkab6jwHjraMWo+I3zw6ZrzT/O3ElFqHYAU48Dadbl1t5kMYxAKnMcaCx/uodRlyGsRnOlow7aqe6JwouEm/FjGlvrRcqin4HHJE92oIkM3WWDCAIIKag1SIYBjbrehZi7Q4SIAw13QMZsD9xlg8hEC4OcwHmWA1BgO0DYo0ggVCwWKM+UsUnA7JYPeuSpOYS4bAPMYgOsJhFGMwGlisCfIxgZDAWhW3ZDeMFbdpkDizknisGM2JooypG4SkMPTSCr86aenHIRABYAtn5CpdkAMB3okIkGcMlYTLEQkhIK9qpklNiPG5dxQxxngWYryrEtgmcHBAHoaA3LYuQb7be8zb1qmO8ZnvSChJB693Wwt4EQxDgNUYDIGZhAM0h2dkkDX5/dRwjZsHPBb/O8fPiQJYyUdeF+LwuLjD+oC5yDgOwnGZGoqFdquZ6puFWBBEGdPWona9kDRjXAirrk9FQD6GIKW4HhxsjPe3i5IEVHIqPWBBNJLTbkOIBCfOx/UIDhbcbgx4jVExxCj+LrzgAVd7xawJE4CPDfG972xtIC0/P9S79y/aOreEanOiAIDbp0MF4L82sqPEFsdALmRB0NTYWpjvEKSS0n0iuLkORHuAwdbvK/o1yO1cb6HI9+0nbo9aNxIZ0w1ENdrGFBYGvIa97zH3FF5juuelayq8fY95WschzTodMW4LYOrwqwWSc6KYUMCokxAgiKLce5HJxzZtYwLqEGeW2IhTz4magaiLzBwjIEnmgVFhUvkCSRmP1UoKc6JQC7hAIpIepb5MelSNeYmITsZ0RxddPfXsqLluICpR6n4jBDtTb81Pf9ddXtUbmsAKX+CyS4FGaXel1qrVWqrmRKHTxSc8DCmVNqetnkoYC21Qpi7OZvlZN7obglpT8UiDuwaB9erYHTpfzEDvr6ZKdjAYRpEHs4FIRZK0aEfau13uSCa9TvCok+9HRkrBAtuWuQVRIJhBl77g6bXx2ueQShq6T6WbTWsvqDXqjaqrMafXlY15SYz6Wvsd5zg1p93UWqwwbjdarVbOmEsKL8seCq5vK22Coy2IAsGSe6JkDRkQ3V5e3F51tGsnFwOMKJwRrilPEXEhSewA9u7UPZZRD40HpxhOSQPxwSzjsVr2fE6UbmxBHOpAnCL5thVRtIqSEiUCiOZYCFi7oadGvBXHbkoiHaSM66t5Tu8AO6jr5SdGIW5XL/AhhC/5XjwFXpLCnZcTRBR2bZVrl6Qo5ugTVsRBFEm3LYgCwdIWGqV5fJwM3Soyr1RRg9M2TbMtnmlOTcyCKAir/amFOOVajR1U4BYGn6SUKG1oZ3s3kxTBEptikYyYFAKduQVRMERPZhAXMfINPklGDy9oU1uJ0liFRybe8B62h+qSCuEJtc6xBVGozdoUksmGYd7NbIqI+4cGgng0OMCEW7rE1IHomsdHBXE2RNrdjTVNp1MPLQOQICqKXqfu2BGtSEe3iR6pc6hN3hf1pZ21B+Js5n1JTZjQXhN+txhF2XNLokA6AnSfveSghc8POTAOQZq+Z28QhUPgBi+J2crrQjvqkzSL5cQp7B9tYrfBZnEKDpXX0VVPNTC8cl+r5XUWciVD3joKNdX+sqZeSElrOFuo1n1gwkkjeklbIYMAmw1brZ12buhxgfQBN5URRRRJt07Y8btUSlVLF3SeMdMgcf6eemLzHrDpWuaVzvk7pmpwKbzeycizu9p3FQIxrHrTqr0Lc6JQGdxLTQKanLl6vJnqS1xLzfB8ENDvkEONyNaKDag6ARY1JI5oPcU76HtjmuCUVukJEaTR9x3T9p4W01rkoqp4OiTFZz1xoml4DOR783knb63ztCjX+g+4wQvZfU+LctQRN9fYpm+oVbbPDmEbbn9mEIVjsVp+cE4UyDQpaVFh41kgikW23sHuuLmwgEQU3zfFDrgWjTgO3gk5ilf8+h6cAAlN1SMcF7Ypdu/r2VpNn89T7JDVrdTmMSdCQmYPzWmRyzxgNga8CKas0E1OrXAag3DW4DtBrJ9usGNaxBA4ckjUU2iTXbu9Fmrq6w6bE6WLVHnk9km4/coAUmAppuApQVgj7em+DMj3+bTuXre0m0Ih37wIUePNLrRO3hq78e7W770XfMZBtmeazOwhNeZq5dB7OmZav28Aijje6W6df7om72zKXgMi24FYNIktEt4pe8A7XdW5mBMFIDjFcRdcY5zCLcZZbAw9Sp3gDNyDK1tLr6pCekC2Vg6BLSyRjsYWEFCVNq08UonNCvucOqOyqKsexNAxEIvIvjfO3608dqsbWHhlVY3dTNqzWwqvMdRQT43wffcyikfs6YQfWgQujGVveWCrXnOi+BsnMfQaJyBQrUBUT6UQWd/73W0BbYRuKdczPocEOrlE6SIh1lXCVvfjPEgwrrqfzqf2qvupwpZpSWOrk+Zp/xVieI+bZCHmHF7vn8Lb7XBgbvm6x2CxN9Ygy0C1f9+QGMSgumQgVr3mROnLZWydNyLZB3lUGF+8iOhJQ20X6sZMC8BNFtEiVN/Z45Yg1mVMjWjHeB7CzFMpgOwaUfAaQ7e3CtpC17TyiDBuDOJz7+iRUubyuXnAAl6Ea1a66ha8xvjZLILdwOI4QepLBk5W3921jyjshg0zfHGiqkMSV0DiVH92Aae4nEvc0vmYqUs+5c6pC7xrTOE8BO/UrZ+uCfEwKOeHvZWEfMFIgCL2qtc+ouBEQEi8Me66Afnj8mHXx17i9i5gVJ4eBnUIG9W7evC6jyg1zIiiwsbQaf+XUriSx+OuypELXwYXajXq8hiVuy31xAHaJNOxjyg+p7PVOhCFn8+g8ctJy1m9wQvXeqmHtRTNlpASjSTK5OwLWyJ+g4dNmt33EQXGfMfb4AYjDDEVSCp6cQc3AegKkgohuNO8MnYUU8KBgBIexCaa8TCmEgE3fIvSwJk7ewHEtigiiVkEjzhEEo47uPaJdleQHp+cGhHUkUTsGu3EY3CASAw9t5sKF5tQYZsx5VmSAlDiKysqc6wQRXwVvbjIXMHV8j1XmiIjYMV4ajrUld+tXWyGATk6DLyehdV6vHat+xBRPCMukJyUpHQLopw0qqjE6G8iwleASBiQVMi19Th0UkOVyWxIqfRw6E2ZcQlRAEvXqrHIjjJ8aundNHO1nVq0j951bqhscZoiluqiwFNcolPUui/FiRNdBHEGqLhFnksijosse4owbZA7L5M3UdhziS9SEq2BLSEhPE8aQi+ZZKSjF1erw5+FpCWS0uelLejXHgMrcFJxc8stkajzXM0Yd5+K1Ho76S+CME3GdmuhThvqmS3BgLytLcvi/4+7Y4iCi9gXfVZSDfJjknbdWDPfXncsgUoU71Gb6TlbF+HlmZuKtjbJWO4vhqAJqC6NGZt5W3NEHUOUxi7EuwlLKX4eCsRRY+1qnO5rXEqcEkVikDPR4w+nxF76rqXjzNlTi7jDdv6SFKqTlylQZOQv1G4eSxSLbUVQsUfCEmH48XqPZZK13bTB+hg7U1haFpaJ5XZTGVupL/BxXEiG/SaazBGEhHB9GfbVE46HOKac0oqexbd6eNazFqMczBDiLk4AL0VQ2RNFj03WlSg9TW7aQ3xoHcd+X1VMygXHEo0kRPzBoJNSaaVT/7XHsfB8yniIUDTqfkVGtmro0IlBPXiZKrMoXpnnFcVwml7kUxvjlubWwN9ydFPtU6kqoaef+Z1k9z838LKsnw2RrcBU0inU6IXZkSlVAK28qfmO0cbtkNp9Hod0KYRwjz2vACToEvUzjPJDbl4U72ztBbIFkMtLcnNCmkjsGkvcMliJqHjFk/QcguiypHpr1K9oeQKQPz44nfcBeZoluIDuQ62Y5c72BEte2sgqCiYlkpdUGiK37FsEnddOdLu2Y68wBIlvc8ac8RCr1cM2aCAoGK3XdgZEWXxM7bn004GHIdURHzKhkEVk2RRGTmWNKltyeY84BufZK8LW+F1Zt2fJcwBIkGTeGueZdFu15KFsA8Zo50ubwc3PkFNVPQCBE0IypN6p2G694FSsXrBagrxdLrEKGq4hsowrjgOof1FE9RxztdcWYXg0kEW9ITaCIIx2HUip+9z/FHFsm06NddWQNbQTnwpFJO57c1mIgmhcXHm7/gOfVXf2HoOsfWNxuE02kIcYPf5CVc1/wznl30C1KYFnY58L70Y9grcGad0bj0jcXoFiOxEP2bBd6yANbYKggiGflKoWurufnmri4iKILETPAdhqH8vJ9EEUfbHsAI7CXRAn30N94exTD7H0bs4DdxlhxADmgEBS0RMppDJ68kQ755v36r72aTDaZrruye//5tK6RFX1WJD+EwJzyTpgAOvh6pLUTUq5J1Ni8iDEKfVClp9q0AwniZGEc6w4D+qUs0fq6ZAcnhE1Zh5ziJ6pnWlvVv8dYPuA2xY038mFGJUORG9fs589w4W6ZA+pSkTwk81A9MZh53U01sD/zndAHKRZTD0oLjLO9p1dUZq8Leq8xrmdlNRaD9/pKUbt9WpnJGCn3fX+hsR6eyV445AeeiD6rgSSBk4F4pDE1bYqbEaN8eIuqj/7X9oUs0iMWjxp6bG3dQZOhavzdOt1uxDbNN6D/KkijNLTJpquQZge+8EW9LAcSCcJ7p6C1B0ASwPRU9e0+nPz3FebB0Tp3dtOVZAYWVsu5Kn/bnAX8KQH4qk3dw9l64Fp9aamRCEVPUsFk1BvfiJSD06bHuS2OtK2fuG+hCT9X8JIZ1swv15PMQ8GR7ZbcksYSVRVVueh1g6lgLaEafN37yNK7Yy0iXhDpM6lpaN5Znx8Li2jvKXB3AfflnNujvRDExxK3dPtDjqQbJRFRRgqQsek1En/q2lPmFs7v3UI/k/L7w8RxffiAOrMPncSQ62JlDkBkpfsjWCMFF1a3/9qot4honQt3VsotuiJQ6J1BOMu885ax76a1n8pYV1KlALP8AoANaup04tneGPqJ/7LZw/tvJSLvVqAOpYoV8u6rmo4rxHlEpLvGlEuIVE+AVKi6bmqQoz/AAAAAElFTkSuQmCC;" vertex="1" parent="1">
          <mxGeometry x="330" y="439" width="33.3" height="31" as="geometry" />
        </mxCell>
      </root>
    </mxGraphModel>
  </diagram>
</mxfile>
